<svg width="150" height="150" viewBox="0 0 150 150" fill="none" xmlns="http://www.w3.org/2000/svg">
<path fill-rule="evenodd" clip-rule="evenodd" d="M146.886 67.9817H145.828V70.398H146.357V69.6429H146.772L147.301 70.398H147.905L147.301 69.5296C147.603 69.4164 147.83 69.1521 147.83 68.7745C147.83 68.548 147.754 68.3592 147.641 68.2459C147.452 68.0572 147.225 67.9817 146.886 67.9817ZM147.301 68.8123C147.301 69.0011 147.15 69.1521 146.886 69.1521V69.1898H146.357V68.4725H146.886C147.15 68.4725 147.301 68.5857 147.301 68.8123Z" fill="#282828"/>
<path fill-rule="evenodd" clip-rule="evenodd" d="M146.735 67C145.451 67 144.469 68.0194 144.469 69.2654C144.469 70.5113 145.451 71.493 146.735 71.493C148.018 71.493 149 70.4735 149 69.2276C149 68.0194 148.018 67 146.735 67ZM146.735 67.2643C147.867 67.2643 148.736 68.1327 148.736 69.2654C148.736 70.3603 147.867 71.2664 146.735 71.2664C145.602 71.2664 144.734 70.3603 144.734 69.2654C144.734 68.1704 145.602 67.2643 146.735 67.2643Z" fill="#282828"/>
<path d="M14.8532 81.083C11.9083 81.083 9.79394 78.6288 9.79394 75.6461V75.6084C9.79394 72.6256 11.9083 70.2093 14.8532 70.2093C16.59 70.2093 17.9115 70.9644 19.1196 72.1348L20.8564 70.1338C19.4217 68.7368 17.7227 67.7551 14.891 67.7551C10.247 67.7551 7 71.3042 7 75.6461V75.6839C7 80.0636 10.3225 83.5371 14.7777 83.5371C17.6472 83.5371 19.3839 82.4799 21.0074 80.8187L19.2707 79.0441C17.9492 80.3279 16.741 81.083 14.8532 81.083Z" fill="#282828"/>
<path d="M23.2728 68.0195H25.9535V80.8565H33.9955V83.3106H23.2728V68.0195Z" fill="#282828"/>
<path fill-rule="evenodd" clip-rule="evenodd" d="M75.1117 68.0195H69.4105V83.3106H75.1117C79.9067 83.3106 83.2292 79.9503 83.2292 75.6462V75.6084C83.2292 71.3042 79.9067 68.0195 75.1117 68.0195ZM80.4352 75.6839C80.4352 78.6666 78.3209 80.8565 75.1117 80.8565H72.0912V70.4736H75.1117C78.3209 70.4736 80.4352 72.6634 80.4352 75.6839Z" fill="#282828"/>
<path d="M94.4426 68.0195L102.636 78.5911V68.0195H105.279V83.3106H103.013L94.5936 72.3992V83.3106H91.9507V68.0195H94.4426Z" fill="#282828"/>
<path d="M108.828 68.0195H111.509V83.3106H108.828V68.0195Z" fill="#282828"/>
<path d="M134.464 80.8942V76.7788H142.128V74.4002H134.464V70.3981H143.148V68.0195H131.783V83.3106H143.223V80.8942H134.464Z" fill="#282828"/>
<path d="M117.549 68.0195L125.742 78.5911V68.0195H128.385V83.3106H126.158L117.7 72.3992V83.3106H115.057V68.0195H117.549Z" fill="#282828"/>
<path d="M59.7073 81.083C62.0859 81.083 63.5584 79.6483 63.5584 76.8166H63.5962V67.9817H66.2768V76.6656C66.2768 81.234 63.7094 83.5371 59.7073 83.5371C55.7052 83.5371 53.1755 81.2718 53.1755 76.8166V68.0194H55.8562V76.7033C55.8562 79.5728 57.2909 81.083 59.7073 81.083Z" fill="#282828"/>
<path fill-rule="evenodd" clip-rule="evenodd" d="M42.7171 67.7551C38.0354 67.7551 34.7129 71.3419 34.7129 75.6839C34.7129 79.988 37.9977 83.5371 42.6794 83.5371C47.3989 83.5371 50.7214 79.9125 50.7214 75.6084V75.5706C50.6836 71.3042 47.4366 67.7551 42.7171 67.7551ZM47.8519 75.6839C47.8519 78.6666 45.7376 81.083 42.6794 81.083C39.6212 81.083 37.4691 78.6288 37.4691 75.6461V75.6084C37.4691 72.6256 39.5834 70.2093 42.6416 70.2093C45.6621 70.2093 47.8519 72.7011 47.8519 75.6461V75.6839Z" fill="#282828"/>
</svg>
