<svg width="150" height="150" viewBox="0 0 150 150" fill="none" xmlns="http://www.w3.org/2000/svg">
<path d="M56.825 70.2189H74.6588V72.9453H57.3774L56.825 70.2189ZM74.6588 45.0001C72.6861 46.1797 71.1341 49.4828 71.0815 52.0257C69.6085 51.1344 65.8997 50.7936 63.4798 54.4375C66.2417 54.5948 68.5564 56.5085 68.8983 59.13C69.2666 62.1185 66.9256 64.8448 63.6376 65.2905C60.3497 65.7099 57.4037 63.6127 57.0091 60.6504C56.6935 58.1076 58.3243 55.7482 60.8495 54.8307C60.0603 54.0442 57.088 53.3102 53.9842 54.7783C51.801 52.3927 49.8546 51.5014 46.1458 51.5014C53.0636 56.2725 56.4831 68.8033 56.4831 68.8033H74.6588V45.0001Z" fill="#535353"/>
<path d="M91.9402 72.9453H74.6587L74.1589 72.4472V70.717L74.6587 70.2189H92.4925L91.9402 72.9453Z" fill="#282828"/>
<path d="M74.6587 45.0001L74.1589 45.7603V68.0955L74.6587 68.7771H92.8608C92.8608 68.7771 96.2803 56.2463 103.198 51.4752C99.4893 51.4752 97.5428 52.3665 95.3596 54.752C92.2558 53.3102 89.2835 54.018 88.4944 54.8045C91.0195 55.722 92.6504 58.0814 92.3347 60.6242C91.9665 63.6127 88.9942 65.6837 85.7062 65.2643C82.4183 64.8448 80.0772 62.0922 80.4455 59.1037C80.7874 56.4822 83.1022 54.5948 85.864 54.4113C83.4178 50.7674 79.709 51.1082 78.2623 51.9995C78.1834 49.4828 76.6315 46.1797 74.6587 45.0001Z" fill="#282828"/>
<path fill-rule="evenodd" clip-rule="evenodd" d="M135.499 81.0196C135.499 80.4953 135.104 80.2332 134.552 80.2332H133.447V82.5925H134.026V81.8585H134.394L134.894 82.5925H135.578L134.973 81.7536C135.289 81.6488 135.499 81.4128 135.499 81.0196ZM134.499 81.3866H134V80.7312H134.499C134.736 80.7312 134.894 80.8361 134.894 81.0458C134.92 81.2555 134.762 81.3866 134.499 81.3866Z" fill="#282828"/>
<path fill-rule="evenodd" clip-rule="evenodd" d="M131.974 81.4651C131.974 80.1544 133.053 79.0533 134.394 79.0533C135.736 79.0533 136.788 80.1544 136.814 81.4651V81.4913C136.814 82.8021 135.736 83.9031 134.394 83.9031C133.026 83.9031 131.974 82.8021 131.974 81.4913V81.4651ZM134.394 83.4837C135.473 83.4837 136.314 82.5662 136.314 81.4651C136.314 80.3641 135.473 79.4728 134.394 79.4728C133.316 79.4728 132.474 80.3903 132.474 81.4913C132.474 82.5924 133.289 83.4837 134.394 83.4837Z" fill="#282828"/>
<path fill-rule="evenodd" clip-rule="evenodd" d="M25.8657 79.2892H20V94.2842H25.8657C30.6003 94.2842 33.862 91.0074 33.862 86.7867V86.7343C33.8883 82.5399 30.6003 79.2892 25.8657 79.2892ZM30.4162 86.8392C30.4162 89.4869 28.575 91.3219 25.8657 91.3219H23.3143V82.2778H25.8657C28.575 82.2778 30.4162 84.139 30.4162 86.813V86.8392Z" fill="#282828"/>
<path d="M49.8018 88.2286H42.6998V91.3744H50.8802V94.3105H39.4119V79.2892H50.775V82.2253H42.6998V85.2925H49.8018V88.2286Z" fill="#282828"/>
<path d="M67.3728 88.5431L60.3234 79.2892H57.2722V94.3105H60.5339V84.7682L67.82 94.3105H70.6344V79.2892H67.3728V88.5431Z" fill="#282828"/>
<path d="M80.4194 79.2892L84.3649 85.6595L88.3368 79.2892H91.8878V94.3105H88.5998V84.506L84.3649 90.9287H84.286L80.0774 84.5847V94.3105H76.8684V79.2892H80.4194Z" fill="#282828"/>
<path fill-rule="evenodd" clip-rule="evenodd" d="M102.383 79.1844L95.9382 94.3105H99.3051L100.673 90.955H107.065L108.432 94.3105H111.905L105.46 79.1844H102.383ZM101.883 88.0189L103.882 83.1429L105.881 88.0189H101.883Z" fill="#282828"/>
<path d="M118.901 79.2892L125.951 88.5431V79.2892H129.212V94.3105H126.398L119.112 84.7682V94.3105H115.824V79.2892H118.901Z" fill="#282828"/>
<path d="M34.1252 65.4478H36.1505V64.6089H34.1252V63.7438H36.4399V62.9049H33.1782V67.2042H36.4662V66.3653H34.1252V65.4478Z" fill="#282828"/>
<path d="M38.886 64.0584C38.886 64.3468 39.0701 64.4517 39.8066 64.6352C40.6746 64.8449 41.1481 65.1595 41.1744 65.8935C41.1744 66.7586 40.5168 67.2304 39.5962 67.2304C38.9649 67.2304 38.3073 66.9945 37.7812 66.5489L38.3336 65.8673C38.7282 66.1818 39.1227 66.3916 39.6225 66.3916C40.0171 66.3916 40.2538 66.2605 40.2538 65.9983C40.2538 65.7624 40.096 65.6313 39.3858 65.4478C38.5177 65.2381 37.9654 65.0022 37.9654 64.1371C37.9654 63.3768 38.5967 62.8525 39.4647 62.8525C40.096 62.8525 40.622 63.0623 41.0692 63.4031L40.5694 64.1109C40.1749 63.8487 39.8066 63.6914 39.4384 63.6914C39.0701 63.6914 38.886 63.8487 38.886 64.0584Z" fill="#282828"/>
<path d="M42.3318 63.77H43.6207V67.2042H44.5676V63.77H45.8828V62.9049H42.3318V63.77Z" fill="#282828"/>
<path d="M46.5928 66.2081H47.5923V67.178H46.5928V66.2081Z" fill="#282828"/>
<path d="M99.7524 63.2458L99.9629 64.006L100.699 63.8225V67.2043H101.646V62.8788H100.989L99.7524 63.2458Z" fill="#282828"/>
<path fill-rule="evenodd" clip-rule="evenodd" d="M103.303 64.3207C103.303 63.4556 103.961 62.8264 104.934 62.8264C105.513 62.8264 105.855 62.9837 106.171 63.2983C106.46 63.6129 106.67 64.0847 106.67 64.9236C106.67 66.313 106.039 67.2568 104.803 67.2568C104.171 67.2568 103.751 67.047 103.382 66.7587L103.882 66.0509C104.198 66.313 104.461 66.4179 104.829 66.4179C105.487 66.4179 105.671 65.8149 105.697 65.4479C105.487 65.6314 105.197 65.7363 104.829 65.7363C103.908 65.7363 103.303 65.212 103.303 64.3469V64.3207ZM104.987 64.9236C105.46 64.9236 105.723 64.6615 105.723 64.2945C105.723 63.9274 105.434 63.6391 104.961 63.5867C104.487 63.5867 104.224 63.875 104.224 64.242V64.2682C104.224 64.6615 104.513 64.9236 104.987 64.9236Z" fill="#282828"/>
<path d="M109.985 64.6613L111.063 63.6127V62.9048H108.143V63.7175H109.827L108.801 64.7399L108.959 65.3428H109.353C109.879 65.3428 110.195 65.5263 110.195 65.8934C110.195 66.2079 109.932 66.4177 109.59 66.4177C109.143 66.4177 108.854 66.2342 108.538 65.8934L107.88 66.5225C108.249 66.9682 108.775 67.2565 109.564 67.2565C110.511 67.2565 111.116 66.6536 111.116 65.8409C111.142 65.0545 110.59 64.7399 109.985 64.6613Z" fill="#282828"/>
<path fill-rule="evenodd" clip-rule="evenodd" d="M115.692 64.0323C115.692 64.5041 115.482 64.7663 115.14 64.976C115.587 65.1857 115.85 65.4741 115.85 65.9984C115.85 66.7849 115.14 67.2567 114.193 67.2567C113.246 67.2567 112.536 66.7586 112.536 66.0246C112.536 65.5003 112.773 65.1857 113.22 64.976C112.878 64.7663 112.667 64.5041 112.667 64.0323C112.667 63.3769 113.246 62.8526 114.167 62.8526C115.087 62.8526 115.692 63.3769 115.692 64.0323ZM114.167 63.6128C113.798 63.6128 113.562 63.8488 113.562 64.1109C113.562 64.4255 113.798 64.6614 114.167 64.6352C114.535 64.6352 114.772 64.3993 114.772 64.1109C114.772 63.8488 114.561 63.6128 114.167 63.6128ZM114.193 66.4703C114.666 66.4703 114.93 66.2343 114.93 65.946C114.93 65.6052 114.614 65.3955 114.193 65.4217C113.772 65.4217 113.457 65.6052 113.457 65.946C113.457 66.2343 113.72 66.4703 114.193 66.4703Z" fill="#282828"/>
</svg>
