<svg width="150" height="150" viewBox="0 0 150 150" fill="none" xmlns="http://www.w3.org/2000/svg">
<path fill-rule="evenodd" clip-rule="evenodd" d="M127.595 73.5729C124.931 73.5729 123.097 71.8892 122.846 69.2505C122.745 68.0191 122.77 66.8129 123.273 65.682C124.002 63.9983 125.308 63.1438 127.093 63.0182C127.771 62.9679 128.45 63.0182 129.078 63.2192C130.284 63.5962 131.189 64.3752 131.666 65.5312C132.47 67.416 132.47 69.351 131.591 71.2107C130.887 72.6682 129.631 73.4221 128.022 73.5478C127.872 73.5478 127.696 73.5478 127.595 73.5729ZM130.762 68.2956C130.731 68.0623 130.709 67.8249 130.687 67.5867L130.686 67.5856L130.686 67.5846L130.686 67.5813C130.653 67.2313 130.62 66.8793 130.561 66.5364C130.41 65.682 130.083 64.903 129.48 64.2496C128.424 63.1187 126.112 63.0433 125.082 64.8778C124.554 65.7825 124.378 66.7877 124.328 67.8181C124.278 68.9741 124.353 70.1049 124.831 71.1855C125.484 72.7185 126.841 73.4221 128.324 72.9949C129.254 72.7185 129.832 72.0651 130.209 71.2107C130.611 70.2808 130.711 69.3008 130.762 68.2956Z" fill="#282828"/>
<path fill-rule="evenodd" clip-rule="evenodd" d="M55.6471 71.3865C56.2251 70.4315 56.3759 69.376 56.401 68.2703C56.3815 68.1042 56.3695 67.9381 56.3578 67.775C56.3394 67.5187 56.3214 67.2691 56.2754 67.0389C56.0492 65.6819 55.4712 64.5259 54.3152 63.7469C53.3603 63.1186 52.3048 62.9678 51.1991 63.0432C49.5153 63.1689 48.2085 63.9228 47.5049 65.4808C46.6505 67.3656 46.6505 69.3258 47.53 71.2106C48.0578 72.3666 48.9876 73.1205 50.2441 73.3969C50.8975 73.5226 51.6011 73.5728 52.2545 73.5226C53.7372 73.422 54.8932 72.6933 55.6471 71.3865ZM54.86 67.833C54.8791 67.9788 54.8982 68.1246 54.9183 68.2703C54.843 69.2755 54.7424 70.2556 54.3655 71.1854C53.687 72.7686 52.2043 73.4723 50.6964 72.9445C49.9677 72.6681 49.4651 72.1404 49.1132 71.4619C48.5855 70.4818 48.4599 69.4263 48.4599 68.3457C48.4599 67.1646 48.5855 66.0337 49.1635 64.9782C50.0431 63.4202 51.9781 62.9678 53.31 63.9982C53.9885 64.5259 54.3906 65.2547 54.5665 66.084C54.7072 66.667 54.7836 67.25 54.86 67.833Z" fill="#282828"/>
<path fill-rule="evenodd" clip-rule="evenodd" d="M74.8716 84.8564H80.6013C80.6013 84.7935 80.5981 84.737 80.5951 84.6846C80.5897 84.5906 80.5851 84.5099 80.6013 84.4292C80.6516 84.1528 80.5008 84.0774 80.2495 84.0774C79.973 84.0523 79.6715 84.002 79.3699 83.9517C78.9678 83.9015 78.7416 83.6502 78.7165 83.2481C78.7065 83.037 78.6884 82.8259 78.6703 82.6148C78.6431 82.2982 78.616 81.9815 78.616 81.6649V74.0755C78.8441 74.0548 79.0703 74.0379 79.2946 74.0211C79.8857 73.9768 80.4638 73.9335 81.0285 73.8242C82.9635 73.4724 84.2954 72.3667 84.8483 70.4316C85.175 69.2756 85.2253 68.0694 85.0745 66.8883C85.0242 66.3857 84.8986 65.883 84.7227 65.4307C84.0944 63.7721 82.7374 63.169 81.0034 63.1941C80.0484 63.2067 79.0872 63.2255 78.126 63.2444C77.1647 63.2632 76.2035 63.2821 75.2485 63.2946H74.8967V64.0485C75.0224 64.0737 75.148 64.096 75.2737 64.1183C75.525 64.163 75.7763 64.2077 76.0276 64.2747C76.304 64.3501 76.4799 64.526 76.5051 64.8276L76.5122 64.8956C76.56 65.3481 76.6056 65.7802 76.6056 66.2349V81.9413C76.6056 82.3183 76.6056 82.6701 76.5553 83.0471C76.4799 83.7256 76.3291 83.8764 75.6255 84.002C75.4998 84.0146 75.3742 84.0334 75.2485 84.0523C75.1229 84.0711 74.9972 84.09 74.8716 84.1025V84.8564ZM79.3448 73.1457H78.616C78.616 70.1301 78.616 67.1647 78.6411 64.1491C78.8738 64.1553 79.1066 64.1522 79.3385 64.1491C80.0332 64.1396 80.7209 64.1303 81.3803 64.3752C82.1845 64.6768 82.6368 65.3302 82.8128 66.1344C83.1646 67.6673 83.1395 69.2254 82.662 70.7583C82.1342 72.3667 81.0285 73.1457 79.3448 73.1457Z" fill="#282828"/>
<path d="M19.1887 76.2943L19.1893 76.2928C19.4719 75.4324 19.7516 74.5811 20.0374 73.7236C20.4813 72.3616 20.9293 70.9955 21.3781 69.627L21.3797 69.622L21.3806 69.6192L21.3827 69.6127L21.3831 69.6116L21.3852 69.6054L21.3857 69.6037L21.3893 69.5927L21.3897 69.5916C22.0549 67.5631 22.7218 65.5293 23.3797 63.4956C23.3848 63.4829 23.3896 63.4702 23.3944 63.4576C23.4369 63.3458 23.4754 63.2443 23.6562 63.2443H27.7273C27.7775 63.2443 27.8278 63.2443 27.8529 63.2694C27.8781 63.2945 27.8781 63.3197 27.8781 63.3448C27.9535 64.149 27.9535 64.149 27.1744 64.2746C25.9179 64.4505 25.8425 64.5259 25.7169 65.7824C25.6666 66.3102 25.6666 66.8379 25.6666 67.3656V80.7852C25.6666 81.3391 25.7101 81.9074 25.7531 82.4682C25.7667 82.6453 25.7802 82.8218 25.7923 82.9967C25.8174 83.4239 26.0687 83.6752 26.4708 83.7506C26.8477 83.826 27.2498 83.9014 27.6268 83.9265C27.8027 83.9516 27.8781 84.0019 27.8781 84.1778V84.8563H21.1683V83.9768L22.2238 83.826C22.9777 83.6752 23.1284 83.5495 23.229 82.7705C23.3044 82.1925 23.3295 81.5894 23.3295 81.0114V66.4609C23.3226 66.4609 23.3175 66.4609 23.3134 66.4604L23.3109 66.46L23.3072 66.459C23.2998 66.4564 23.2937 66.4503 23.2792 66.4358C23.2541 66.5238 23.2227 66.6117 23.1913 66.6997C23.1599 66.7876 23.1284 66.8756 23.1033 66.9635C22.7602 68.0127 22.4172 69.0608 22.0743 70.1084L22.0728 70.113L22.0715 70.117L22.0711 70.1181L22.0696 70.1227L22.0692 70.1238L22.0689 70.1249L22.0676 70.1289L22.0663 70.1329C20.6788 74.3717 19.2946 78.6007 17.9265 82.8459C17.8511 83.0972 17.7254 83.1977 17.4741 83.1726L17.4011 83.1694C16.9209 83.1486 16.9132 83.1483 16.7453 82.6449C16.4135 81.6004 16.0816 80.555 15.7495 79.509L15.7486 79.5061C14.3711 75.1673 12.9905 70.8185 11.5936 66.4861C11.5685 66.4107 11.5434 66.3604 11.4931 66.285C11.4931 66.32 11.4877 66.355 11.4819 66.3925C11.4752 66.4358 11.468 66.4825 11.468 66.5363V81.5391C11.468 81.906 11.5082 82.2729 11.5494 82.6496L11.5495 82.6507C11.5647 82.7896 11.5801 82.93 11.5936 83.0721C11.6188 83.4742 11.8952 83.7003 12.2722 83.7757C12.7245 83.8762 13.1768 83.9516 13.6543 84.027V84.8815C11.7947 84.8563 9.9099 84.8563 8 84.8563V83.9768C8.37696 83.9265 8.75391 83.8762 9.10573 83.826C9.83451 83.7003 10.0356 83.4993 10.0858 82.7705C10.1361 82.2679 10.1612 81.7402 10.1612 81.2376V66.9133C10.1612 66.3856 10.1109 65.8578 10.0607 65.3301C10.0356 64.6767 9.88477 64.5008 9.25652 64.35C9.04612 64.2974 8.83572 64.2693 8.61679 64.24C8.52203 64.2273 8.42534 64.2144 8.32669 64.1992C8.27923 64.1992 8.23177 64.1936 8.18167 64.1877C8.12565 64.1811 8.06633 64.1741 8 64.1741V63.2694H13.0512C13.7917 65.491 14.5369 67.7126 15.2846 69.9421C16.2877 72.9329 17.2956 75.9379 18.3034 78.9758C18.6076 78.0633 18.899 77.1762 19.1873 76.2987L19.1887 76.2943Z" fill="#282828"/>
<path d="M142.975 63.6715C142.858 63.6832 142.741 63.7003 142.621 63.7179C142.484 63.738 142.344 63.7586 142.196 63.772C141.894 63.7971 141.744 63.973 141.718 64.2746C141.693 64.5258 141.693 64.802 141.693 65.0532V73.3969C141.367 73.4723 141.14 73.422 140.939 73.1456C139.768 71.4988 138.586 69.8621 137.407 68.2289L137.402 68.2227L137.401 68.2212L137.4 68.2196L137.395 68.2125L137.392 68.2086C136.705 67.2566 136.018 66.3059 135.335 65.3552C135.314 65.324 135.289 65.2928 135.26 65.2562C135.218 65.2044 135.168 65.142 135.109 65.0536V71.5624C135.109 71.7924 135.13 72.0013 135.153 72.2277L135.159 72.2912C135.185 72.5425 135.31 72.7184 135.587 72.7686C135.838 72.7938 136.089 72.844 136.341 72.8943V73.2713H133.249V72.8943L133.36 72.8741C133.594 72.831 133.814 72.7904 134.054 72.7686C134.305 72.7184 134.405 72.5676 134.431 72.3414C134.456 72.1153 134.481 71.8891 134.481 71.6629V64.928C134.481 64.8023 134.481 64.6767 134.456 64.5259C134.406 63.8725 134.305 63.7971 133.652 63.7217C133.526 63.7217 133.375 63.6966 133.224 63.6715V63.2443H135.411C135.486 63.2443 135.587 63.3699 135.637 63.4453C136.504 64.6516 137.365 65.8515 138.225 67.0515C139.086 68.2515 139.947 69.4514 140.814 70.6577C140.864 70.7331 140.939 70.8336 141.04 70.9593C141.04 70.8709 141.049 70.8085 141.056 70.7567L141.06 70.7277C141.061 70.7192 141.062 70.7109 141.062 70.7028C141.064 70.6874 141.065 70.6725 141.065 70.6577V64.7772C141.065 63.8725 141.015 63.7971 140.11 63.7217C139.768 63.6973 139.806 63.5062 139.855 63.2644L139.859 63.2443H143C142.975 63.395 142.975 63.5207 142.975 63.6715Z" fill="#282828"/>
<path fill-rule="evenodd" clip-rule="evenodd" d="M108.069 68.8986V71.7132C108.069 71.864 108.069 72.0399 108.094 72.1907C108.144 72.6682 108.22 72.7435 108.697 72.8189L108.747 72.8274C108.877 72.8494 108.993 72.8692 109.149 72.8692V73.2713H105.405V72.8943C105.531 72.8692 105.656 72.8504 105.782 72.8315C105.907 72.8127 106.033 72.7938 106.159 72.7687C106.41 72.7184 106.586 72.5928 106.586 72.3163C106.611 71.9896 106.636 71.6629 106.636 71.3363V64.6767C106.636 63.9228 106.511 63.7972 105.757 63.7218C105.65 63.7218 105.561 63.7034 105.459 63.6824L105.405 63.6715V63.2443H105.707C106.335 63.2317 106.957 63.2254 107.579 63.2192C108.201 63.2129 108.823 63.2066 109.451 63.194C110.079 63.194 110.682 63.2443 111.286 63.4705C112.14 63.8223 112.592 64.4505 112.668 65.3804C112.768 66.7625 112.366 67.8934 110.682 68.5719C110.682 68.597 110.682 68.6473 110.708 68.6724C111.097 69.263 111.493 69.8472 111.889 70.4314C112.284 71.0158 112.68 71.6001 113.07 72.1907C113.371 72.643 113.748 72.8943 114.326 72.8692C114.402 72.8692 114.452 72.8692 114.552 72.8943V73.3215H112.24C112.039 73.3215 111.939 73.2713 111.838 73.0954C111.668 72.8178 111.496 72.539 111.323 72.2596L111.315 72.2466L111.313 72.2424L111.312 72.2416C110.677 71.2117 110.036 70.1731 109.426 69.1499C109.3 68.974 109.2 68.8735 108.974 68.8986H108.069ZM108.389 68.4312C108.724 68.4168 109.045 68.4031 109.35 68.3457C110.28 68.195 110.883 67.6672 111.11 66.7123C111.235 66.1091 111.235 65.506 111.084 64.9029C110.984 64.5008 110.758 64.1741 110.381 63.9731C109.785 63.6856 109.157 63.7001 108.508 63.7151C108.362 63.7184 108.216 63.7218 108.069 63.7218V68.4463C108.177 68.4403 108.284 68.4357 108.389 68.4312Z" fill="#282828"/>
<path d="M59.2407 65.1793C59.2458 65.1743 59.2508 65.1703 59.2558 65.1663C59.2759 65.1502 59.296 65.1341 59.3161 65.0537C59.3664 65.1039 59.4166 65.1793 59.4669 65.2547C60.0231 66.026 60.5793 66.7951 61.1349 67.5633L61.138 67.5676C62.464 69.401 63.7863 71.2294 65.0961 73.0702C65.2971 73.3718 65.4982 73.3969 65.8249 73.3215V64.8526C65.8249 64.6265 65.8249 64.4002 65.85 64.1741C65.8751 63.8977 66.0259 63.7218 66.3023 63.6966C66.5536 63.6715 66.805 63.6464 67.0563 63.5961V63.194H63.9401V63.6212L64.5432 63.6966C65.0458 63.7972 65.0961 63.8474 65.1715 64.35C65.1966 64.5511 65.1966 64.727 65.1966 64.928V70.9593C65.1545 70.9067 65.1168 70.8628 65.0835 70.8241C65.0373 70.7705 64.9996 70.7267 64.9704 70.6829C64.1035 69.4767 63.2366 68.2643 62.3697 67.0519C61.5026 65.8392 60.6356 64.6266 59.7685 63.4202C59.7182 63.3448 59.6177 63.2192 59.5423 63.2192H57.356V63.6464C57.4833 63.6695 57.6053 63.6873 57.7244 63.7047C57.8639 63.7251 57.9994 63.7449 58.135 63.772C58.3863 63.8223 58.512 63.9479 58.5371 64.1992C58.5622 64.5008 58.5873 64.8024 58.5873 65.1039V71.4619C58.5873 71.7635 58.5622 72.0902 58.5371 72.3917C58.5371 72.5928 58.4114 72.7435 58.1853 72.7687L57.356 72.9195V73.2964H60.4721V72.8943C60.4058 72.8943 60.3465 72.8873 60.2904 72.8807C60.2403 72.8748 60.1929 72.8692 60.1454 72.8692C60.0952 72.8566 60.0386 72.8504 59.9821 72.8441C59.9255 72.8378 59.869 72.8315 59.8187 72.8189C59.3915 72.7435 59.3161 72.6682 59.2659 72.2409C59.2659 72.153 59.2596 72.065 59.2533 71.9771C59.247 71.8891 59.2407 71.8012 59.2407 71.7132V65.1793Z" fill="#282828"/>
<path d="M94.3728 71.487V73.2964H87.1604V72.9194L87.9897 72.7686C88.1907 72.7184 88.3164 72.5927 88.3415 72.3917C88.3667 72.1907 88.3918 71.9645 88.3918 71.7634V64.6767C88.3667 63.8725 88.2913 63.772 87.4871 63.6966C87.3226 63.6849 87.235 63.6786 87.1935 63.6316C87.1463 63.5781 87.1588 63.4718 87.1855 63.2443H94.0461V64.9783H93.2922L93.2168 64.149C93.1917 63.9228 93.1163 63.7971 92.865 63.7971H89.8745V67.7426H92.287C92.3875 67.7426 92.5132 67.5918 92.5383 67.4913C92.5723 67.3892 92.5833 67.2756 92.5947 67.1583L92.5994 67.11C92.6034 67.0698 92.6079 67.0292 92.6137 66.9887H93.1414V69.175H92.6388C92.6388 69.175 92.6137 69.1499 92.6137 69.1248L92.6124 69.1151C92.5131 68.3706 92.5098 68.3457 91.7341 68.3457H89.8493V68.8232C89.8493 69.8535 89.8493 70.8839 89.8745 71.9142C89.8996 72.5173 90.0504 72.6681 90.6786 72.6681C91.1625 72.6848 91.6464 72.6793 92.1376 72.6738C92.3861 72.671 92.6369 72.6681 92.8901 72.6681C93.4681 72.6681 93.5184 72.6179 93.6189 72.0147C93.6427 71.7288 93.6553 71.5784 93.7369 71.5073C93.8273 71.4286 94.0028 71.4474 94.3728 71.487Z" fill="#282828"/>
<path fill-rule="evenodd" clip-rule="evenodd" d="M101.636 66.6369C101.133 65.4557 100.656 64.2998 100.178 63.1438C99.9216 63.1181 99.7961 63.1055 99.7145 63.1595C99.6363 63.2113 99.5986 63.3243 99.5248 63.5456C99.0376 64.7068 98.546 65.8681 98.0537 67.0309L98.0532 67.0322L98.052 67.0351L98.0514 67.0365L98.0491 67.0418L98.0464 67.0484C97.348 68.6983 96.6476 70.3526 95.9563 72.0148C95.7301 72.5676 95.4537 72.9446 94.8003 72.8943C94.8003 72.8943 94.8003 72.9194 94.7751 72.9194V73.2964H97.3636V72.8943C97.2666 72.8822 97.1755 72.8759 97.0874 72.8699C96.9929 72.8633 96.9018 72.8571 96.8107 72.8441C96.3835 72.7687 96.3081 72.6681 96.4589 72.2661C96.6851 71.6127 96.9615 70.9844 97.2379 70.3561C97.2631 70.2808 97.4138 70.2054 97.5144 70.2054H101.384C101.535 70.2054 101.636 70.2556 101.686 70.4064C101.731 70.5308 101.787 70.6552 101.843 70.7818C101.912 70.9367 101.983 71.095 102.038 71.2608C102.163 71.6376 102.289 72.015 102.415 72.4168C102.465 72.643 102.365 72.7687 102.138 72.7938C101.862 72.844 101.611 72.8692 101.36 72.8943L101.359 73.2713H105.079V72.8692C104.35 72.9697 104.098 72.4671 103.847 71.9394V71.9142C103.483 71.0363 103.114 70.1584 102.744 69.2805L102.742 69.2759C102.371 68.3962 102 67.5166 101.636 66.6369ZM97.5144 69.6274C98.1426 68.1447 98.7709 66.662 99.4243 65.1039C99.7012 65.7537 99.9691 66.3945 100.236 67.0319L100.236 67.0331L100.238 67.0367C100.599 67.9015 100.958 68.7603 101.334 69.6274H97.5144Z" fill="#282828"/>
<path fill-rule="evenodd" clip-rule="evenodd" d="M38.6588 72.8693V73.2965H34.9396V72.9195L35.6935 72.8441C35.9196 72.819 36.0453 72.6682 35.9699 72.4421C35.7187 71.7386 35.4423 71.0351 35.166 70.3317C35.1408 70.2814 35.0149 70.2306 34.9396 70.2306H30.9941C30.9187 70.2306 30.7931 70.306 30.7679 70.3562C30.7043 70.5067 30.6406 70.6559 30.5772 70.8043C30.3655 71.3003 30.1572 71.7884 29.9638 72.2913C29.813 72.6682 29.8884 72.7688 30.2905 72.8441C30.3815 72.8571 30.4725 72.8634 30.5671 72.8699C30.6551 72.876 30.7464 72.8823 30.8433 72.8944V73.2965H28.28V72.9195L28.3052 72.8944C28.9083 72.9447 29.2099 72.618 29.436 72.0902C30.0391 70.6453 30.6485 69.2003 31.2579 67.7554L31.2585 67.7541C31.8677 66.3095 32.477 64.8649 33.0799 63.4203L33.0831 63.4129C33.1568 63.2409 33.2091 63.1187 33.4569 63.1187C33.7047 63.1187 33.757 63.2409 33.8307 63.4129L33.8338 63.4203C34.2915 64.5125 34.7449 65.6048 35.1976 66.6952L35.2026 66.7073C35.8418 68.2472 36.4795 69.7835 37.1259 71.3112L37.5029 72.1405C37.729 72.6431 38.0557 72.9447 38.6588 72.8693ZM31.0946 69.6275H34.9144C34.705 69.1249 34.4956 68.625 34.2862 68.1252C33.8673 67.1256 33.4485 66.126 33.0297 65.104C32.3511 66.6621 31.7229 68.1196 31.0946 69.6275Z" fill="#282828"/>
<path d="M44.2882 65.2296H45.0421C45.0421 64.6517 45.0421 64.1238 45.0169 63.5961C45.0169 63.5208 44.9164 63.4202 44.8662 63.3951C43.8358 63.1187 42.8055 62.8674 41.7249 63.0935C40.7197 63.2946 39.9909 63.8977 39.6642 64.9029C39.3626 65.9081 39.6391 66.7877 40.393 67.4662C40.7322 67.7678 41.1139 68.0269 41.4955 68.286C41.6227 68.3724 41.75 68.4588 41.8757 68.5468C42.1307 68.7168 42.3937 68.8709 42.6602 69.027C42.8664 69.1477 43.0747 69.2697 43.283 69.4013C44.2379 70.0044 44.3133 71.0347 44.062 71.8892C43.861 72.5174 43.4086 72.8692 42.7803 72.9949C42.0516 73.1457 41.3731 72.9949 40.7448 72.6431C40.393 72.442 40.2171 72.1656 40.2171 71.7635C40.2171 71.663 40.2108 71.5687 40.2045 71.4745C40.1982 71.3803 40.1919 71.286 40.1919 71.1855H39.4883V73.0954C39.5888 73.1457 39.6893 73.1959 39.7898 73.2211C40.6443 73.4975 41.4987 73.5729 42.3783 73.5729C43.2327 73.5729 44.0117 73.2964 44.6903 72.7185C45.8211 71.7384 45.9719 69.6777 44.6903 68.6976C44.2128 68.3206 43.685 67.9688 43.1573 67.6421C42.9186 67.4913 42.6798 67.3468 42.4411 67.2023C42.2023 67.0578 41.9636 66.9133 41.7249 66.7626C41.1971 66.4107 40.9458 65.9081 40.9207 65.2799C40.8704 64.4254 41.3982 63.6213 42.2024 63.5208C42.6296 63.4705 43.0568 63.4956 43.484 63.5961C44.0117 63.6967 44.2128 64.0234 44.2379 64.5762C44.2379 64.7816 44.2586 64.9663 44.2813 65.1679L44.2882 65.2296Z" fill="#282828"/>
<path d="M120.885 63.4454V65.2045H120.131C120.119 65.0914 120.113 64.9783 120.106 64.8652C120.1 64.7521 120.094 64.639 120.081 64.526C120.031 63.9731 119.83 63.6715 119.302 63.571C118.9 63.4956 118.473 63.4705 118.071 63.4956C117.694 63.5207 117.367 63.7469 117.141 64.0485C116.538 64.8275 116.663 66.0589 117.493 66.6872C117.822 66.9472 118.188 67.1595 118.556 67.3734C118.721 67.4694 118.887 67.566 119.051 67.6672C119.528 67.9688 119.981 68.2704 120.458 68.5971C121.865 69.5771 121.74 71.7886 120.458 72.7938C119.83 73.2964 119.101 73.5477 118.322 73.5477C117.392 73.5729 116.488 73.4723 115.583 73.1708C115.407 73.1205 115.357 73.0451 115.357 72.8441V71.1604H116.111V71.7886C116.111 72.0902 116.236 72.3666 116.488 72.5425C117.216 73.02 118.021 73.1708 118.875 72.9195C119.327 72.7938 119.654 72.4923 119.855 72.0902C120.307 71.1604 120.056 70.0295 119.202 69.4264C118.95 69.2411 118.678 69.0837 118.403 68.9249C118.156 68.782 117.907 68.638 117.669 68.4714C117.166 68.1447 116.663 67.7929 116.236 67.3908C115.507 66.7123 115.256 65.8327 115.558 64.8778C115.859 63.8977 116.588 63.3197 117.568 63.0684C118.347 62.8925 120.106 63.0935 120.885 63.4454Z" fill="#282828"/>
<path d="M87.1604 84.8563H112.969V84.404H87.1604V84.8563Z" fill="#282828"/>
<path fill-rule="evenodd" clip-rule="evenodd" d="M142.121 84.8313H140.839V84.203C140.768 84.2921 140.709 84.3433 140.663 84.3835C140.644 84.3999 140.627 84.4146 140.613 84.4292C139.834 85.2585 138.577 85.0072 138.225 83.9266C137.999 83.2481 138.024 82.5696 138.326 81.891C138.753 80.9612 139.783 80.6848 140.613 81.2879C140.641 81.302 140.669 81.324 140.702 81.3495C140.727 81.3693 140.756 81.3917 140.789 81.4136V79.9057C140.789 79.728 140.663 79.7011 140.536 79.6739C140.484 79.6627 140.431 79.6514 140.387 79.6293C140.336 79.6126 140.286 79.5735 140.236 79.5344L140.217 79.5198L140.195 79.5029C140.183 79.4944 140.172 79.4862 140.16 79.4785C140.166 79.4725 140.171 79.4665 140.175 79.4605L140.178 79.4546L140.181 79.4502L140.186 79.4408L140.189 79.4346C140.191 79.4295 140.194 79.4243 140.198 79.4192C140.201 79.4138 140.205 79.4085 140.211 79.4031H141.517V84.002C141.517 84.2505 141.517 84.3762 141.578 84.4549C141.64 84.5353 141.766 84.5667 142.02 84.6302C142.077 84.6493 142.12 84.6972 142.159 84.7411C142.172 84.7552 142.184 84.7688 142.196 84.781C142.171 84.781 142.146 84.8062 142.121 84.8313ZM140.839 82.2429C140.839 81.69 140.814 81.6649 140.286 81.4638C140.27 81.4586 140.256 81.4533 140.242 81.4483C140.189 81.4293 140.145 81.4136 140.085 81.4136C139.507 81.2628 139.105 81.489 138.954 82.0418C138.778 82.6449 138.803 83.2481 138.979 83.8512C139.13 84.3538 139.482 84.5548 139.959 84.4795C140.487 84.3789 140.839 84.0271 140.839 83.5496V82.2429Z" fill="#282828"/>
<path fill-rule="evenodd" clip-rule="evenodd" d="M58.0847 79.3781H56.8031C56.7779 79.4283 56.7528 79.4534 56.7025 79.4786C56.7276 79.4953 56.7527 79.5148 56.7777 79.5343C56.828 79.5734 56.8784 79.6126 56.9287 79.6294C56.9752 79.6526 57.0313 79.6639 57.0866 79.6751C57.2106 79.7 57.3308 79.7243 57.3308 79.8807V81.4136C57.3245 81.4105 57.3182 81.4069 57.3119 81.4031C57.3037 81.3981 57.2955 81.3926 57.2874 81.3868C57.2767 81.3793 57.266 81.3713 57.2554 81.3633C57.2303 81.3445 57.2051 81.3257 57.18 81.3131C56.3256 80.6848 55.2952 80.9613 54.868 81.9413C54.5916 82.5696 54.5916 83.2481 54.7926 83.9015C55.1193 84.9821 56.401 85.2585 57.18 84.4041C57.2051 84.3664 57.2303 84.335 57.2554 84.3036C57.2805 84.2722 57.3057 84.2408 57.3308 84.2031C57.3434 84.2156 57.3559 84.2219 57.3685 84.2282C57.381 84.2345 57.3936 84.2408 57.4062 84.2533V84.8062H58.713C58.7255 84.7936 58.7318 84.7811 58.7381 84.7685C58.7444 84.7559 58.7506 84.7434 58.7632 84.7308C58.7333 84.7109 58.7073 84.687 58.6822 84.6638C58.644 84.6286 58.6077 84.5952 58.5622 84.58C58.0847 84.4795 58.0847 84.4795 58.0847 83.9769V79.3781ZM57.4062 82.2429V82.8209C57.4062 83.0722 57.4062 83.3235 57.381 83.5748C57.381 84.002 57.0292 84.3539 56.5266 84.4544C56.0994 84.5549 55.7224 84.379 55.5717 83.9518C55.3455 83.2732 55.3204 82.5947 55.5465 81.9413C55.6973 81.489 56.0743 81.288 56.5266 81.3633C56.6523 81.3633 56.7528 81.3885 56.8533 81.4387C57.381 81.6398 57.4062 81.69 57.4062 82.2429Z" fill="#282828"/>
<path fill-rule="evenodd" clip-rule="evenodd" d="M123.926 84.6804C123.423 84.2783 123.474 84.1024 124.202 83.5495C123.8 83.3234 123.549 82.9967 123.499 82.5192C123.398 81.514 124.027 80.936 125.157 80.9862C125.51 81.003 125.873 80.9974 126.233 80.9918H126.234C126.413 80.989 126.591 80.9862 126.766 80.9862H126.967C126.942 81.0742 126.916 81.1496 126.891 81.225C126.866 81.3004 126.841 81.3758 126.816 81.4637C126.668 81.4368 126.52 81.4172 126.369 81.3969C126.237 81.3794 126.102 81.3614 125.962 81.3381C126.263 81.6899 126.389 82.0668 126.338 82.4941C126.263 83.2982 125.509 83.8008 124.68 83.6501C124.429 83.5998 124.278 83.7254 124.253 83.9516C124.228 84.2029 124.403 84.2532 124.605 84.2532C124.764 84.2616 124.923 84.2671 125.082 84.2727C125.4 84.2839 125.719 84.2951 126.037 84.3286C126.364 84.3537 126.665 84.4542 126.741 84.8312C126.841 85.2081 126.766 85.5851 126.439 85.8364C126.288 85.962 126.112 86.0626 125.911 86.138C125.208 86.3641 124.479 86.339 123.775 86.0877C123.499 85.9872 123.273 85.8364 123.222 85.5097C123.197 85.183 123.398 84.982 123.65 84.8061C123.724 84.7874 123.785 84.755 123.852 84.7189C123.876 84.7064 123.9 84.6934 123.926 84.6804ZM125.66 82.3684C125.639 82.2635 125.622 82.163 125.607 82.0668C125.584 81.9326 125.564 81.807 125.534 81.6899C125.434 81.4135 125.233 81.2627 124.956 81.2627C124.655 81.2627 124.429 81.3883 124.328 81.6648C124.152 82.1422 124.152 82.6197 124.353 83.0972C124.454 83.3485 124.68 83.4741 124.956 83.4741C125.233 83.4741 125.434 83.3485 125.509 83.0972C125.557 82.9388 125.584 82.7805 125.611 82.6284C125.626 82.5393 125.641 82.452 125.66 82.3684ZM124.732 84.7252C124.612 84.7196 124.488 84.7138 124.353 84.7307C124.278 84.7307 124.177 84.7558 124.127 84.8061C123.851 85.0574 123.851 85.5851 124.127 85.8364C124.504 86.1631 125.509 86.1128 125.861 85.761C126.037 85.5851 126.112 85.3589 126.037 85.1076C125.962 84.8563 125.735 84.8061 125.509 84.7809C125.333 84.7307 125.107 84.7307 124.906 84.7307C124.87 84.7307 124.834 84.7296 124.798 84.7282L124.732 84.7252Z" fill="#282828"/>
<path d="M114.705 84.6857C114.681 84.7108 114.657 84.7369 114.628 84.7558C114.634 84.7616 114.639 84.7675 114.642 84.7724C114.655 84.7885 114.659 84.7944 114.678 84.7558H118.373V83.826H117.996C117.996 83.8923 117.989 83.9586 117.982 84.0213C117.976 84.0773 117.971 84.1303 117.971 84.1778C117.971 84.3537 117.87 84.4542 117.694 84.4542C117.267 84.4794 116.84 84.4794 116.412 84.4542C116.287 84.4542 116.111 84.3035 116.111 84.2029C116.073 83.7329 116.078 83.2628 116.083 82.7823C116.084 82.6205 116.086 82.4576 116.086 82.293C116.202 82.293 116.321 82.2903 116.441 82.2875H116.442C116.685 82.2819 116.931 82.2762 117.166 82.293C117.267 82.3182 117.393 82.4187 117.418 82.5192C117.468 82.7202 117.543 82.7202 117.719 82.67V81.5894C117.518 81.514 117.443 81.5894 117.418 81.7653C117.393 81.8407 117.317 81.9663 117.242 81.9663H116.061V80.0313C116.077 80.0313 116.091 80.0286 116.103 80.025L116.111 80.0223C116.117 80.0201 116.123 80.0177 116.128 80.0155C116.133 80.0136 116.137 80.0117 116.141 80.0102C116.148 80.0078 116.155 80.0062 116.161 80.0062H117.116C117.719 80.0313 117.719 80.0313 117.795 80.6093L117.845 80.6596H118.172V79.7297H114.678C114.653 79.78 114.653 79.8051 114.628 79.8303C114.653 79.847 114.678 79.8665 114.703 79.886C114.754 79.925 114.804 79.9643 114.854 79.981L114.871 79.9849C115.282 80.0816 115.307 80.0874 115.307 80.5339V84.027C115.307 84.499 115.282 84.5044 114.845 84.6016L114.829 84.605C114.782 84.605 114.745 84.6441 114.705 84.6857Z" fill="#282828"/>
<path d="M49.9678 84.605H50.1437C50.4955 84.605 50.6212 84.4039 50.596 84.0773V81.7904C50.596 81.4888 50.4704 81.3129 50.1688 81.3129H49.9678V81.0867H51.2745V81.715L51.3499 81.6145C51.3499 81.6145 51.4002 81.5391 51.4756 81.4637C51.8274 81.0867 52.33 80.9611 52.8326 81.0114C53.3352 81.0616 53.6871 81.4888 53.6871 82.092V84.1526C53.6871 84.4542 53.7876 84.6301 54.1143 84.6301H54.3153V84.8563H52.4054V84.6301H52.5311C52.8829 84.6301 52.9834 84.4291 52.9834 84.1024C52.9708 83.7506 52.9708 83.3987 52.9708 83.0469C52.9708 82.6951 52.9708 82.3433 52.9583 81.9914C52.9331 81.5391 52.6567 81.3381 52.2295 81.4637C51.8274 81.5893 51.5007 81.8658 51.2997 82.092V84.0521C51.2997 84.4793 51.3248 84.5045 51.752 84.5547H51.9279L51.9028 84.7809H49.9678V84.605Z" fill="#282828"/>
<path d="M121.111 84.8313H123.021C123.046 84.8061 123.072 84.781 123.122 84.7559C123.101 84.7421 123.079 84.7244 123.055 84.7062C122.993 84.6579 122.925 84.6051 122.871 84.6051C122.544 84.6051 122.443 84.4292 122.443 84.1527V82.0669C122.418 81.3633 122.016 80.9863 121.338 80.9863C120.91 80.9863 120.559 81.1371 120.282 81.4387C120.227 81.4933 120.186 81.5612 120.148 81.6232C120.134 81.6466 120.12 81.6693 120.106 81.69C120.094 81.6774 120.075 81.6648 120.056 81.6523C120.047 81.6461 120.037 81.6399 120.029 81.6337C120.024 81.6301 120.019 81.6265 120.015 81.6229C120.012 81.6202 120.009 81.6174 120.006 81.6146V81.0617H118.699C118.692 81.0687 118.687 81.0757 118.683 81.0827C118.679 81.0882 118.677 81.0938 118.674 81.0993C118.67 81.1061 118.667 81.1131 118.663 81.1199C118.661 81.1229 118.659 81.1258 118.656 81.1288C118.654 81.1316 118.651 81.1343 118.649 81.1371C118.662 81.1458 118.675 81.1561 118.688 81.167C118.7 81.1771 118.712 81.1878 118.724 81.1985C118.774 81.2432 118.825 81.2879 118.875 81.2879C119.227 81.313 119.327 81.4889 119.327 81.8156C119.327 82.0576 119.33 82.3024 119.333 82.5481V82.5491C119.338 83.0428 119.344 83.5409 119.327 84.0271C119.315 84.2523 119.308 84.3654 119.249 84.4315C119.19 84.4981 119.077 84.517 118.85 84.5548C118.649 84.58 118.649 84.6554 118.699 84.8061H120.634C120.647 84.7936 120.653 84.781 120.659 84.7684L120.663 84.7602L120.665 84.7562L120.668 84.7517C120.672 84.7447 120.677 84.7377 120.684 84.7307L120.677 84.7259L120.672 84.7222C120.665 84.717 120.658 84.7115 120.651 84.7059L120.637 84.6942L120.632 84.6897C120.622 84.6812 120.613 84.6726 120.604 84.664C120.565 84.6289 120.529 84.5951 120.483 84.58L120.466 84.5761C120.03 84.4794 120.006 84.4739 120.006 84.0522V82.1674C120.006 82.0921 120.056 81.9915 120.106 81.9413C120.172 81.8994 120.237 81.856 120.301 81.8129C120.505 81.6753 120.706 81.5404 120.936 81.4638C121.388 81.313 121.664 81.5141 121.689 81.9915C121.702 82.3433 121.702 82.7014 121.702 83.0595C121.702 83.4174 121.702 83.776 121.715 84.1276C121.715 84.4543 121.614 84.58 121.287 84.6051C121.237 84.6051 121.187 84.6498 121.137 84.6945C121.111 84.7168 121.086 84.7391 121.061 84.7559C121.086 84.781 121.086 84.8061 121.111 84.8313Z" fill="#282828"/>
<path d="M133.375 81.0617H134.657V81.6396C134.707 81.6648 134.732 81.6899 134.782 81.7401C134.805 81.7061 134.823 81.6621 134.84 81.6193C134.86 81.5669 134.881 81.5165 134.908 81.4889C135.26 81.1119 135.712 80.9611 136.215 81.0114C136.718 81.0617 137.069 81.4889 137.069 82.092V83.8009C137.069 83.8608 137.075 83.9208 137.081 83.9835C137.088 84.0522 137.094 84.1241 137.094 84.2029C137.094 84.4794 137.22 84.605 137.497 84.605C137.622 84.605 137.798 84.605 137.723 84.8563H135.788C135.786 84.8541 135.784 84.852 135.782 84.8498L135.777 84.8437C135.771 84.8354 135.767 84.827 135.763 84.8186L135.757 84.8079L135.753 84.8015L135.749 84.795C135.747 84.7923 135.745 84.7897 135.743 84.787C135.741 84.785 135.739 84.783 135.737 84.7809C135.766 84.762 135.791 84.736 135.815 84.7108C135.854 84.6692 135.891 84.6302 135.938 84.6302C136.29 84.6302 136.391 84.4542 136.391 84.1275C136.378 83.7757 136.378 83.4239 136.378 83.0721C136.378 82.7202 136.378 82.3684 136.366 82.0166C136.341 81.5391 136.039 81.3381 135.612 81.4889C135.382 81.5654 135.182 81.7003 134.977 81.838L134.9 81.8896C134.861 81.9155 134.822 81.9412 134.782 81.9663C134.732 82.0166 134.682 82.1171 134.682 82.1925V84.0522C134.682 84.499 134.706 84.5044 135.143 84.6014L135.159 84.605C135.215 84.6236 135.257 84.6696 135.306 84.7227C135.323 84.7415 135.341 84.7612 135.36 84.7809C135.335 84.8061 135.335 84.8312 135.31 84.8563H133.375C133.325 84.7055 133.325 84.605 133.526 84.605C133.878 84.605 134.003 84.404 134.003 84.1024V81.8407C134.003 81.514 133.878 81.3381 133.526 81.313C133.476 81.313 133.425 81.2683 133.375 81.2236C133.35 81.2013 133.325 81.1789 133.3 81.1622C133.325 81.137 133.35 81.1119 133.375 81.0617Z" fill="#282828"/>
<path fill-rule="evenodd" clip-rule="evenodd" d="M47.2786 81.0115C46.3739 81.2125 45.8965 81.8659 45.8713 82.9717C45.8965 83.0722 45.8965 83.223 45.8965 83.3989C45.997 84.1025 46.4493 84.6805 47.1027 84.8564C47.8818 85.0575 48.6608 84.8313 49.088 84.2784C49.465 83.801 49.5152 83.223 49.465 82.645C49.3645 81.4638 48.4346 80.7853 47.2786 81.0115ZM48.4346 81.69C48.6608 82.0167 48.7613 82.469 48.7613 82.9717C48.7362 83.625 48.6608 83.8512 48.4598 84.203C48.1079 84.8313 47.354 84.8062 46.9519 84.203C46.5247 83.5497 46.5247 82.3434 46.9771 81.69C47.3792 81.0869 48.0325 81.0869 48.4346 81.69Z" fill="#282828"/>
<path fill-rule="evenodd" clip-rule="evenodd" d="M131.868 82.2328C131.862 82.0994 131.855 81.9734 131.842 81.8408C131.792 81.4387 131.591 81.2377 131.214 81.2377C130.812 81.2125 130.561 81.4136 130.485 81.7905C130.485 81.8408 130.46 81.8911 130.435 81.9413H129.983V81.4136C129.983 81.3633 130.058 81.2628 130.108 81.2377C130.636 81.0366 131.189 80.911 131.767 81.0366C132.294 81.1372 132.571 81.4639 132.571 81.9916V83.7004C132.571 83.7633 132.577 83.8261 132.584 83.8889C132.59 83.9518 132.596 84.0146 132.596 84.0774C132.621 84.379 132.747 84.5549 133.074 84.5297C133.199 84.7559 133.099 84.8313 132.872 84.8816C132.445 84.957 132.269 84.8313 132.018 84.379C132.012 84.3831 132.006 84.3874 131.999 84.3918C131.993 84.3963 131.987 84.4009 131.981 84.4056C131.974 84.4111 131.966 84.4167 131.959 84.4225C131.941 84.4369 131.923 84.4519 131.905 84.4669C131.867 84.4984 131.83 84.5298 131.792 84.5549C131.49 84.7811 131.164 84.9067 130.787 84.9067C130.284 84.8816 129.857 84.58 129.756 84.1528C129.631 83.6502 129.832 83.0973 130.309 82.8963C130.58 82.7802 130.895 82.7237 131.198 82.6695C131.289 82.6533 131.378 82.6372 131.465 82.6198C131.528 82.6041 131.601 82.6081 131.696 82.6132C131.753 82.6163 131.817 82.6198 131.892 82.6198C131.881 82.4776 131.874 82.3521 131.868 82.2328ZM131.867 82.7958C131.723 82.8342 131.586 82.8616 131.456 82.8878C131.244 82.9302 131.048 82.9694 130.862 83.0471C130.535 83.1727 130.385 83.4743 130.41 83.8261C130.435 84.1277 130.611 84.3287 130.887 84.4292C131.214 84.5549 131.515 84.4292 131.792 84.2533C131.817 84.2282 131.842 84.1528 131.842 84.1025C131.867 83.7004 131.867 83.2984 131.867 82.7958Z" fill="#282828"/>
<path d="M29.1597 84.8563H40.5688V84.404H29.1597V84.8563Z" fill="#282828"/>
<path d="M41.7249 84.6051H41.9008C42.328 84.5548 42.3531 84.4794 42.3531 84.0522V80.5591C42.3531 80.1319 42.328 80.1068 41.9008 80.0062C41.8621 79.9934 41.8433 79.9871 41.8239 79.984C41.8055 79.9811 41.7867 79.9811 41.75 79.9811V79.7549H43.7102L43.7353 79.956C43.6986 79.956 43.6797 79.956 43.6613 79.9589C43.642 79.962 43.6232 79.9682 43.5846 79.9811C43.1337 80.0813 43.1322 80.1066 43.1073 80.5298L43.107 80.534V84.0774C43.107 84.4794 43.1573 84.5297 43.5594 84.5297H44.5143C44.9667 84.5297 44.9918 84.5046 45.0421 84.0522C45.0421 84.0172 45.0475 83.9877 45.0533 83.956C45.06 83.9194 45.0672 83.8799 45.0672 83.8261H45.419V84.8061H41.7751L41.7249 84.6051Z" fill="#282828"/>
<path d="M127.294 84.6945C127.269 84.7168 127.243 84.7392 127.218 84.7559C127.218 84.7811 127.243 84.8062 127.319 84.8313H129.229C129.329 84.6052 129.178 84.58 129.028 84.58C128.726 84.58 128.6 84.4041 128.6 84.1277V79.3781H127.269C127.256 79.3906 127.25 79.4032 127.243 79.4157C127.237 79.4283 127.231 79.4409 127.218 79.4534C127.222 79.4572 127.226 79.4612 127.23 79.4655C127.236 79.4718 127.242 79.4787 127.249 79.4858C127.297 79.5377 127.358 79.6042 127.419 79.6042C127.771 79.6294 127.897 79.8053 127.897 80.132V84.0774C127.897 84.4041 127.796 84.6052 127.444 84.6052C127.394 84.6052 127.344 84.6498 127.294 84.6945Z" fill="#282828"/>
<path fill-rule="evenodd" clip-rule="evenodd" d="M59.1904 82.9716C59.2156 81.8659 59.693 81.2125 60.5977 81.0114C61.7537 80.7853 62.6835 81.4638 62.7841 82.6449C62.8343 83.2229 62.7841 83.8009 62.4071 84.2784C61.9799 84.8312 61.2009 85.0574 60.4218 84.8564C59.7684 84.6805 59.3161 84.1025 59.2156 83.3988C59.2156 83.2229 59.2156 83.0721 59.1904 82.9716ZM62.0804 82.9716C62.0804 82.469 61.9799 82.0166 61.7537 81.6899C61.3516 81.0868 60.6982 81.0868 60.2962 81.6899C59.8438 82.3433 59.8438 83.5496 60.271 84.203C60.6731 84.8061 61.427 84.8312 61.7789 84.203C61.9799 83.8512 62.0553 83.625 62.0804 82.9716Z" fill="#282828"/>
<path d="M63.4625 84.605H63.2866V84.7809H65.2217L65.2468 84.5547H65.0709C64.6437 84.5045 64.6185 84.4793 64.6185 84.0521V82.092C64.8196 81.8658 65.1463 81.5893 65.5483 81.4637C65.9756 81.3381 66.252 81.5391 66.2771 81.9914C66.2897 82.3433 66.2897 82.6951 66.2897 83.0469C66.2897 83.3987 66.2897 83.7506 66.3023 84.1024C66.3023 84.4291 66.2017 84.6301 65.8499 84.6301H65.7243V84.8563H67.6342V84.6301H67.4331C67.1064 84.6301 67.0059 84.4542 67.0059 84.1526V82.092C67.0059 81.4888 66.6541 81.0616 66.1515 81.0114C65.6489 80.9611 65.1463 81.0867 64.7944 81.4637C64.719 81.5391 64.6688 81.6145 64.6688 81.6145L64.5934 81.715V81.0867H63.2866V81.3129H63.4877C63.7892 81.3129 63.9149 81.4888 63.9149 81.7904V84.0773C63.94 84.4039 63.8144 84.605 63.4625 84.605Z" fill="#282828"/>
</svg>
