<svg width="150" height="150" viewBox="0 0 150 150" fill="none" xmlns="http://www.w3.org/2000/svg">
<path d="M12.1948 82.3247C13.3636 82.8701 14.6104 83.1039 15.8571 83.1039C17.026 83.1039 18.1948 82.8701 19.2857 82.6364C20.3766 82.2468 21.2338 81.7013 22.013 81C22.7922 80.2987 23.3377 79.5195 23.8052 78.5065C24.1948 77.4935 24.4286 76.4026 24.4286 75.2338C24.4286 74.2208 24.1948 73.2857 23.7273 72.4286C23.2597 71.5714 22.6364 70.8701 21.9351 70.3247C21.5455 69.9351 21.0779 69.6234 20.6104 69.3896L19.9091 69L20.6104 68.6104C21.1558 68.2208 21.7013 67.7532 22.0909 67.2078C22.4805 66.6623 22.7922 66.1169 22.9481 65.4156C23.1039 64.7922 23.1818 64.0909 23.1818 63.3896C23.1818 62.5325 23.026 61.6753 22.7143 60.8961C22.4026 60.1169 21.9351 59.4935 21.3117 58.9481C20.7662 58.3247 20.0649 57.8571 19.2857 57.5455C18.5065 57.1558 17.6494 57 16.7922 57C15.4675 57 14.2208 57.2338 13.1299 57.7792C12.039 58.2468 11.026 59.026 10.2468 59.8831L9.93506 60.2727L10.8701 61.1299L11.1818 60.8182C12.039 59.961 12.974 59.3377 13.8312 58.9481C14.6883 58.5584 15.6234 58.4026 16.7922 58.4026C17.4935 58.4026 18.1948 58.5584 18.8182 58.9481C19.4416 59.1818 19.987 59.5714 20.3766 60.039C20.7662 60.5065 21.1558 61.0519 21.3896 61.6753C21.6234 62.2987 21.7792 62.9221 21.7792 63.5455C21.7792 64.0909 21.7013 64.6364 21.5455 65.2597C21.3896 65.8052 21.0779 66.3506 20.6104 66.8182C20.2208 67.2857 19.5195 67.6753 18.7403 67.987C17.8831 68.2987 16.7922 68.4545 15.4675 68.4545H15V69.7792H15.8571C16.9481 69.7792 17.8831 69.8571 18.8182 70.1688C19.6753 70.4805 20.4545 70.8701 21.0779 71.3377C21.7013 71.8052 22.2468 72.3506 22.5584 73.0519C22.9481 73.6753 23.1039 74.3766 23.1039 75.1558C23.1039 76.013 22.9481 76.8701 22.6364 77.6493C22.3247 78.4286 21.8571 79.1299 21.2338 79.7532C20.6104 80.3766 19.8312 80.8442 18.974 81.2338C18.1169 81.6234 17.1039 81.7792 16.013 81.7792C14.8442 81.7792 13.7532 81.5455 12.8961 81.1558C11.961 80.6883 11.1039 80.0649 10.3247 79.2857L9.93506 78.8961L9 79.8312L9.31169 80.1429C10.0909 81.0779 11.026 81.7792 12.1948 82.3247Z" fill="#282828"/>
<path fill-rule="evenodd" clip-rule="evenodd" d="M27.6233 57V83.1039H34.7142C36.3506 83.1039 37.9869 82.7922 39.3895 82.0909C40.87 81.3896 42.1168 80.4545 43.2077 79.2857C44.2986 78.1169 45.1558 76.7143 45.7791 75.1558C46.4025 73.5974 46.7142 71.8831 46.7142 70.0909C46.7142 68.2987 46.4025 66.5844 45.7791 65.026C45.2337 63.4675 44.3765 62.0649 43.2856 60.8961C42.2726 59.7273 41.0259 58.7143 39.5454 58.013C38.1428 57.3117 36.5843 57 34.948 57H27.6233ZM35.0259 81.7013H29.0259V58.4026H34.948C36.3506 58.4026 37.6752 58.7143 38.922 59.3377C40.1687 59.961 41.2597 60.8182 42.1168 61.8312C43.0519 62.9221 43.8311 64.1688 44.3765 65.5714C44.922 66.974 45.2337 68.4545 45.2337 70.0909C45.2337 71.6493 44.9999 73.2078 44.4545 74.6104C43.909 76.013 43.2077 77.2597 42.2726 78.2727C41.3376 79.3636 40.2467 80.1429 38.9999 80.7662C37.7532 81.3896 36.4285 81.7013 35.0259 81.7013Z" fill="#282828"/>
<path d="M69.3115 57V83.1039H83.1816V81.7013H70.792V57H69.3115Z" fill="#282828"/>
<path d="M140.377 84.2727H141V92.9221H140.377V84.2727Z" fill="#282828"/>
<path fill-rule="evenodd" clip-rule="evenodd" d="M133.903 92.3076C133.909 92.3245 133.909 92.3436 133.909 92.3767C133.909 92.3767 133.909 92.4546 133.831 92.7663L133.987 93.078H133.364L133.286 93.0001C133.286 93.0001 133.286 92.9221 133.208 92.7663L133.13 92.5325L132.974 92.6884C132.935 92.7273 132.896 92.7468 132.857 92.7663C132.818 92.7858 132.779 92.8053 132.74 92.8442C132.429 93.078 131.883 93.1559 131.416 93.1559C131.104 93.1559 130.87 93.1559 130.636 93.078C130.403 93.0001 130.169 92.9221 129.935 92.7663C129.775 92.6598 129.652 92.5169 129.54 92.3874C129.488 92.3273 129.439 92.2702 129.39 92.2208C129.234 91.9871 129.156 91.7533 129.156 91.5195C129.156 91.2858 129.234 91.052 129.312 90.8962C129.39 90.7403 129.545 90.5845 129.701 90.4286C129.857 90.2728 130.013 90.117 130.247 90.039C130.354 89.9314 130.499 89.8981 130.655 89.8622C130.725 89.846 130.798 89.8294 130.87 89.8053C131.182 89.8053 131.883 89.6494 131.883 89.6494C131.961 89.5715 132.039 89.5715 132.117 89.5715C132.195 89.5325 132.253 89.5131 132.312 89.4936C132.37 89.4741 132.429 89.4546 132.506 89.4156C132.662 89.3377 132.74 89.2598 132.818 89.1819C132.857 89.1429 132.877 89.104 132.896 89.065C132.916 89.026 132.935 88.9871 132.974 88.9481C133.052 88.8702 133.052 88.7923 133.052 88.7144C133.052 88.5585 132.974 88.4027 132.896 88.2468C132.818 88.091 132.74 87.9351 132.584 87.8572C132.506 87.7793 132.351 87.7014 132.117 87.6234C131.961 87.5455 131.727 87.5455 131.571 87.5455C131.338 87.5455 131.104 87.5455 130.948 87.6234C130.792 87.7014 130.636 87.7793 130.48 87.9351C130.325 88.0131 130.247 88.1689 130.169 88.3247C130.091 88.4806 130.091 88.6364 130.091 88.7923V89.026H129.468V88.7923C129.468 88.5585 129.545 88.3247 129.623 88.091C129.779 87.8573 129.935 87.6234 130.091 87.4676C130.325 87.3118 130.558 87.1559 130.792 87.078C131.026 87.0001 131.338 86.9221 131.649 86.9221C131.883 86.9221 132.117 86.9221 132.351 87.0001C132.662 87.078 132.896 87.1559 133.052 87.3118C133.208 87.4676 133.364 87.6234 133.519 87.8572C133.519 87.8572 133.597 87.9351 133.597 88.0131C133.675 88.1689 133.753 88.4027 133.753 88.5585L133.831 91.9871V92.2208C133.876 92.2657 133.895 92.2847 133.903 92.3076ZM132.818 91.9091C132.974 91.7533 133.052 91.6754 133.13 91.5195C133.178 91.4714 133.196 91.3935 133.222 91.2858C133.238 91.2192 133.256 91.1413 133.286 91.052V89.4936L133.052 89.6494C132.888 89.7588 132.762 89.7914 132.621 89.828C132.561 89.8436 132.498 89.8599 132.429 89.8832L131.182 90.117C130.792 90.1949 130.48 90.3507 130.247 90.5845C130.013 90.7403 129.935 90.9741 129.935 91.2079C129.935 91.322 129.977 91.3943 130.03 91.486C130.049 91.5196 130.07 91.5557 130.091 91.5975C130.114 91.6211 130.138 91.6518 130.164 91.6853C130.223 91.7626 130.294 91.8548 130.403 91.9092C130.558 91.9871 130.714 92.065 130.948 92.1429C131.182 92.2208 131.338 92.2208 131.571 92.2208C131.805 92.2208 132.039 92.2208 132.273 92.1429C132.506 92.065 132.662 91.987 132.818 91.9091Z" fill="#282828"/>
<path d="M122.454 87.4676C122.221 87.2338 121.987 87.078 121.675 86.9221C121.364 86.7663 121.052 86.7663 120.662 86.7663C120.117 86.7663 119.649 86.9221 119.182 87.2338C119.104 87.3117 119.026 87.3896 118.948 87.3896L118.714 87.4676L118.558 87L118.48 86.8442H117.857L118.013 87.1559C118.013 87.2338 118.013 87.2338 118.091 87.3117L118.169 87.5455V92.8442H118.792V89.026C118.792 88.7922 118.87 88.5585 118.948 88.3247C119.026 88.0909 119.182 87.9351 119.338 87.7793C119.493 87.6234 119.727 87.4676 119.961 87.3896C120.195 87.3117 120.428 87.2338 120.74 87.2338C120.974 87.2338 121.286 87.3117 121.441 87.3896C121.675 87.4676 121.909 87.6234 122.065 87.7793C122.221 87.9351 122.376 88.0909 122.454 88.3247C122.532 88.5585 122.61 88.7922 122.61 89.026V92.8442H123.234V89.1039C123.234 88.7922 123.156 88.4806 123 88.1689C122.844 87.9351 122.61 87.6234 122.454 87.4676Z" fill="#282828"/>
<path fill-rule="evenodd" clip-rule="evenodd" d="M110.143 87C110.455 87.1559 110.766 87.3117 111 87.6234C111.234 87.9351 111.467 88.2468 111.623 88.6364C111.779 88.9481 111.857 89.4156 111.857 89.8052C111.857 90.1948 111.779 90.5844 111.623 90.9741C111.467 91.3637 111.234 91.6754 111 91.987C110.766 92.2987 110.455 92.5325 110.143 92.6883C109.831 92.8442 109.442 92.9221 109.052 92.9221C108.662 92.9221 108.273 92.8442 107.961 92.6883C107.649 92.5325 107.338 92.2987 107.104 91.987C106.792 91.6754 106.636 91.3637 106.48 90.9741C106.325 90.6624 106.247 90.1948 106.247 89.8052C106.247 89.4156 106.325 89.026 106.48 88.6364C106.636 88.2468 106.87 87.9351 107.104 87.6234C107.338 87.3896 107.649 87.1559 107.961 87C108.273 86.8442 108.662 86.7663 109.052 86.7663C109.442 86.7663 109.831 86.8442 110.143 87ZM110.532 91.5195C110.688 91.2857 110.844 91.052 111 90.7403C111.156 90.5065 111.234 90.1169 111.156 89.8052C111.156 89.4936 111.078 89.182 111 88.8703C110.922 88.5587 110.766 88.3247 110.532 88.0909C110.299 87.8572 110.065 87.7013 109.831 87.5455C109.597 87.4676 109.286 87.3896 108.974 87.3896C108.662 87.3896 108.351 87.3896 108.117 87.5455C108.066 87.5792 108.012 87.613 107.956 87.6475C107.756 87.7724 107.538 87.9079 107.416 88.0909C107.26 88.3247 107.104 88.5585 106.948 88.8702C106.87 89.1039 106.792 89.4935 106.792 89.8052C106.792 90.1169 106.87 90.4286 106.948 90.7402C107.026 91.0519 107.182 91.2857 107.416 91.5195C107.649 91.7533 107.883 91.9091 108.117 92.065C108.351 92.2208 108.662 92.2987 108.974 92.2987C109.286 92.2987 109.597 92.2208 109.831 92.065C110.065 91.9091 110.299 91.7533 110.532 91.5195Z" fill="#282828"/>
<path d="M100.091 86.7663H99.4673V92.9221H100.091V86.7663Z" fill="#282828"/>
<path d="M99.4673 84.8961H100.091V86.065H99.4673V84.8961Z" fill="#282828"/>
<path d="M92.7661 90.1169C92.652 90.0028 92.5379 89.9305 92.3932 89.8388L92.3269 89.7966C92.2932 89.775 92.2579 89.7522 92.2206 89.7273L91.5193 89.4935C91.428 89.4935 91.3367 89.4668 91.2611 89.4446C91.2076 89.429 91.162 89.4156 91.1297 89.4156C91.1297 89.4156 90.6622 89.3377 90.5842 89.3377H90.4284C90.2726 89.3377 90.1167 89.2598 89.9609 89.1818C89.9013 89.1521 89.8532 89.1337 89.812 89.118C89.7455 89.0925 89.6973 89.0742 89.6492 89.026C89.5713 88.9481 89.4933 88.8701 89.4933 88.7922C89.4933 88.7599 89.48 88.7277 89.4643 88.6899C89.4421 88.6364 89.4154 88.5718 89.4154 88.4805C89.4154 88.3247 89.4154 88.1688 89.4933 88.013C89.5713 87.8572 89.6492 87.7792 89.805 87.6234C89.857 87.5974 89.9089 87.5628 89.9609 87.5282C90.0648 87.4589 90.1687 87.3896 90.2726 87.3896C90.5063 87.3117 90.6622 87.3117 90.8959 87.3117C91.1297 87.3117 91.2855 87.3117 91.5193 87.3896C91.5713 87.4156 91.6319 87.4416 91.6925 87.4675C91.8137 87.5195 91.9349 87.5714 91.9868 87.6234C92.1427 87.7013 92.2206 87.8572 92.2985 88.013C92.3764 88.1688 92.3764 88.3247 92.3764 88.4805V88.7143H92.9998V88.4805C92.9998 88.2468 92.9219 88.0131 92.844 87.7793C92.7661 87.5455 92.6102 87.3896 92.3764 87.2338C92.3231 87.1982 92.2739 87.1627 92.2259 87.1281C92.0635 87.0109 91.9158 86.9043 91.6751 86.8442C91.4414 86.7663 91.1297 86.6883 90.8959 86.6883C90.5842 86.6883 90.3505 86.7663 90.1167 86.8442C89.8829 86.9221 89.6492 87.0779 89.4154 87.2338C89.1816 87.3896 89.0258 87.5455 88.9479 87.7792C88.792 88.013 88.792 88.2468 88.792 88.4805C88.792 88.6364 88.792 88.8701 88.87 89.026C88.9479 89.1818 89.0258 89.3377 89.1816 89.4935C89.4154 89.6494 89.7271 89.8052 90.0388 89.8831C90.1529 89.8831 90.267 89.9249 90.4116 89.9778C90.4646 89.9972 90.5216 90.0181 90.5842 90.039L91.2855 90.1948C91.4414 90.1948 91.5972 90.2727 91.7531 90.3507C91.9089 90.4286 92.0648 90.5065 92.1427 90.5844C92.2206 90.6624 92.3764 90.8182 92.3764 90.8961C92.4544 90.974 92.4544 91.1299 92.4544 91.2078C92.4544 91.3637 92.4544 91.4416 92.3764 91.5974C92.3375 91.6753 92.279 91.7338 92.2206 91.7922C92.1622 91.8507 92.1037 91.9091 92.0648 91.987C91.9089 92.065 91.7531 92.1429 91.5193 92.2208C91.2855 92.2987 91.0518 92.2987 90.818 92.2987C90.5842 92.2987 90.3505 92.2987 90.1946 92.2208C89.9609 92.1429 89.805 92.065 89.6492 91.987C89.4933 91.9091 89.4154 91.7533 89.3375 91.5974C89.2596 91.4416 89.2596 91.3637 89.2596 91.2078V90.974H88.6362V91.2078C88.6362 91.4415 88.7141 91.6753 88.792 91.909C88.9479 92.1428 89.1037 92.2987 89.2596 92.4546C89.4933 92.6104 89.6492 92.6883 89.9609 92.7663C90.1946 92.8442 90.5063 92.9221 90.818 92.9221C91.1297 92.9221 91.4414 92.9221 91.6751 92.8442C91.9089 92.7663 92.1427 92.6883 92.3764 92.5325C92.6102 92.3766 92.7661 92.2208 92.844 91.987C92.9998 91.7533 93.0777 91.5195 93.0777 91.2857C93.0777 91.1008 93.029 90.9646 92.97 90.8C92.9544 90.7566 92.9382 90.7112 92.9219 90.6624C93.0777 90.4286 92.9998 90.2727 92.7661 90.1169Z" fill="#282828"/>
<path d="M81.9518 89.8388C82.0964 89.9305 82.2105 90.0028 82.3246 90.1169C82.5584 90.2727 82.6363 90.4286 82.5584 90.6624C82.5746 90.7111 82.5909 90.7565 82.6065 90.8C82.6654 90.9646 82.7142 91.1008 82.7142 91.2857C82.7142 91.5195 82.6363 91.7533 82.4805 91.987C82.4025 92.2208 82.2467 92.3766 82.0129 92.5325C81.7792 92.6883 81.5454 92.7663 81.3116 92.8442C81.0779 92.9221 80.7662 92.9221 80.4545 92.9221C80.1428 92.9221 79.8311 92.8442 79.5973 92.7663C79.2856 92.6883 79.1298 92.6104 78.896 92.4546C78.7402 92.2987 78.5844 92.1429 78.4285 91.9091C78.3506 91.6754 78.2727 91.4415 78.2727 91.2078V90.974H78.896V91.2078C78.896 91.3637 78.896 91.4416 78.974 91.5974C79.0519 91.7532 79.1298 91.9091 79.2856 91.987C79.4415 92.065 79.5973 92.1429 79.8311 92.2208C79.9869 92.2987 80.2207 92.2987 80.4545 92.2987C80.6882 92.2987 80.922 92.2987 81.1558 92.2208C81.3895 92.1429 81.5454 92.065 81.7012 91.987C81.7402 91.9091 81.7986 91.8507 81.8571 91.7922C81.9155 91.7338 81.974 91.6753 82.0129 91.5974C82.0908 91.4416 82.0908 91.3637 82.0908 91.2078C82.0908 91.1299 82.0908 90.974 82.0129 90.8961C82.0129 90.8182 81.8571 90.6624 81.7792 90.5844C81.7012 90.5065 81.5454 90.4286 81.3896 90.3507C81.2338 90.2728 81.0779 90.1948 80.922 90.1948L80.2207 90.039C80.1583 90.0182 80.1014 89.9973 80.0486 89.978C79.9039 89.9251 79.7893 89.8831 79.6753 89.8831C79.3636 89.8052 79.0519 89.6494 78.8181 89.4935C78.6623 89.3377 78.5844 89.1818 78.5064 89.026C78.4285 88.7922 78.4285 88.6364 78.4285 88.4805C78.4285 88.2468 78.4285 88.013 78.5844 87.7792C78.6623 87.5455 78.8181 87.3896 79.0519 87.2338C79.2857 87.0779 79.5194 86.9221 79.7532 86.8442C79.987 86.7663 80.2207 86.6883 80.5324 86.6883C80.7662 86.6883 81.0779 86.7663 81.3116 86.8442C81.5522 86.9043 81.7 87.0109 81.8624 87.1281C81.9104 87.1627 81.9596 87.1982 82.0129 87.2338C82.2467 87.3896 82.4025 87.5455 82.4805 87.7792C82.5584 88.013 82.6363 88.2468 82.6363 88.4805V88.7143H82.0129V88.4805C82.0129 88.3247 82.0129 88.1688 81.935 88.013C81.8571 87.8572 81.7792 87.7013 81.6233 87.6234C81.5714 87.5714 81.4501 87.5195 81.3289 87.4675C81.2683 87.4416 81.2077 87.4156 81.1558 87.3896C80.922 87.3117 80.7662 87.3117 80.5324 87.3117C80.2986 87.3117 80.1428 87.3117 79.909 87.3896C79.8051 87.3896 79.7012 87.4589 79.5973 87.5282C79.5454 87.5628 79.4934 87.5974 79.4415 87.6234C79.2857 87.7792 79.2077 87.8572 79.1298 88.013C79.0519 88.1688 79.0519 88.3247 79.0519 88.4805C79.0519 88.5718 79.0786 88.6364 79.1008 88.6899C79.1164 88.7277 79.1298 88.7599 79.1298 88.7922C79.1298 88.8701 79.2077 88.9481 79.2856 89.026C79.3338 89.0742 79.382 89.0925 79.4485 89.118C79.4897 89.1337 79.5378 89.1521 79.5973 89.1818C79.7532 89.2598 79.909 89.3377 80.0649 89.3377H80.2207L80.6882 89.4156C80.7205 89.4156 80.7662 89.429 80.8196 89.4446C80.8953 89.4668 80.9866 89.4935 81.0779 89.4935L81.7792 89.7273C81.8418 89.769 81.8988 89.8052 81.9518 89.8388Z" fill="#282828"/>
<path fill-rule="evenodd" clip-rule="evenodd" d="M72.4285 89.7273C72.4285 88.7922 72.2727 88.0909 71.883 87.5455C71.4934 87 70.8701 86.6883 70.0129 86.6883C69.6233 86.6883 69.2337 86.7663 68.922 86.9221C68.6103 87.0779 68.2986 87.3117 68.0649 87.6234C67.8311 87.9351 67.6753 88.2468 67.5194 88.5585C67.3636 88.9481 67.3636 89.3377 67.3636 89.7273C67.3636 90.1169 67.4415 90.5844 67.5973 90.8961C67.7532 91.2857 67.909 91.5974 68.2207 91.8312C68.391 92.0582 68.6026 92.2026 68.8255 92.3546C68.9086 92.4113 68.9932 92.469 69.0779 92.5325C69.3895 92.6883 69.7792 92.7663 70.1688 92.7663C70.5584 92.7663 70.948 92.6883 71.3376 92.4546C71.7272 92.2987 72.0389 91.987 72.2727 91.6753L72.4285 91.5195L71.961 91.2857L71.8051 91.4416C71.5714 91.6753 71.3376 91.9091 71.0259 92.065C70.7142 92.2208 70.4025 92.2987 70.0908 92.2987C69.7792 92.2987 69.4675 92.2208 69.2337 92.065C68.9999 91.9091 68.7662 91.7533 68.5324 91.5195C68.2986 91.2857 68.1428 91.052 68.0649 90.7403C68.0486 90.6915 68.0323 90.6461 68.0168 90.6027C67.9578 90.438 67.909 90.3019 67.909 90.1169V89.9611H72.3506L72.4285 89.7273ZM67.9869 89.2598C67.9869 89.1039 68.0649 88.9481 68.1428 88.7922C68.2207 88.4805 68.3766 88.2468 68.6103 88.0909C68.7662 87.8572 68.9999 87.7013 69.2337 87.6234C69.4675 87.5455 69.7792 87.4675 70.0908 87.4675C70.4025 87.4675 70.6363 87.5455 70.8701 87.6234C71.1038 87.7013 71.2597 87.8572 71.4155 88.0909C71.5714 88.3247 71.6493 88.5585 71.7272 88.7922C71.8051 88.9481 71.8051 89.1818 71.8051 89.3377V89.4935H67.9869V89.2598Z" fill="#282828"/>
<path d="M60.8182 84.7402C61.052 84.7402 61.2078 84.7402 61.3636 84.8182C61.4416 84.8961 61.5974 84.974 61.8312 85.0519L62.0649 85.2078L61.7533 85.6753L61.5974 85.5195C61.5195 85.4415 61.3636 85.3636 61.2857 85.3636C61.2078 85.2857 61.052 85.2857 60.8961 85.2857C60.7403 85.2857 60.6623 85.2857 60.5065 85.3636C60.3507 85.4415 60.2727 85.5195 60.1948 85.5974C60.1558 85.6364 60.1169 85.6948 60.0779 85.7532C60.039 85.8117 60 85.8701 59.9611 85.9091C59.8831 86.0649 59.8831 86.1428 59.8831 86.2987V88.1688H60.974V88.7143H59.8831V92.8441H59.2598V86.2208C59.2598 86.0358 59.3085 85.8996 59.3675 85.735C59.383 85.6918 59.3994 85.6459 59.4156 85.5974C59.4935 85.4415 59.6494 85.2857 59.8052 85.1299C59.8052 85.1299 59.8052 85.0519 59.8831 85.0519C59.8831 85.0038 59.9129 84.9854 59.954 84.96C59.9794 84.9442 60.0092 84.9259 60.039 84.8961C60.039 84.8961 60.1169 84.8182 60.1948 84.8182C60.2338 84.8182 60.2727 84.7987 60.3117 84.7792C60.3507 84.7597 60.3896 84.7402 60.4286 84.7402H60.8182Z" fill="#282828"/>
<path fill-rule="evenodd" clip-rule="evenodd" d="M52.091 87.6234C51.8572 87.3117 51.5455 87.1559 51.2338 87C50.9221 86.8442 50.5325 86.7663 50.1429 86.7663C49.7533 86.7663 49.3637 86.8442 49.052 87C48.7403 87.1559 48.4286 87.3896 48.1949 87.6234C47.9611 87.9351 47.7273 88.2468 47.5715 88.6364C47.4156 89.026 47.3377 89.4156 47.3377 89.8052C47.3377 90.1948 47.4156 90.5844 47.5715 90.9741C47.7273 91.3637 47.8832 91.6754 48.1949 91.987C48.3651 92.2141 48.5767 92.3584 48.7996 92.5104L48.8007 92.5112C48.8834 92.5676 48.9677 92.6251 49.052 92.6883C49.3637 92.8442 49.7533 92.9221 50.1429 92.9221C50.5325 92.9221 50.9221 92.8442 51.2338 92.6883C51.5455 92.5325 51.8572 92.2987 52.1689 91.987C52.4026 91.6754 52.6364 91.3637 52.7923 90.9741C52.9481 90.5844 53.026 90.1948 53.026 89.8052C53.026 89.4156 52.9481 89.026 52.7923 88.6364C52.5585 88.2468 52.3247 87.9351 52.091 87.6234ZM52.1689 90.7403C52.013 91.052 51.8572 91.2857 51.7014 91.5195C51.4676 91.7532 51.2338 91.9091 51 92.065C50.7663 92.2208 50.4546 92.2987 50.1429 92.2987C49.8312 92.2987 49.5975 92.2208 49.2858 92.065C49.052 91.9091 48.8182 91.7533 48.5845 91.5195C48.3507 91.2857 48.1949 91.052 48.1169 90.7403C48.039 90.4286 47.9611 90.1169 47.9611 89.8052C47.9611 89.4935 48.039 89.1039 48.1169 88.8702C48.2728 88.5585 48.4286 88.3247 48.5845 88.0909C48.8182 87.8572 49.052 87.7013 49.2858 87.5455C49.5195 87.3896 49.8312 87.3896 50.1429 87.3896C50.4546 87.3896 50.7663 87.4676 51 87.5455C51.2338 87.7013 51.4676 87.8572 51.7013 88.0909C51.9351 88.3247 52.091 88.5585 52.1689 88.8702C52.2468 89.1819 52.3247 89.4935 52.3247 89.8052C52.3247 90.1169 52.2468 90.4286 52.1689 90.7403Z" fill="#282828"/>
<path d="M40.0908 87.3896C40.3245 87.1558 40.5583 87 40.7921 86.9221C41.0258 86.8442 41.2596 86.7662 41.6492 86.6104H41.883V87.2338H41.6492C41.4155 87.2338 41.1817 87.3117 41.0258 87.3896C40.87 87.4675 40.7142 87.5455 40.5583 87.7013C40.4025 87.8571 40.3245 88.013 40.2466 88.1688C40.1687 88.4026 40.1687 88.5584 40.1687 88.7922V92.8442H39.5453V87.9351C39.4674 87.8571 39.4674 87.8571 39.4674 87.7792L39.3116 87.4675H40.0129L40.0908 87.3896Z" fill="#282828"/>
<path fill-rule="evenodd" clip-rule="evenodd" d="M32.6104 87.6234C32.3766 87.3117 32.0649 87.1559 31.7532 87C31.4415 86.8442 31.0519 86.7663 30.6623 86.7663C30.3506 86.7663 30.0389 86.8442 29.7272 86.9221C29.4155 87 29.1818 87.1559 28.948 87.3896C28.8474 87.44 28.7792 87.5228 28.7016 87.6171C28.659 87.6688 28.6136 87.724 28.5584 87.7793L28.4026 88.013L28.3246 87.7793C28.3246 87.7013 28.2467 87.6234 28.2467 87.6234L28.1688 87.3896H27.6233L27.7792 87.8572C27.7792 87.8857 27.7896 87.9142 27.8029 87.9504C27.8258 88.013 27.8571 88.0986 27.8571 88.2468V95.4156H28.4805V91.7533L28.7142 92.065C28.7922 92.1429 28.8701 92.2208 29.0259 92.2987C29.2597 92.4546 29.4935 92.6104 29.8052 92.7663C30.0389 92.8442 30.3506 92.8442 30.6623 92.8442C31.0519 92.8442 31.4415 92.7663 31.7532 92.6104C32.0649 92.4546 32.3766 92.2208 32.6104 91.9091C32.8441 91.5974 33.0779 91.2857 33.2337 90.8961C33.3896 90.5065 33.4675 90.1169 33.4675 89.7273C33.4675 89.3377 33.3896 88.9481 33.2337 88.5585C33.0779 88.2468 32.8441 87.9351 32.6104 87.6234ZM32.6883 90.7403C32.6104 91.052 32.4545 91.2857 32.2207 91.5195C31.987 91.7533 31.7532 91.9091 31.5194 92.065C31.2857 92.2208 30.974 92.2208 30.6623 92.2208C30.4041 92.2208 30.1993 92.1673 29.9595 92.1047C29.9098 92.0917 29.8586 92.0783 29.8052 92.065C29.5714 91.9091 29.3376 91.7533 29.1039 91.5195C28.8701 91.2857 28.7143 91.052 28.6363 90.7403C28.4805 90.4286 28.4805 90.1169 28.4805 89.8052V89.7273C28.4805 89.4156 28.5584 89.1039 28.6363 88.7923C28.7922 88.4806 28.948 88.2468 29.1039 88.013C29.3376 87.7793 29.4935 87.6234 29.8052 87.4676C30.0389 87.3117 30.3506 87.3117 30.6623 87.3117C30.974 87.3117 31.2857 87.3896 31.5194 87.4676C31.7532 87.6234 31.987 87.7793 32.2207 88.013C32.4545 88.2468 32.6104 88.4806 32.6883 88.7922C32.7662 89.1039 32.8441 89.4156 32.8441 89.8052C32.8441 90.1169 32.7662 90.5065 32.6883 90.7403Z" fill="#282828"/>
<path d="M120.117 83.1039L112.247 71.4935L104.377 83.1039H102.74L111.389 70.2468L102.428 57H104.143L112.247 69L120.351 57H121.987L113.104 70.2468L121.753 83.1039H120.117Z" fill="#282828"/>
<path fill-rule="evenodd" clip-rule="evenodd" d="M58.2467 83.1038C57 83.1038 55.8311 82.7922 54.7402 82.3246C53.6493 81.7792 52.7143 81.0779 51.8571 80.2207C51.0779 79.3636 50.3766 78.2727 49.9091 77.1038C49.4415 75.935 49.2078 74.6103 49.2078 73.2857C49.2078 71.961 49.4415 70.6363 49.8311 69.4675C50.2208 68.2987 50.8441 67.2077 51.5454 66.3506C52.2467 65.4935 53.1818 64.7142 54.1948 64.1688C55.2078 63.6233 56.3766 63.3116 57.6233 63.3116C60.1948 63.3116 62.2207 64.1688 63.4675 65.961C64.7143 67.6753 65.3376 70.0129 65.3376 73.0519V73.5194H50.5324V73.987C50.6104 74.8441 50.7662 75.7013 51.0779 76.4805C51.4675 77.4935 52.013 78.4285 52.7143 79.2077C53.4156 79.987 54.1948 80.6103 55.1298 81C55.987 81.4675 57 81.7013 58.0909 81.7013C59.1818 81.7013 60.2727 81.4675 61.2078 80.922C62.2207 80.3766 63.0779 79.6753 63.7792 78.8181L64.0909 78.4285L65.1818 79.3636L64.8701 79.7532C64.013 80.8441 63 81.6233 61.9091 82.2467C60.8961 82.7922 59.6493 83.1038 58.2467 83.1038ZM57.8571 64.7142C56.8441 64.7142 55.8311 64.948 55.0519 65.3376C54.1948 65.7272 53.4935 66.2727 52.7922 67.0519C52.1688 67.7532 51.7013 68.6103 51.3117 69.5454C51.0779 70.1688 50.8441 70.8701 50.7662 71.5714L50.6883 72.1168H64.013V71.6493C63.935 70.7922 63.8571 70.0129 63.6233 69.3116C63.3896 68.3766 63 67.5194 62.5324 66.8181C62.0649 66.1948 61.4415 65.6493 60.6623 65.2597C59.8052 64.948 58.8701 64.7142 57.8571 64.7142Z" fill="#282828"/>
<path d="M89.026 82.6363C89.8831 82.948 90.8182 83.1038 91.8312 83.1038C92.8442 83.1038 93.7792 82.948 94.6364 82.7142C95.4935 82.4026 96.2727 81.935 96.8961 81.3896C97.5974 80.7662 98.065 80.1428 98.4546 79.3636C98.8442 78.5844 99 77.7272 99 76.8701V63.3116H97.5974V76.8701C97.5974 77.5714 97.5195 78.1948 97.2078 78.7402C96.8961 79.3636 96.5065 79.8311 95.9611 80.2987C95.4156 80.6883 94.7922 81.0779 94.0909 81.3116C93.3896 81.5454 92.6104 81.7013 91.8312 81.7013C91.052 81.7013 90.2727 81.5454 89.5714 81.3116C88.8701 81.0779 88.2468 80.7662 87.7013 80.2987C87.1559 79.8311 86.7663 79.2857 86.4546 78.7402C86.2208 78.1168 86.065 77.5714 86.065 76.8701V63.3116H84.6624V76.8701C84.6624 77.7272 84.8182 78.5844 85.2078 79.3636C85.5974 80.0649 86.1429 80.7662 86.7663 81.3116C87.3896 81.8571 88.1688 82.3246 89.026 82.6363Z" fill="#282828"/>
<path fill-rule="evenodd" clip-rule="evenodd" d="M133.753 83.1038C132.506 83.1038 131.26 82.8701 130.169 82.3246C129.078 81.7792 128.143 81.0779 127.286 80.2207C126.506 79.2857 125.805 78.2727 125.338 77.1038C124.87 75.935 124.636 74.6103 124.636 73.2857C124.636 71.961 124.87 70.6363 125.26 69.4675C125.649 68.2987 126.273 67.2077 126.974 66.3506C127.753 65.4935 128.61 64.7142 129.623 64.1688C130.636 63.6233 131.805 63.3116 133.052 63.3116C135.623 63.3116 137.649 64.1688 138.896 65.961C140.143 67.6753 140.766 70.0129 140.766 73.0519V73.5194H125.961L126.039 73.987C126.117 74.8441 126.273 75.7013 126.584 76.4805C126.974 77.4935 127.519 78.4285 128.221 79.2077C128.922 79.987 129.701 80.6103 130.636 81C131.493 81.4675 132.506 81.6233 133.597 81.6233C134.688 81.6233 135.779 81.3896 136.714 80.8441C137.727 80.2987 138.584 79.5974 139.286 78.7402L139.597 78.3506L140.688 79.2857L140.376 79.6753C139.519 80.7662 138.506 81.5454 137.415 82.1688C136.402 82.7922 135.156 83.1038 133.753 83.1038ZM133.364 64.7142C132.351 64.7142 131.338 64.948 130.558 65.3376C129.701 65.7272 129 66.3506 128.376 67.0519C127.753 67.7532 127.208 68.6103 126.896 69.5454C126.662 70.1688 126.428 70.8701 126.351 71.5714L126.273 72.1168H139.597V71.6493C139.519 70.7922 139.441 70.0129 139.208 69.3116C138.974 68.3766 138.584 67.5194 138.117 66.8181C137.649 66.1168 137.026 65.6493 136.247 65.2597C135.312 64.948 134.377 64.7142 133.364 64.7142Z" fill="#282828"/>
</svg>
