<svg width="150" height="150" viewBox="0 0 150 150" fill="none" xmlns="http://www.w3.org/2000/svg">
<path d="M28.1302 63.3782H34.5771C36.9866 63.3782 37.247 62.2711 37.247 60.5129V40.7814H44.3452V62.8572C44.3452 67.4157 41.6101 69.1739 37.5726 69.1739H28.1302V63.3782Z" fill="#282828"/>
<path d="M53.6574 40.7814H60.9509L71.6307 69.1088H64.0767L62.644 64.6806H52.2248L50.7921 69.1088H43.173L53.6574 40.7814ZM60.9509 59.4058L57.4344 47.6842H57.3693L53.8528 59.4058H60.9509Z" fill="#282828"/>
<path d="M88.5621 50.224C87.5853 47.6192 85.1107 45.9912 82.7013 45.9912C78.794 45.9912 75.6683 48.596 75.6683 54.9778C75.6683 59.1455 77.3614 63.9644 82.8966 63.9644C84.7851 63.9644 87.5853 62.5318 88.6923 59.9921L94.2927 62.7271C91.8832 67.0902 87.6504 69.9555 82.8966 69.9555C73.8449 69.9555 68.5701 62.9225 68.5701 54.9778C68.5701 47.0331 73.5193 40.0001 82.3757 40.0001C87.976 40.0001 91.6227 42.7351 94.2276 47.4238L88.5621 50.224Z" fill="#282828"/>
<path d="M94.6181 40.7814H101.716V52.1123L111.875 40.7814H121.252L110.963 51.5263L121.578 69.1088H113.698L105.949 56.5405L101.716 60.9036V69.1088H94.6181V40.7814Z" fill="#282828"/>
<path d="M28.1302 78.0304H38.9402C47.471 78.0304 53.2016 82.1982 53.2016 92.4872C53.2016 102.776 47.471 106.944 38.9402 106.944H28.1302V78.0304ZM35.1632 100.888H39.2007C44.4103 100.888 46.2988 97.1758 46.2988 92.4872C46.2988 87.7985 44.4103 84.0866 39.1355 84.0866H35.1632V100.888Z" fill="#282828"/>
<path d="M115.391 78.0304V96.5247H115.326L105.168 78.0304H98.0695V103.948L88.5619 78.0304H81.2684L72.933 101.344H60.5601V94.5059H73.2586V88.9056H60.5601V83.6308H74.1703V78.0304H53.5271V106.944H78.4031L79.8357 102.385H90.1899L91.6225 106.944H104.386V88.7102H104.451L114.74 106.944H121.773V78.0304H115.391ZM81.4637 97.0456L84.9151 85.1286H84.9802L88.4316 97.0456H81.4637Z" fill="#282828"/>
<path d="M118.192 48.9216C120.015 48.9216 121.513 50.4194 121.513 52.2428C121.513 54.0661 120.015 55.5639 118.192 55.5639C116.369 55.5639 114.871 54.0661 114.871 52.2428C114.806 50.3543 116.303 48.9216 118.192 48.9216ZM118.192 49.638C116.824 49.638 115.717 50.6148 115.717 52.2428C115.717 53.8708 116.824 54.8476 118.192 54.8476C119.559 54.8476 120.667 53.8708 120.667 52.2428C120.667 50.6148 119.559 49.638 118.192 49.638ZM117.606 54.0662H116.824V50.4194H118.648C119.364 50.4194 119.755 50.745 119.755 51.4613C119.755 52.1777 119.364 52.4381 118.778 52.5033L119.69 54.0662H118.778L117.931 52.5033H117.606V54.0662ZM117.606 51.8521H118.322C118.648 51.8521 118.778 51.7869 118.843 51.3962C118.843 51.0055 118.648 50.9404 118.322 50.9404H117.606V51.8521Z" fill="#282828"/>
<path d="M30.149 73.1463C30.0187 72.8858 29.7583 72.7556 29.4978 72.7556C29.0419 72.7556 28.7814 73.0161 28.7814 73.6673C28.7814 74.2534 29.0419 74.579 29.4978 74.579C29.7583 74.579 30.0839 74.4487 30.149 74.058H29.4978V73.4719H30.7351V75.0999H30.149V74.8395C29.9536 75.0348 29.628 75.1651 29.3024 75.1651C28.4558 75.1651 28 74.5139 28 73.6673C28 72.8207 28.4558 72.1695 29.4326 72.1695C30.0187 72.1695 30.4746 72.43 30.7351 72.8858L30.149 73.1463Z" fill="#282828"/>
<path d="M33.3399 75.1V72.2347H35.4238V72.8208H34.0562V73.3418H35.3586V73.8627H34.0562V74.579H35.554V75.1H33.3399Z" fill="#282828"/>
<path d="M38.0287 72.2347H38.745L39.7869 74.0581H39.8521V72.2347H40.5033V75.1H39.7869L38.6799 73.2766V75.1H38.0287V72.2347Z" fill="#282828"/>
<path d="M42.9125 72.2347H45.1266V72.8208H44.4102V75.1H43.6939V72.8208H42.9125V72.2347Z" fill="#282828"/>
<path d="M47.6014 72.2347H48.3178V74.5139H49.4248V75.1H47.6014V72.2347Z" fill="#282828"/>
<path d="M51.9643 75.1V72.2347H54.0481V72.8208H52.6806V73.3418H53.983V73.8627H52.6806V74.579H54.1784V75.1H51.9643Z" fill="#282828"/>
<path d="M62.5791 75.1V72.2347H64.663V72.8208H63.2954V73.3418H64.5978V73.8627H63.2954V74.579H64.7932V75.1H62.5791Z" fill="#282828"/>
<path d="M56.7183 72.2347H57.7602L58.216 74.3837H58.2812L58.8021 72.2347H59.844V75.1H59.1277V72.8859L58.5416 75.1H57.9556L57.3695 72.8859V75.1H56.7183V72.2347Z" fill="#282828"/>
<path d="M67.5281 72.2347H68.2444L69.2863 74.0581V72.2347H69.9375V75.1H69.2212L68.1793 73.2766V75.1H67.5281V72.2347Z" fill="#282828"/>
<path d="M72.6074 73.3418C72.8028 73.2767 72.8679 73.0814 72.8679 72.9511H72.6074V72.2999H73.2586V72.9511C73.2586 73.3418 72.9981 73.6023 72.6074 73.6674V73.3418Z" fill="#282828"/>
<path d="M76.1893 74.2534C76.4498 74.4487 76.6451 74.6441 77.0358 74.6441C77.2312 74.6441 77.5568 74.579 77.5568 74.3185C77.5568 74.1882 77.4266 74.1231 77.2312 74.058L76.6451 73.9929C76.1242 73.9278 75.7986 73.6022 75.7986 73.2114C75.7986 72.4951 76.3846 72.2346 76.9707 72.2346C77.4266 72.2346 77.8824 72.43 78.208 72.7556L77.687 73.1463C77.4917 72.8858 77.2312 72.7556 76.9056 72.7556C76.7102 72.7556 76.5149 72.8858 76.5149 73.0161C76.5149 73.1463 76.6451 73.2766 76.9056 73.2766L77.1661 73.3417C77.7522 73.4068 78.208 73.6022 78.208 74.1882C78.208 75.0348 77.4266 75.2302 76.9056 75.2302C76.3846 75.2302 75.9939 75.0999 75.6032 74.6441L76.1893 74.2534Z" fill="#282828"/>
<path d="M86.0223 73.1464C85.8921 72.886 85.6316 72.7557 85.3711 72.7557C84.9152 72.7557 84.6548 73.0162 84.6548 73.6674C84.6548 74.2535 84.9152 74.5791 85.3711 74.5791C85.6316 74.5791 85.9572 74.4488 86.0223 74.0581H85.3711V73.472H86.6084V75.1001H86.0223V74.8396C85.8269 75.0349 85.5665 75.1652 85.1757 75.1652C84.3292 75.1652 83.8733 74.514 83.8733 73.6674C83.8733 72.8208 84.3292 72.1696 85.306 72.1696C85.8921 72.1696 86.3479 72.4301 86.6084 72.886L86.0223 73.1464Z" fill="#282828"/>
<path d="M89.2132 72.2346H90.6459C91.2971 72.2346 91.6878 72.5602 91.6878 73.2114C91.6878 73.6022 91.4273 73.8626 91.1017 73.9929L91.7529 75.1651H90.9715L90.3854 74.1231H89.9296V75.1651H89.2132V72.2346ZM89.9296 73.537H90.5808C90.8412 73.537 90.9715 73.4068 90.9715 73.1463C90.9715 72.8858 90.8412 72.7556 90.5808 72.7556H89.9296V73.537Z" fill="#282828"/>
<path d="M95.5298 75.1652C94.6182 75.1652 94.0972 74.4488 94.0972 73.6674C94.0972 72.886 94.6182 72.1696 95.5298 72.1696C96.4415 72.1696 96.9625 72.886 96.9625 73.6674C97.0276 74.4488 96.5067 75.1652 95.5298 75.1652ZM95.5298 72.7557C95.1391 72.7557 94.8135 73.0162 94.8135 73.6674C94.8135 74.0581 95.0089 74.5791 95.5298 74.5791C96.0508 74.5791 96.2462 74.1232 96.2462 73.6674C96.3113 73.2116 96.1159 72.7557 95.5298 72.7557Z" fill="#282828"/>
<path d="M100.87 75.1652C99.9581 75.1652 99.4371 74.4488 99.4371 73.6674C99.4371 72.886 99.9581 72.1696 100.87 72.1696C101.781 72.1696 102.302 72.886 102.302 73.6674C102.368 74.4488 101.781 75.1652 100.87 75.1652ZM100.87 72.7557C100.479 72.7557 100.153 73.0162 100.153 73.6674C100.153 74.0581 100.349 74.5791 100.87 74.5791C101.391 74.5791 101.586 74.1232 101.586 73.6674C101.651 73.2116 101.456 72.7557 100.87 72.7557Z" fill="#282828"/>
<path d="M104.907 72.2347H105.949L106.47 74.3837L106.991 72.2347H108.033V75.1H107.317V72.8859L106.796 75.1H106.145L105.559 72.8859V75.1H104.907V72.2347Z" fill="#282828"/>
<path d="M111.419 72.2347H110.703V75.1H111.419V72.2347Z" fill="#282828"/>
<path d="M114.089 72.2347H114.805L115.847 74.0581V72.2347H116.498V75.1H115.782L114.74 73.2766V75.1H114.089V72.2347Z" fill="#282828"/>
<path d="M121.188 73.1464C121.057 72.886 120.797 72.7557 120.536 72.7557C120.081 72.7557 119.82 73.0162 119.82 73.6674C119.82 74.2535 120.081 74.5791 120.536 74.5791C120.797 74.5791 121.122 74.4488 121.188 74.0581H120.536V73.472H121.774V75.1001H121.188V74.8396C120.992 75.0349 120.732 75.1652 120.341 75.1652C119.494 75.1652 119.039 74.514 119.039 73.6674C119.039 72.8208 119.494 72.1696 120.471 72.1696C121.057 72.1696 121.513 72.4301 121.774 72.886L121.188 73.1464Z" fill="#282828"/>
<path d="M28.1302 110.07H29.5629C30.149 110.07 30.5397 110.265 30.5397 110.786C30.5397 111.177 30.3443 111.372 29.9536 111.437C30.3443 111.437 30.6699 111.698 30.6699 112.088C30.6699 112.675 30.2141 112.935 29.4978 112.935H28.1954V110.07H28.1302ZM28.8466 111.242H29.4327C29.6931 111.242 29.8234 111.177 29.8234 110.916C29.8234 110.656 29.6931 110.591 29.4327 110.591H28.8466V111.242ZM28.8466 112.414H29.4327C29.8234 112.414 29.8885 112.284 29.8885 112.088C29.8885 111.828 29.8234 111.763 29.5629 111.763H28.8466V112.414Z" fill="#282828"/>
<path d="M33.4701 111.632L32.4282 110.07H33.2097L33.8609 111.046L34.447 110.07H35.2935L34.1865 111.632V112.935H33.4701V111.632Z" fill="#282828"/>
<path d="M39.8519 110.07H40.9589C41.8055 110.07 42.3916 110.46 42.3916 111.502C42.3916 112.544 41.8055 112.935 40.9589 112.935H39.8519V110.07ZM40.5682 112.349H41.024C41.545 112.349 41.7404 111.958 41.7404 111.502C41.7404 111.046 41.545 110.656 41.024 110.656H40.6333V112.349H40.5682Z" fill="#282828"/>
<path d="M44.4755 112.935V110.07H46.6244V110.656H45.1918V111.177H46.4942V111.698H45.1918V112.414H46.6896V112.935H44.4755Z" fill="#282828"/>
<path d="M48.7085 110.07H49.4248L50.4668 111.893V110.07H51.118V112.935H50.4016L49.3597 111.177V112.935H48.7085V110.07Z" fill="#282828"/>
<path d="M53.2667 110.07H54.3086L54.8296 112.219L55.3506 110.07H56.3925V112.935H55.7413V110.721H55.6762L55.1552 112.935H54.504L53.9179 110.721V112.935H53.2667V110.07Z" fill="#282828"/>
<path d="M59.323 110.07H60.0393L61.1464 112.935H60.3649L60.2347 112.479H59.1928L59.0625 112.935H58.2811L59.323 110.07ZM60.0393 111.958L59.7137 110.786L59.3881 111.958H60.0393Z" fill="#282828"/>
<path d="M63.0348 110.07H63.7512L64.7931 111.893V110.07H65.4443V112.935H64.728L63.686 111.177V112.935H63.0348V110.07Z" fill="#282828"/>
<path d="M71.0446 110.07H70.3283V112.935H71.0446V110.07Z" fill="#282828"/>
<path d="M73.1935 110.07H73.9099L74.9518 111.893H75.0169V110.07H75.6681V112.935H74.9518L73.8447 111.177V112.935H73.1935V110.07Z" fill="#282828"/>
<path d="M77.5566 110.07H79.7707V110.656H79.0543V112.935H78.338V110.656H77.5566V110.07Z" fill="#282828"/>
<path d="M81.7244 112.935V110.07H83.8083V110.656H82.4407V111.177H83.7431V111.698H82.4407V112.414H83.9385V112.935H81.7244Z" fill="#282828"/>
<path d="M85.8919 110.07H87.3245C87.9757 110.07 88.3665 110.395 88.3665 110.981C88.3665 111.372 88.106 111.632 87.7804 111.763L88.4316 112.935H87.6501L87.064 111.893H86.6082V112.935H85.8919V110.07ZM86.6082 111.372H87.2594C87.5199 111.372 87.6501 111.242 87.6501 110.981C87.6501 110.721 87.5199 110.591 87.2594 110.591H86.6082V111.372Z" fill="#282828"/>
<path d="M90.4503 110.07H91.1666L92.2085 111.893V110.07H92.8597V112.935H92.1434L91.1015 111.177V112.935H90.4503V110.07Z" fill="#282828"/>
<path d="M95.7904 110.07H96.5068L97.6138 112.935H96.8324L96.7021 112.479H95.6602L95.53 112.935H94.7485L95.7904 110.07ZM96.5068 111.958L96.1812 110.786L95.8556 111.958H96.5068Z" fill="#282828"/>
<path d="M98.9812 110.07H101.195V110.656H100.479V112.935H99.7626V110.656H98.9812V110.07Z" fill="#282828"/>
<path d="M103.865 110.07H103.149V112.935H103.865V110.07Z" fill="#282828"/>
<path d="M107.317 113C106.405 113 105.884 112.284 105.884 111.502C105.884 110.721 106.405 110.005 107.317 110.005C108.228 110.005 108.749 110.721 108.749 111.502C108.749 112.349 108.228 113 107.317 113ZM107.317 110.591C106.926 110.591 106.6 110.851 106.6 111.502C106.6 111.893 106.796 112.414 107.317 112.414C107.838 112.414 108.033 111.958 108.033 111.502C108.033 111.047 107.838 110.591 107.317 110.591Z" fill="#282828"/>
<path d="M110.833 110.07H111.55L112.591 111.893V110.07H113.243V112.935H112.526L111.484 111.177V112.935H110.833V110.07Z" fill="#282828"/>
<path d="M116.173 110.07H116.89L117.997 112.935H117.215L117.085 112.479H116.043L115.913 112.935H115.131L116.173 110.07ZM116.89 111.958L116.564 110.786L116.238 111.958H116.89Z" fill="#282828"/>
<path d="M119.885 110.07H120.601V112.349H121.708V112.935H119.885V110.07Z" fill="#282828"/>
</svg>
