<svg width="150" height="150" viewBox="0 0 150 150" fill="none" xmlns="http://www.w3.org/2000/svg">
<path d="M23.7453 66.5013C24.4316 66.5013 24.7319 66.9088 24.7319 67.7239V70.1903H26.4906V67.6595C26.4906 66.0295 25.5898 65 23.7453 65C21.9008 65 21 66.0295 21 67.6595V81.9223C21 83.5308 21.9008 84.5818 23.7453 84.5603C25.5898 84.5603 26.4906 83.5308 26.4906 81.9008V79.1555H24.7319V81.8579C24.7319 82.6729 24.4316 83.0804 23.7453 83.0804C23.059 83.0804 22.7587 82.6944 22.7587 81.8579V67.7239C22.7587 66.9088 23.059 66.5013 23.7453 66.5013Z" fill="#282828"/>
<path fill-rule="evenodd" clip-rule="evenodd" d="M36.6783 65.0001C34.3191 65.0001 33.5898 66.3513 33.5898 68.2601V81.3218C33.5898 83.2306 34.2976 84.5818 36.6783 84.5818C39.0376 84.5818 39.7668 83.2092 39.7668 81.3218V68.2601C39.7668 66.3513 39.059 65.0001 36.6783 65.0001ZM36.6783 83.1019C35.563 83.1019 35.3486 82.3513 35.3486 81.2789V68.303C35.3486 67.2306 35.563 66.48 36.6783 66.48C37.7936 66.48 38.0081 67.2306 38.0081 68.303V81.2789C38.0081 82.3513 37.7936 83.1019 36.6783 83.1019Z" fill="#282828"/>
<path d="M47.6809 65.1501H49.4396V82.9088H52.3565V84.4101H47.6809V65.1501Z" fill="#282828"/>
<path fill-rule="evenodd" clip-rule="evenodd" d="M62.8443 65.0001C60.4851 65.0001 59.7559 66.3727 59.7559 68.2601V81.3218C59.7559 83.2306 60.4636 84.5818 62.8443 84.5818C65.2036 84.5818 65.9328 83.2092 65.9328 81.3218V68.2601C65.9328 66.3513 65.225 65.0001 62.8443 65.0001ZM62.8443 83.1019C61.7291 83.1019 61.5146 82.3513 61.5146 81.2789V68.303C61.5146 67.2306 61.7291 66.48 62.8443 66.48C63.9596 66.48 64.1741 67.2306 64.1741 68.303V81.2789C64.1741 82.3513 63.9596 83.1019 62.8443 83.1019Z" fill="#282828"/>
<path fill-rule="evenodd" clip-rule="evenodd" d="M78.1581 76.3458C78.1581 75.4021 77.6005 75.1662 76.764 75.1662H75.5844V84.4316H73.8257V65.1501H77.1072C78.7801 65.1501 79.831 65.4504 79.831 67.3592V72.2493C79.831 73.7506 79.2734 74.2439 77.9222 74.3297V74.3941C79.1662 74.4798 79.9168 74.8445 79.9168 76.1742V84.4101H78.1581V76.3458ZM76.7855 73.6648C77.6005 73.6648 78.0938 73.4289 78.0938 72.2707V67.9597C78.0938 66.8445 77.5147 66.6514 76.5924 66.6514H75.6058V73.6648H76.7855Z" fill="#282828"/>
<path d="M101.901 65.1501H100.25L98.9198 82.3727H98.8555L97.397 65.1501H95.2093L93.8367 82.3727H93.7938L92.3568 65.1501H90.7053L92.6356 84.4102H94.952L96.2817 67.2735H96.3246L97.6544 84.4102H99.9493L101.901 65.1501Z" fill="#282828"/>
<path fill-rule="evenodd" clip-rule="evenodd" d="M108.764 68.2602C108.764 66.3728 109.493 65.0001 111.853 65.0001C114.212 65.0001 114.941 66.3513 114.941 68.2602V81.3218C114.941 83.2092 114.212 84.5819 111.853 84.5819C109.472 84.5819 108.764 83.2307 108.764 81.3218V68.2602ZM110.523 81.2789C110.523 82.3513 110.737 83.102 111.853 83.102C112.968 83.102 113.182 82.3513 113.182 81.2789V68.3031C113.182 67.2307 112.968 66.48 111.853 66.48C110.737 66.48 110.523 67.2307 110.523 68.3031V81.2789Z" fill="#282828"/>
<path d="M133 65.1501H131.348L130.019 82.3727H129.954L128.496 65.1501H126.308L124.936 82.3727H124.893L123.456 65.1501H121.804L123.734 84.4102H126.051L127.381 67.2735H127.424L128.753 84.4102H131.048L133 65.1501Z" fill="#282828"/>
</svg>
