<svg width="150" height="150" viewBox="0 0 150 150" fill="none" xmlns="http://www.w3.org/2000/svg">
<path d="M42.9189 57.7438C42.9189 42.274 53.8465 28.9559 68.9591 25.9317C69.8936 25.7536 70.828 25.6778 71.7885 25.5998C72.0827 25.5759 72.3793 25.5519 72.6792 25.5246C73.8417 25.4083 75.0042 25.5828 75.1204 27.0948C75.2367 28.5488 74.2486 28.8977 73.0279 29.014C66.6341 29.6538 60.9378 31.8638 56.2297 36.2256C47.8015 44.135 44.6627 53.6728 47.4527 65.0135C47.7434 66.2348 48.1502 67.398 48.5571 68.5611C49.0221 69.7243 49.1384 70.7711 47.8015 71.3527C46.5227 71.9343 45.5927 71.2364 45.244 70.0151L42.9189 57.7438Z" fill="#282828"/>
<path d="M107.787 56.7552C107.732 56.3533 107.68 55.8755 107.621 55.3414C107.435 53.634 107.186 51.3515 106.566 49.1366C103.66 39.0753 97.3826 31.8638 87.6756 27.8509C85.2842 26.8539 82.6365 26.4124 80.0254 25.977C79.5903 25.9044 79.1561 25.832 78.7243 25.7572C78.3823 25.6812 77.9659 26.1022 77.5398 26.5329C77.3141 26.761 77.0857 26.9919 76.8643 27.153C77.0022 27.3216 77.136 27.4902 77.269 27.6578C77.6406 28.1259 78.0056 28.5858 78.4337 29.0141C78.5504 29.1308 78.7973 29.1434 79.0524 29.1564C79.1785 29.1628 79.3065 29.1693 79.4218 29.1885C94.9994 32.0383 104.823 44.0187 104.009 59.6631C103.885 62.307 103.028 64.9216 102.167 67.5486C101.816 68.6198 101.464 69.693 101.161 70.7711C100.812 71.9343 100.521 73.0393 101.858 73.6209C103.137 74.2024 103.835 73.3301 104.416 72.2832C106.741 67.8051 107.555 63.0362 107.787 56.7552Z" fill="#282828"/>
<path d="M74.2486 90.2539C85.06 90.2539 94.5344 85.7758 100.521 78.2735C101.393 77.2266 101.974 76.0053 100.812 74.9585C99.5332 73.8535 98.6613 74.8422 97.7895 75.889C89.0125 86.4155 75.5855 89.4979 63.1467 83.9147C58.2642 81.7048 54.4279 78.2735 51.4053 73.9117C50.5916 72.7485 49.6035 72.5159 48.6153 73.1556C47.4528 73.9117 47.7434 75.0166 48.4991 76.0053C55.0091 85.3105 63.9604 89.9631 74.2486 90.2539Z" fill="#282828"/>
<path d="M58.206 66.9328C60.8798 67.398 63.6698 66.3512 64.3092 64.1993C64.658 63.0362 64.7161 61.5241 64.3673 60.361C64.1172 59.4849 63.5082 58.7286 62.9264 58.0061C62.6971 57.7213 62.472 57.4418 62.2748 57.1623C64.3092 55.6502 65.123 53.9636 64.2511 51.87C63.3211 49.66 60.7635 48.3805 57.7991 48.8458C59.5429 52.0444 61.3448 55.3594 56.346 57.9183C59.3685 58.2673 59.7754 59.8957 59.4267 61.8731C59.2329 62.9974 58.9358 64.1218 58.6387 65.2462C58.4902 65.8084 58.3417 66.3706 58.206 66.9328Z" fill="#282828"/>
<path d="M90.2913 67.0491C88.4894 60.8844 88.4313 54.836 90.2913 48.7876C86.2225 49.1366 83.8975 52.8586 83.8394 57.6276C83.7812 63.0362 85.99 66.4093 90.2913 67.0491Z" fill="#282828"/>
<path d="M91.9188 66.9909C95.8132 66.5257 98.0801 63.5015 98.3126 58.4999C98.5451 52.975 96.3363 49.5437 91.8607 48.6131C93.6044 54.7197 93.6626 60.7681 91.9188 66.9909Z" fill="#282828"/>
<path d="M74.1905 48.6713C69.8892 48.7295 67.3898 54.6034 67.7386 58.907C68.1455 63.6178 70.9355 67.0491 74.1324 66.9328C72.6211 60.8262 72.6211 54.7778 74.1905 48.6713Z" fill="#282828"/>
<path d="M75.9924 66.9909C79.0731 67.1072 81.2237 65.3625 81.7468 62.0475C82.1537 59.5468 80.8168 57.2205 78.4337 56.6389C76.8643 56.2318 75.353 56.2899 74.2486 58.4999C76.7692 57.9955 76.6449 59.3813 76.5285 60.6797L76.5155 60.8262C76.4439 62.045 76.3281 63.2858 76.2089 64.5623C76.1348 65.3569 76.0593 66.1654 75.9924 66.9909Z" fill="#282828"/>
<path d="M55.8045 64.9305C55.861 64.841 55.9292 64.7327 55.9973 64.6646C56.9273 63.6759 57.276 62.4546 56.1716 61.5823C55.416 61.0007 53.8466 60.5936 53.1491 61.0007C52.4516 61.4078 51.9866 62.978 52.0447 63.9086C52.2191 65.8859 54.1954 66.9909 57.1016 66.8164C56.7514 66.3346 56.4342 65.9518 56.0755 65.5189C55.9579 65.377 55.8357 65.2296 55.7066 65.0717C55.7307 65.0476 55.7647 64.9937 55.8045 64.9305Z" fill="#282828"/>
<path d="M76.5737 50.9394C76.5737 50.9394 76.5737 51.1139 76.4574 51.2302C75.5274 52.3352 75.1787 53.6147 76.5155 54.3707C77.3293 54.836 78.8987 54.836 79.6543 54.3707C80.875 53.6147 80.9331 52.1026 80.0612 50.8813C79.0149 49.4273 77.6199 48.6131 75.2949 48.6131C75.7089 49.3034 75.9772 49.8117 76.3016 50.426L76.3033 50.4291C76.3883 50.5902 76.4772 50.7586 76.5737 50.9394Z" fill="#282828"/>
<path d="M56.6367 48.6132C56.5205 48.5115 56.404 48.4095 56.2879 48.3224C55.9452 48.6138 55.5823 48.8952 55.217 49.1783C54.3433 49.8557 53.4562 50.5434 52.8004 51.4047C52.3354 52.0444 52.5097 53.3821 52.8585 54.2544C53.091 54.7778 54.2535 55.1849 54.951 55.1268C55.5904 55.1268 56.6366 54.4871 56.6948 54.0218C56.8157 53.296 56.6851 52.5143 56.5549 51.7348C56.4973 51.39 56.4398 51.0457 56.4041 50.7068C56.346 50.7359 56.2879 50.7504 56.2298 50.765C56.1716 50.7795 56.1135 50.7941 56.0554 50.8231C56.346 50.1834 56.6366 49.5437 56.9854 48.9039C56.8693 48.8168 56.7528 48.7149 56.6367 48.6132Z" fill="#282828"/>
<path d="M15.0766 117.297L14.8441 116.018C14.7666 116.037 14.6891 116.05 14.6116 116.063C14.4566 116.089 14.3016 116.114 14.1466 116.192C13.9722 116.192 13.7979 116.134 13.6816 116.076C13.5654 116.018 13.5072 115.901 13.4491 115.785C13.391 115.669 13.391 115.378 13.391 114.971V110.027H14.8441V108.922H13.391V105.956L11.996 106.829V108.922H10.9497V110.027H11.996V114.854C11.996 115.727 12.0541 116.25 12.1703 116.541C12.2866 116.774 12.461 117.006 12.7516 117.181C13.0422 117.355 13.4491 117.413 13.9722 117.413C14.2767 117.413 14.5812 117.369 14.9244 117.319L15.0766 117.297Z" fill="#282828"/>
<path d="M16.2393 105.666H17.6924V109.853C18.3318 109.097 19.2037 108.69 20.1918 108.69C20.8312 108.69 21.3543 108.806 21.8193 109.039C22.2843 109.271 22.6331 109.62 22.8074 110.086C22.9818 110.493 23.0981 111.132 23.0981 112.005V117.355H21.6449V112.005C21.6449 111.307 21.4705 110.784 21.1799 110.435C20.8893 110.086 20.4243 109.969 19.843 109.969C19.4362 109.969 19.0293 110.086 18.6224 110.318C18.2736 110.551 17.983 110.842 17.8086 111.191C17.6343 111.54 17.5761 112.063 17.5761 112.761V117.355H16.2393V105.666Z" fill="#282828"/>
<path fill-rule="evenodd" clip-rule="evenodd" d="M32.5144 114.796L31.0612 114.622C30.8869 115.203 30.5381 115.611 30.1894 116.018C29.8406 116.308 29.3756 116.425 28.8525 116.425C28.155 116.425 27.5737 116.134 27.1087 115.669C26.5856 115.145 26.3531 114.447 26.295 113.517H32.5725V113.11C32.5725 111.714 32.2237 110.609 31.5262 109.853C30.7706 109.097 29.8406 108.69 28.7362 108.69C27.5737 108.69 26.6437 109.097 25.8881 109.853C25.1324 110.667 24.7837 111.772 24.7837 113.168C24.7837 114.564 25.1906 115.611 25.8881 116.367C26.5856 117.123 27.5737 117.53 28.7943 117.53C29.7825 117.53 30.5962 117.297 31.2356 116.832C31.875 116.308 32.2819 115.669 32.5144 114.796ZM31.0612 112.296H26.3531C26.4112 111.54 26.7018 110.958 27.1668 110.551C27.5737 110.144 28.155 109.911 28.7943 109.911C29.4919 109.911 30.0731 110.202 30.5381 110.725C30.8287 111.074 31.0031 111.598 31.0612 112.296Z" fill="#282828"/>
<path d="M38.9082 105.666H40.3613V109.853C41.0007 109.097 41.8726 108.69 42.8607 108.69C43.5001 108.69 44.0232 108.806 44.4882 109.039C44.9532 109.271 45.302 109.62 45.4764 110.086C45.6508 110.493 45.767 111.132 45.767 112.005V117.355H44.3139V112.005C44.3139 111.307 44.1395 110.784 43.8489 110.435C43.5582 110.086 43.0932 109.969 42.512 109.969C42.1051 109.969 41.6982 110.086 41.2913 110.318C40.9426 110.551 40.652 110.842 40.4776 111.191C40.3032 111.54 40.2451 112.063 40.2451 112.761V117.355H38.9082V105.666Z" fill="#282828"/>
<path fill-rule="evenodd" clip-rule="evenodd" d="M51.9283 117.181C52.3933 117.006 52.9164 116.715 53.4396 116.25C53.4977 116.657 53.6139 117.006 53.7883 117.355H55.2996C55.1252 117.064 55.0089 116.715 54.9508 116.367C54.8927 116.018 54.8346 115.203 54.8346 113.866V111.947C54.8346 111.307 54.8346 110.842 54.7764 110.609C54.6602 110.202 54.5439 109.853 54.3114 109.62C54.0789 109.388 53.7883 109.155 53.3233 108.981C52.8583 108.806 52.2771 108.748 51.5795 108.748C50.8239 108.748 50.1845 108.864 49.6614 109.039C49.0801 109.271 48.6733 109.562 48.3826 109.911C48.092 110.26 47.8595 110.783 47.7433 111.365L49.1383 111.539C49.2545 110.9 49.487 110.493 49.8358 110.26C50.1845 110.027 50.6495 109.911 51.347 109.911C52.0445 109.911 52.6258 110.027 52.9746 110.376C53.2652 110.609 53.3814 111.016 53.3814 111.598V111.947C52.8002 112.121 51.9864 112.296 50.8239 112.412C50.3853 112.456 50.046 112.533 49.7809 112.593C49.695 112.612 49.6163 112.63 49.5452 112.644C49.1383 112.761 48.7895 112.877 48.4989 113.11C48.1501 113.284 47.9176 113.575 47.7433 113.924C47.5689 114.215 47.4526 114.622 47.4526 115.029C47.4526 115.727 47.6851 116.308 48.2083 116.774C48.7314 117.239 49.4289 117.472 50.3589 117.472C50.9402 117.472 51.4633 117.355 51.9283 117.181ZM50.9983 113.575C52.0445 113.459 52.8002 113.284 53.3233 113.052V113.575C53.3233 114.215 53.2652 114.68 53.0908 115.029C52.9164 115.436 52.5677 115.785 52.1608 116.018C51.7539 116.25 51.2308 116.367 50.7077 116.367C50.1264 116.367 49.7195 116.192 49.4289 115.959C49.1383 115.727 49.022 115.436 49.022 115.029C49.022 114.738 49.0802 114.506 49.1964 114.331C49.3708 114.098 49.5452 113.982 49.7777 113.866C50.0102 113.749 50.417 113.633 50.9983 113.575Z" fill="#282828"/>
<path d="M57.0435 105.666H58.4966V107.294H57.0435V105.666Z" fill="#282828"/>
<path d="M57.0435 108.864H58.4966V117.297H57.0435V108.864Z" fill="#282828"/>
<path d="M60.647 108.864V117.355H62.1582V112.935C62.1582 112.296 62.2164 111.772 62.3907 111.249C62.507 110.958 62.6814 110.667 62.9139 110.493C63.1464 110.318 63.437 110.202 63.7276 110.202C64.0764 110.202 64.4251 110.26 64.7739 110.493L65.2389 109.155C64.7739 108.864 64.2508 108.69 63.7857 108.69C63.437 108.69 63.1464 108.806 62.8557 108.981C62.5651 109.155 62.2745 109.562 61.9257 110.144V108.864H60.647Z" fill="#282828"/>
<path d="M70.5864 108.864H71.8652V110.144C72.2139 109.562 72.5046 109.155 72.7952 108.981C73.0858 108.806 73.3764 108.69 73.7252 108.69C74.1902 108.69 74.7133 108.864 75.1783 109.155L74.7133 110.493C74.3646 110.26 74.0158 110.202 73.6671 110.202C73.3764 110.202 73.0858 110.318 72.8533 110.493C72.6208 110.667 72.4464 110.958 72.3302 111.249C72.1558 111.772 72.0977 112.296 72.0977 112.935V117.355H70.5864V108.864Z" fill="#282828"/>
<path fill-rule="evenodd" clip-rule="evenodd" d="M83.2578 114.796L81.8046 114.622C81.5721 115.203 81.2815 115.611 80.9328 116.018C80.584 116.308 80.119 116.425 79.5959 116.425C78.8984 116.425 78.3171 116.134 77.8521 115.669C77.329 115.145 77.0965 114.447 77.0384 113.517H83.3159V113.11C83.3159 111.714 82.9671 110.609 82.2696 109.853C81.514 109.097 80.584 108.69 79.4796 108.69C78.3171 108.69 77.3871 109.097 76.6315 109.853C75.8759 110.667 75.5271 111.772 75.5271 113.168C75.5271 114.564 75.934 115.611 76.6315 116.367C77.329 117.123 78.3171 117.53 79.5378 117.53C80.5259 117.53 81.3396 117.297 81.979 116.832C82.6184 116.308 83.0253 115.669 83.2578 114.796ZM81.8046 112.296H77.0965C77.1546 111.54 77.3871 110.958 77.9102 110.551C78.3171 110.144 78.8984 109.911 79.5378 109.911C80.2353 109.911 80.8165 110.202 81.2815 110.725C81.5721 111.074 81.7465 111.598 81.8046 112.296Z" fill="#282828"/>
<path d="M87.3849 117.297L84.188 108.864H85.6993L87.5011 113.924C87.6755 114.447 87.8499 115.029 88.0243 115.61C88.1405 115.145 88.3149 114.622 88.5474 113.982L90.4074 108.806H91.8605L88.6636 117.239H87.3849V117.297Z" fill="#282828"/>
<path fill-rule="evenodd" clip-rule="evenodd" d="M94.0112 109.62C93.1393 110.376 92.7324 111.54 92.7324 113.11C92.7324 114.506 93.0812 115.611 93.8949 116.367C94.5924 117.123 95.5806 117.53 96.7431 117.53C97.4987 117.53 98.1381 117.355 98.7775 117.006C99.3587 116.657 99.8237 116.192 100.172 115.552C100.463 114.913 100.637 114.098 100.637 112.993C100.637 111.656 100.289 110.609 99.5331 109.853C98.7775 109.097 97.8475 108.69 96.685 108.69C95.6387 108.69 94.7087 108.981 94.0112 109.62ZM94.8831 115.552C94.4181 114.971 94.1856 114.215 94.1856 113.11C94.1856 112.005 94.4181 111.191 94.8831 110.725C95.4062 110.202 95.9874 109.911 96.685 109.911C97.3825 109.911 97.9637 110.202 98.4287 110.725C98.8937 111.249 99.1262 112.063 99.1262 113.11C99.1262 114.215 98.8937 115.029 98.4287 115.552C97.9637 116.076 97.3825 116.367 96.685 116.367C95.9293 116.367 95.3481 116.076 94.8831 115.552Z" fill="#282828"/>
<path d="M103.718 105.666H102.265V117.297H103.718V105.666Z" fill="#282828"/>
<path d="M111.449 116.076V117.355H112.727V108.922H111.274V113.459C111.274 114.157 111.216 114.68 111.042 115.087C110.867 115.436 110.577 115.727 110.228 115.96C109.821 116.192 109.414 116.308 109.007 116.308C108.542 116.308 108.194 116.192 107.903 115.96C107.612 115.785 107.438 115.436 107.322 115.087C107.264 114.796 107.264 114.331 107.264 113.575V108.922H105.811V114.157C105.811 114.796 105.869 115.203 105.927 115.494C106.043 115.901 106.159 116.25 106.392 116.541C106.624 116.832 106.973 117.065 107.38 117.239C107.787 117.413 108.252 117.53 108.775 117.53C109.879 117.53 110.809 117.006 111.449 116.076Z" fill="#282828"/>
<path d="M118.133 116.018L118.366 117.297L118.213 117.319C117.87 117.369 117.566 117.413 117.261 117.413C116.738 117.413 116.331 117.355 116.041 117.181C115.75 117.006 115.576 116.774 115.459 116.541C115.343 116.25 115.285 115.727 115.285 114.854V110.027H114.239V108.922H115.285V106.829L116.68 105.956V108.922H118.133V110.027H116.68V114.971C116.68 115.378 116.68 115.669 116.738 115.785C116.796 115.901 116.854 116.018 116.971 116.076C117.087 116.134 117.261 116.192 117.436 116.192C117.606 116.107 117.745 116.084 117.921 116.055C117.952 116.05 117.984 116.045 118.017 116.039C118.04 116.035 118.064 116.031 118.089 116.026L118.133 116.018Z" fill="#282828"/>
<path d="M120.981 105.666H119.528V107.294H120.981V105.666Z" fill="#282828"/>
<path d="M120.981 108.864H119.528V117.297H120.981V108.864Z" fill="#282828"/>
<path fill-rule="evenodd" clip-rule="evenodd" d="M122.609 113.11C122.609 111.54 123.016 110.376 123.888 109.62C124.585 108.981 125.515 108.69 126.561 108.69C127.724 108.69 128.654 109.097 129.41 109.853C130.165 110.609 130.514 111.656 130.514 112.993C130.514 114.098 130.34 114.913 130.049 115.552C129.7 116.192 129.235 116.657 128.654 117.006C128.015 117.355 127.375 117.53 126.62 117.53C125.457 117.53 124.469 117.123 123.771 116.367C122.958 115.611 122.609 114.506 122.609 113.11ZM124.062 113.11C124.062 114.215 124.295 114.971 124.76 115.552C125.225 116.076 125.806 116.367 126.561 116.367C127.259 116.367 127.84 116.076 128.305 115.552C128.77 115.029 129.003 114.215 129.003 113.11C129.003 112.063 128.77 111.249 128.305 110.725C127.84 110.202 127.259 109.911 126.561 109.911C125.864 109.911 125.283 110.202 124.76 110.725C124.295 111.191 124.062 112.005 124.062 113.11Z" fill="#282828"/>
<path d="M132.199 108.864V117.355H133.594V112.761C133.594 111.656 133.769 110.958 134.234 110.551C134.641 110.144 135.222 109.969 135.803 109.969C136.152 109.969 136.501 110.027 136.791 110.202C137.082 110.376 137.256 110.609 137.373 110.9C137.489 111.132 137.547 111.598 137.547 112.179V117.297H139V112.121C139 111.481 139 111.016 138.942 110.725C138.826 110.318 138.71 109.969 138.477 109.678C138.303 109.388 137.954 109.155 137.547 108.981C137.14 108.806 136.675 108.69 136.152 108.69C134.989 108.69 134.118 109.155 133.478 110.086V108.864H132.199Z" fill="#282828"/>
</svg>
