<svg width="150" height="150" viewBox="0 0 318 318" fill="none" xmlns="http://www.w3.org/2000/svg">
<path fill-rule="evenodd" clip-rule="evenodd" d="M86.3913 194.531C96.8767 194.531 107.649 190.19 114.243 182.367L103.881 172.004C100.645 175.486 94.5011 179.827 86.8009 179.827C77.1756 179.827 69.4753 173.233 68.4923 163.73H115.513C115.8 162.215 115.923 160.372 115.923 158.57C115.923 139.688 102.652 123.877 83.8928 123.877C63.7411 123.877 50.88 140.384 50.88 159.266C50.88 180.523 66.1167 194.531 86.3913 194.531ZM83.8928 138.582C91.3063 138.582 96.7539 144.439 97.3273 150.46H69.3524C70.1716 144.316 76.3564 138.582 83.8928 138.582ZM172.037 125.27L153.441 166.679L134.805 125.27H115.923L147.134 193.139H159.708L190.919 125.27H172.037ZM226.307 123.877C246.868 123.877 262.391 139.688 262.391 159.266C262.391 178.844 246.868 194.531 226.307 194.531C205.745 194.531 190.222 178.844 190.222 159.266C190.222 139.688 205.745 123.877 226.307 123.877ZM226.307 177.738C236.956 177.738 244.206 169.465 244.206 159.266C244.206 149.067 236.915 140.671 226.307 140.671C215.698 140.671 208.408 149.067 208.408 159.266C208.408 169.506 215.698 177.738 226.307 177.738ZM269.846 127.564V125.27H261.613V127.564H264.481V136.247H266.979V127.564H269.846ZM281.356 125.27L277.096 131.496L272.836 125.27H271.28V136.247H273.819V131.004L276.441 134.772H277.71L280.332 131.004V136.247H282.871V125.27H281.356Z" fill="#282828"/>
</svg>
