<?xml version="1.0" encoding="utf-8"?>
<!-- Generator: Adobe Illustrator 25.4.0, SVG Export Plug-In . SVG Version: 6.00 Build 0)  -->
<svg version="1.1" id="Layer_1" xmlns="http://www.w3.org/2000/svg" xmlns:xlink="http://www.w3.org/1999/xlink" x="0px" y="0px"
	 width="150px" height="150px" viewBox="0 0 150 150" style="enable-background:new 0 0 150 150;" xml:space="preserve">
<style type="text/css">
	.st0{fill:#030406;}
</style>
<g>
	<path class="st0" d="M138.8,92.6c-0.4-2-1.2-3.8-2.4-5.5c-0.4-0.5-0.8-1-1.3-1.5c-0.5-0.5-1-1-1.5-1.5c-0.1-0.1-0.1-0.2-0.1-0.3
		c0.2-1.4,0.4-2.8,0.5-4.2c0.1-1.3,0.1-2.6,0.2-3.9c0-1.1,0-2.2,0-3.3c-0.1-1.3-0.2-2.6-0.3-3.9c-0.1-1.5-0.4-3.1-0.7-4.6
		c-0.6-3.1-1.4-6.1-2.5-9.1c-2.3-6.2-5.5-11.8-9.7-16.8c-1.6-1.9-3.2-3.6-5-5.3c-5.6-5.2-11.9-9.1-19-11.8
		c-3.5-1.3-7.2-2.3-10.9-2.9c-2-0.3-4.1-0.5-6.1-0.7c-0.8,0-1.7-0.1-2.5-0.1c-0.5,0-1.1,0-1.6,0c-0.1-0.2-0.2-0.4-0.3-0.6
		c-0.4-0.8-1.1-1.3-2-1.3c-0.5,0-0.9,0-1.3,0.2c-0.5,0.2-1,0.5-1.5,0.8c-0.3,0.2-0.7,0.4-1,0.6c-0.3-0.2-0.6-0.5-0.8-0.7
		c-0.8-0.9-1.7-1.4-2.7-1.9c-0.2-0.1-0.5-0.2-0.8-0.2c-0.4,0-0.8-0.1-1.1-0.2c-0.3-0.1-0.6-0.1-0.8-0.2c-0.1,0-0.1,0-0.2-0.1h-1.1
		c-0.2,0-0.4,0.1-0.6,0.1c-1.1,0.2-2.1,0.6-3,1.3c-1.2,0.9-2.3,1.7-3.5,2.5c-0.1,0.1-0.2,0.2-0.4,0.2c-0.2,0.1-0.4,0.1-0.6,0.1
		c-0.3-0.1-0.6-0.1-0.9,0.1c-0.3,0.2-0.6,0.4-0.7,0.8c0,0.1-0.1,0.2-0.1,0.3c-0.2,0-0.4-0.1-0.6-0.1c-0.7-0.1-1.4,0-2,0.1
		c-1.5,0.3-2.9,0.9-4.2,1.5c-3.2,1.4-6.3,3.1-9.4,4.8c-2.8,1.5-5.4,3.3-8.1,5c-3.4,2.2-6.8,4.3-10.2,6.5c-0.4,0.2-0.8,0.5-1.2,0.7
		c-0.8,0.4-1.3,1.1-1.6,2c0,0.1-0.1,0.1-0.1,0.2v0.7c0,0.1,0.1,0.1,0.1,0.2c0.2,0.9,0.9,1.5,1.8,1.8c0.1,0,0.1,0,0.2,0.1
		c0.1,0,0.1,0,0.2,0.1c0,0.2,0,0.4,0,0.6c-0.2,0.1-0.4,0.2-0.6,0.3c-0.3,0.2-0.6,0.4-0.9,0.7c-0.5,0.5-0.6,1.3-0.3,1.9
		c0.2,0.4,0.4,0.7,0.7,1c0.8,0.9,1.9,1.6,2.9,2.2c0.5,0.3,1,0.6,1.6,0.8c0.1,0,0.1,0.1,0.2,0.1c1,0.7,2,1.3,2.9,2c0,0,0,0,0.1,0.1
		c-3.8,9.2-5.2,18.7-4.1,28.6c1.1,9.9,4.6,18.9,10.3,27.1c-0.1,0.1-0.3,0.2-0.4,0.2c-1.5,0.9-2.8,2-3.8,3.3c-0.7,1-1.3,2.1-1.5,3.3
		c-0.3,1.6-0.1,3.2,0.5,4.8c0.4,1.1,1.1,2.1,1.9,2.9c0.8,0.8,1.5,1.6,2.4,2.3c1.9,1.4,4,2.3,6.4,2.7c1.6,0.2,3.1,0.2,4.7-0.2
		c2.2-0.6,4.1-1.8,5.6-3.5c0.1-0.1,0.1-0.2,0.2-0.2c0,0,0.1,0,0.1,0c0.6,1,1.4,1.7,2.3,2.5c0.8,0.8,1.8,1.2,2.8,1.5
		c1,0.3,2.1,0.5,3.2,0.5c0.4,0,0.9,0,1.3,0c0.1,0,0.3,0,0.4,0.1c2.9,1.1,5.9,2,9,2.6c2.1,0.4,4.2,0.8,6.3,0.9c1,0.1,2.1,0.1,3.1,0.2
		c1.3,0.1,2.6,0.1,3.9,0.1c6.3-0.2,12.5-1.4,18.5-3.6c4-1.5,7.9-3.4,11.5-5.8c2.5-1.6,4.8-3.4,7-5.4c2.3-2.1,4.4-4.3,6.3-6.7
		c0.1-0.1,0.1-0.2,0.2-0.2c0.1,0,0.2,0,0.3,0.1c1,0.2,2,0,2.8-0.6c1.3-0.8,2.1-2,2.5-3.5c0.2-1,0-2-0.4-2.9
		c-0.1-0.2-0.1-0.3-0.2-0.5c0.2-0.4,0.4-0.7,0.6-1.1c0.2,0.2,0.4,0.4,0.6,0.6c0.4,0.3,0.8,0.6,1.2,0.9c0.1,0.1,0.2,0.1,0.2,0.2
		c0.5,0.5,0.9,1,1.4,1.5c0.3,0.3,0.6,0.3,1,0.1c0.2-0.2,0.5-0.3,0.7-0.5c0.1-0.1,0.2-0.1,0.3-0.1c2.3-0.1,3.9-1.4,5-3.3
		c0.7-1.2,1-2.4,1.2-3.7c0-0.3,0.1-0.6,0.1-0.9c0-0.2,0.1-0.3,0.2-0.5c0.3-0.2,0.6-0.5,1-0.7v-1c-0.4-0.6-0.9-1.1-1.3-1.7
		C138.9,92.9,138.9,92.7,138.8,92.6z M102.2,37.3c6.8,4.7,12,10.7,15.5,18.1c3.3,6.9,4.6,14.1,4.3,21.7c-0.1,0-0.2-0.1-0.2-0.1
		c-0.2-0.1-0.5-0.1-0.7,0c-1.2,0.7-2.4,0.8-3.7,0.7c-0.1,0-0.2,0-0.2,0c-0.1,0-0.2,0-0.3-0.1c-0.1-0.1,0.1-0.2,0.2-0.3
		c0.1-0.1,0.2-0.2,0.3-0.3c0.7-0.7,1.1-1.6,1.2-2.5c0.1-0.6,0-1.2-0.3-1.8c-0.2-0.3-0.4-0.6-0.7-0.8c-0.2-0.1-0.2-0.2-0.3-0.4
		c-0.7-1.5-1.3-3-2.2-4.5c-0.6-1.1-1.3-2.1-2-3.2c-1.4-2.1-2.8-4.2-4.3-6.1c-1.3-1.6-2.6-3.2-4.1-4.6c-1.3-1.2-2.6-2.3-3.8-3.5
		c-0.8-0.8-1.7-1.5-2.5-2.3c-0.9-0.8-1.8-1.7-2.6-2.6c-0.9-0.9-1.7-1.9-2.5-2.8c-0.3-0.3-0.5-0.7-0.6-1.2c0-0.1-0.1-0.3-0.2-0.4
		c-0.2-0.3-0.4-0.5-0.6-0.7c-0.2-0.2-0.4-0.4-0.7-0.4c-0.1-0.4-0.2-0.7-0.3-1.1c-0.1-0.3-0.3-0.6-0.6-0.9c-0.1-0.1-0.2-0.2-0.3-0.4
		c-0.4-0.9-0.9-1.9-1.3-2.8c-0.1-0.1-0.1-0.3-0.1-0.5c0-0.4,0-0.9-0.1-1.3c-0.1-0.5-0.3-0.9-0.7-1.1c-0.2-0.1-0.2-0.3-0.3-0.5
		C92.7,32,97.7,34.2,102.2,37.3z M100.2,58.7c1.7,2.1,3.3,4.3,4.8,6.5c1.4,2,2.7,4.1,3.9,6.2c0.3,0.6,0.6,1.3,0.9,1.9
		c0.4,0.9,0.8,1.8,1.2,2.7c0,0,0,0.1,0,0.1c-0.1,0.1-0.3,0-0.4,0c-0.7-0.2-0.7-0.2-1-0.9c-0.2-0.6-0.4-1.3-0.6-1.9
		c-0.2-0.7-0.6-1.4-1-2.1c-1.1-1.9-2.3-3.8-3.6-5.6c-2.9-4.2-6.1-8.3-9.5-12.3c-0.8-0.9-1.6-1.7-2.4-2.6c-0.3-0.3-0.6-0.6-0.9-0.9
		c-0.7-0.6-1.2-1.3-1.4-2.2c0-0.1,0-0.3,0-0.4c0-0.3,0-0.5-0.1-0.8c-0.1-0.1,0-0.3,0-0.5c0.1-0.3,0.2-0.5,0.4-0.8
		c0.2,0.2,0.4,0.4,0.5,0.6c0.1,0.1,0,0.3,0,0.4c-0.1,1,0.1,1.9,0.7,2.8c0.2,0.2,0.3,0.4,0.5,0.6c0.8,0.7,1.4,1.5,2.1,2.3
		c0.8,0.9,1.6,1.8,2.3,2.7c0.1,0.1,0.1,0.1,0.1,0.2c0,0,0,0,0.1,0c0-0.1-0.1-0.1-0.1-0.2c-1.3-1.7-2.5-3.4-3.8-5.1
		c-0.2-0.3-0.4-0.5-0.6-0.8C92.2,48.3,92,48,92,47.5c0-0.3,0-0.5,0.2-0.7c0,0,0.1,0.1,0.2,0.1c1.7,1.7,3.4,3.3,5.1,5
		c2.1,2.1,4,4.4,5.6,6.9c2.2,3.4,4.5,6.7,6.7,10.1c0.8,1.3,1.6,2.6,2.3,3.9c0.4,0.7,0.9,1.5,1.5,2.1c0.2,0.2,0.4,0.5,0.3,0.8
		c0,0.3-0.2,0.5-0.5,0.5c-0.2,0-0.4,0-0.5-0.1c-0.6-0.3-1-0.6-1.3-1.2c-0.4-0.9-0.9-1.7-1.4-2.6c-0.5-0.9-1-1.8-1.5-2.7
		c-2.3-3.4-4.7-6.7-7.4-9.8c-0.3-0.4-0.7-0.8-1-1.2c0-0.1-0.1-0.1-0.2-0.1C100,58.6,100.1,58.6,100.2,58.7z M78.1,84
		c-0.6-0.1-1.1,0.2-1.7,0.3c0-0.1,0-0.3,0-0.4c0.1-1.1-0.1-2-0.9-2.8c-0.4-0.4-0.7-0.7-1.2-1.1c1.4-0.2,2.5-0.8,3.4-1.8
		c0.1,0.1,0.3,0.1,0.4,0.1c0.5,0.2,1,0.4,1.5,0.5c0.8,0.2,1.5,0.1,2.3-0.2c0.6-0.2,1.1-0.4,1.7-0.7c0.9-0.4,1.8-0.8,2.6-1.3
		c0.5-0.3,1.1-0.6,1.6-0.9c0.8-0.6,1.3-1.4,1.4-2.4c0.1-0.7,0.1-1.4,0.3-2.1c0.1-0.3,0.2-0.7,0.3-1c0.2-0.6,0.5-1.1,0.9-1.5
		c0.2-0.2,0.3-0.4,0.5-0.6c0,0,0.1,0,0.1,0c1.1,0.4,2.1,0.9,2.9,1.8c0.2,0.3,0.4,0.6,0.5,0.9c0.1,0.4,0.2,0.7,0.4,1.1
		c0.1,0.3,0.3,0.6,0.4,0.8c0.2,0.3,0.4,0.4,0.8,0.5c-0.3-0.5-0.6-0.9-0.7-1.5c1,0,2.4,1.1,3,2.1c-0.1,0-0.2,0-0.3,0
		c-2.9,0.2-5.6,0.8-8.2,2.2c-1.4,0.8-2.8,1.7-4,2.7c-0.6,0.5-1.1,1.1-1.6,1.8c0,0.1-0.1,0.1-0.1,0.2c0,0-0.1,0-0.1,0.1
		c-0.3-0.2-0.6-0.3-1-0.5c-0.1-0.1-0.2-0.1-0.3-0.2c-0.4-0.2-0.7-0.1-1,0.3c-0.4,0.6-0.9,1.2-1.3,1.9c-0.1,0.2-0.3,0.3-0.5,0.4
		c-0.5,0.2-1,0.5-1.5,0.7C78.4,83.6,78.2,83.7,78.1,84z M79,86.5c0.2-0.1,0.5-0.3,0.6-0.5c0.1,0,0.2,0,0.3,0.1c0,0,0,0.1,0,0.1
		c-0.1,0.4-0.1,0.8-0.2,1.2c-0.4,1.9-0.8,3.9-1.2,5.8c0,0.1-0.1,0.2-0.1,0.3l-0.1,0c-0.1-0.5-0.2-1-0.3-1.5
		c-0.1-0.7-0.3-1.5-0.4-2.2c-0.1-1.1,0.1-2.1,0.9-3C78.7,86.7,78.8,86.6,79,86.5z M69.9,79.3c-0.1,0.1-0.2,0.1-0.3,0.2
		c-0.9,0.4-1.6,1-2.1,1.9c-0.3,0.6-0.4,1.2-0.2,1.9c0.1,0.4,0.3,0.7,0.6,1c0.3,0.3,0.6,0.6,0.9,0.9c0.5,0.5,1.1,0.8,1.9,0.8
		c0.1,0,0.2,0,0.3,0c0,0,0,0,0,0.1c-0.2,0.1-0.4,0.2-0.6,0.3c-0.8,0.3-1.7,0.4-2.5,0.4c-1,0-2-0.1-3-0.1c-1.1-0.1-2.3-0.2-3.4-0.2
		c-1.3,0-2.6,0-3.9,0.1c-1.9,0.2-3.7,0.7-5.4,1.6c-0.8,0.4-1.6,0.9-2.4,1.4c-0.1,0-0.1,0.1-0.2,0.1c-0.1-0.3-0.1-0.5-0.2-0.7
		c-0.2-0.6-0.3-1.3-0.5-1.9c-0.2-0.6-0.3-1.2-0.3-1.8c0-0.2,0-0.5,0-0.7c0-0.1,0-0.1-0.1-0.2c-0.4,1.4,0,2.8,0.3,4.2c0,0,0,0-0.1,0
		c-0.1-0.1-0.3-0.3-0.4-0.4c-0.6-0.7-1-1.6-1.4-2.5c-0.3-0.8-0.6-1.5-0.6-2.3c0-0.3,0-0.6,0-0.8c0-0.3,0.1-0.7,0.1-1
		c0-0.2,0.1-0.3,0.2-0.4c0.6-0.4,1.1-0.9,1.5-1.5c0.6-0.7,1.1-1.5,1.3-2.5c0-0.1,0-0.1,0-0.2c0,0,0,0.1-0.1,0.1
		c-0.6,1.5-1.6,2.7-2.9,3.6c-0.3,0.2-0.6,0.4-0.8,0.5c-0.3,0.2-0.6,0.2-0.9,0.3c-0.6,0-1.1,0-1.7-0.1c-0.4-0.1-0.8-0.4-1-0.8
		c-0.4-0.6-0.7-1.3-0.9-2c-0.3-1.1-0.5-2.3-0.5-3.4c0-1.2-0.1-2.4,0-3.7c0.1-1.4,0.2-2.9,0.3-4.3c0-0.3,0.1-0.6,0.1-0.9
		c0,0,0.1,0,0.1,0c0.6,0.5,1.2,1,1.7,1.4c0,0.1-0.1,0.2-0.1,0.3c-0.1,0.8-0.2,1.5-0.3,2.3c-0.2,1.6-0.3,3.2-0.2,4.8
		c0,0.6,0.1,1.3,0.2,1.9c0.2,1,0.3,1.4,1,2.1c-0.2,0.2-0.4,0.3-0.6,0.3c-0.2,0-0.4,0-0.5-0.2C42.2,79,42,78.8,42,78.6
		c-0.1-0.5-0.2-0.9-0.3-1.4c-0.1-0.8-0.1-1.6,0-2.4c0-0.1,0-0.1,0-0.3c-0.1,0.1-0.1,0.1-0.1,0.1c-0.4,1.3-0.6,2.6-0.2,3.9
		c0.1,0.3,0.2,0.5,0.4,0.8c0.3,0.4,0.7,0.5,1.2,0.4c0.5-0.1,0.8-0.5,1.1-0.8c0.5-0.7,0.9-1.4,1.3-2.2c0.8-1.7,1.3-3.5,1.8-5.3
		c0.1-0.5,0.3-1.1,0.4-1.6h0.2c0-0.1,0-0.3,0-0.4c0-0.5,0.1-1.1,0.2-1.6c0.1-0.5,0.2-1.1,0.2-1.6c0.1-1.9,0.2-3.9,0.1-5.9
		c0-0.8-0.1-1.7-0.3-2.5c-0.2-0.8-0.6-1.4-1.3-1.8c-0.6-0.4-1.2-0.4-1.9-0.3c0.1,0.2,0.1,0.3,0.1,0.4h0.7c-1.3,0.8-1.9,2-2.1,3.4
		c-0.5-0.3-0.9-0.6-1.4-0.9c0.3-1.1,0.8-2,1.7-2.7c0.6-0.5,1.3-0.6,2.1-0.5c1.4,0.1,2.6,0.7,3.7,1.5c0.1,0.1,0.3,0.2,0.4,0.3
		c0.7,0.5,1.1,1.2,1.3,2c0.2,1,0.2,1.9,0.2,2.9c0,1-0.1,2-0.3,3c0,0.1,0,0.2,0,0.4c0.5-0.7,1.3-2.9,0.7-6.4c0.1,0.1,0.2,0.2,0.3,0.3
		c1.4,1.9,3,3.5,4.9,4.7c0.8,0.5,1.6,1,2.6,1.3c0.4,0.1,0.7,0.4,0.9,0.7c0.7,1,1.6,1.9,2.5,2.7c0.5,0.4,1.1,0.8,1.7,1.2
		c-0.1,0-0.2,0.1-0.3,0.1c-0.2,0.1-0.3,0.2-0.5,0.3c-0.6,0.4-0.8,1-0.7,1.7c0.1,0.8,0.5,1.5,1,2.1c-0.1-0.1-0.1-0.2-0.2-0.3
		c-0.3-0.6-0.5-1.2-0.5-1.9c0-0.5,0.2-1,0.7-1.3c0.3-0.2,0.5-0.3,0.8-0.4c0.2-0.1,0.4-0.1,0.6,0c0.5,0.1,1.1,0.1,1.6-0.1
		c0.2,0.3,0.4,0.6,0.6,1c-0.2,0-0.3,0-0.4,0c-0.5-0.1-1-0.1-1.5,0c-0.8,0.2-1.3,0.8-1.3,1.6c0,1.2,0.5,2.1,1.3,2.8
		c0.6,0.6,1.4,1,2.2,1.4c1.3,0.6,2.6,1,4,1.2c0.9,0.1,1.8,0.1,2.6-0.3c0.6-0.2,1.1-0.2,1.7-0.1c0.3,0.1,0.5,0.1,0.9,0.2
		c-0.3,0.3-0.6,0.5-0.8,0.7c-0.7,0.5-1.5,0.8-2.3,0.9c-0.1,0-0.3,0-0.4,0c-1.1-0.6-2.2-0.6-3.4-0.4c-0.2,0-0.4,0-0.5,0
		c-0.4-0.1-0.8-0.3-1.2-0.4C69.1,78.9,69.4,79.1,69.9,79.3z M39.6,74.7c0.1,1.6,0.2,3.1,0.7,4.6c0.2,0.5,0.4,1.1,0.7,1.5
		c0.6,0.8,1.3,1.3,2.3,1.4c0.6,0.1,1.1,0.1,1.7,0c0,0,0,0.1,0,0.1c-0.1,1,0.2,2,0.5,2.9c0.4,1.1,0.9,2.1,1.5,3c0.3,0.4,0.6,0.8,1,1
		c0.1,0,0.1,0.2,0.2,0.2c0,0,0,0,0,0.1c0.1,0.6,0.1,0.5-0.4,0.8c-2.1-0.8-4.1-0.6-5.7,1.1c-0.1-0.1-0.1-0.1-0.2-0.2
		c-0.3-0.3-0.6-0.3-0.9,0c-0.1,0.1-0.3,0.2-0.4,0.3c-0.1,0.1-0.3,0.2-0.4,0.3c-1.9-0.8-3.9-1.2-5.9-0.8c-2.1-5.3-3.1-10.8-3.1-16.5
		c0-4.9,0.7-9.6,2.3-14.3c0.5,0.4,0.9,0.7,1.3,1.1c1.6,1.4,3.2,2.8,4.9,4.1C40,65.9,40,66,40,66.2c-0.1,1-0.2,1.9-0.3,2.9
		C39.5,71,39.5,72.9,39.6,74.7z M49.1,55c0,0.1,0.1,0.2,0.1,0.3c-0.1-0.1-0.2-0.1-0.3-0.1c-0.8-0.4-1.7-0.7-2.6-0.8
		c-1.7-0.2-3.1,0.4-4.1,1.8c-0.3,0.4-0.5,0.8-0.7,1.2c-1.7-1.2-3.3-2.4-5-3.6c3.2-6.1,7.6-11.3,13.1-15.4c0,0,0,0,0.1,0
		c0,0.1-0.1,0.2-0.1,0.3c-0.5,1.5-1,2.9-1.3,4.5c-0.1,0.7-0.2,1.3-0.3,2c-0.1,0.5-0.1,1.1-0.2,1.6C47.5,49.7,48,52.4,49.1,55z
		 M64.2,66.4c-0.9-1.6-1.7-3.2-2.4-4.9c-0.4-1-0.5-2-0.2-3c0.3-0.8,0.8-1.5,1.5-2c0.1-0.1,0.2-0.1,0.3-0.2c-1-1.3-2.1-2.6-3.1-3.9
		c0.3-0.1,0.6-0.1,0.8-0.1c1.6-0.3,3.1-1,4.6-1.7c2-0.9,3.8-2.1,5.6-3.3c3.1-2,6-4.2,8.8-6.5c0,0,0.1-0.1,0.2-0.1
		c0.1,0.1,0.3,0.2,0.4,0.3c2.5,2.2,4.3,4.8,5.3,7.9c0.2,0.7,0.4,1.5,0.6,2.2c0.1,0.4,0.3,0.7,0.6,1c0.2,0.2,0.4,0.3,0.6,0.4
		c0.2,0.1,0.4,0.3,0.5,0.4c0.4,0.5,0.8,1.1,1.1,1.7c0.4,0.7,0.5,1.5,0.2,2.3c-0.3,1-0.8,1.8-1.5,2.6c-0.6,0.7-1.3,1.3-2.2,1.7
		c0.4,0,0.9,0,1.3-0.2c0.1,0.1,0.2,0.3,0.3,0.4c0-0.2,0.1-0.3,0.2-0.5c0.2,0.3,0.3,0.6,0.5,0.9c0,0,0,0,0,0L88.3,61
		c0.2,0.3,0.3,0.6,0.4,0.9c0.1,0.3,0.2,0.6,0.4,0.9c0-0.4-0.1-0.8-0.1-1.2c-0.1-0.5-0.1-1.1-0.2-1.6c0-0.2,0.1-0.3,0.2-0.4
		c0.1,0.3,0.1,0.6,0.1,0.8c0.2,1,0.3,2.1,0.7,3.1c0.3,0.8,0.6,1.6,1,2.5c0.1,0.2,0.2,0.5,0.3,0.7c0.1,0.4,0,0.8-0.2,1.2
		c-0.1,0.1-0.2,0.3-0.3,0.4c-0.6,0.7-1,1.5-1.3,2.3c-0.3,0.8-0.4,1.7-0.5,2.5c0,0.2,0,0.4-0.1,0.6c-0.1,0.6-0.4,1.1-0.9,1.5
		c-0.4,0.3-0.8,0.6-1.3,0.8c-1,0.5-2,1-3,1.5c-0.3,0.2-0.7,0.3-1.1,0.4c-0.5,0.2-1,0.1-1.5,0c-0.4-0.1-0.8-0.3-1.2-0.5
		c-1.5-0.7-3.1-1-4.7-0.9c-0.7,0-1.3,0-2-0.1c-0.8-0.2-1.4-0.5-1.9-1.2c-0.3-0.3-0.5-0.7-0.7-1c-0.7-1.4-1.5-2.7-2.3-4
		c-0.1-0.1-0.1-0.2-0.1-0.3c0.3-0.1,0.3-0.1,0.4,0.1c0.5,0.8,1,1.6,1.4,2.4c0.1,0.1,0.1,0.2,0.2,0.3c-0.2-0.5-0.5-1-0.7-1.5
		c0,0,0,0,0,0c0.1,0.2,0.3,0.4,0.4,0.6c0,0,0,0,0.1,0c-0.2-0.4-0.4-0.9-0.7-1.3c0,0,0,0,0.1,0c0.3,0.4,0.6,0.9,0.9,1.3
		c0,0,0,0,0.1,0c-0.2-0.4-0.4-0.8-0.6-1.3c1,1.2,1.7,2.7,3,3.8c-1-1.4-1.9-2.8-2.9-4.2c0.4-0.1,0.4-0.1,0.7,0.2c0.7,1,1.4,2,2.1,3
		c0.3,0.4,0.6,0.8,1,1.1c0.2,0.2,0.3,0.3,0.5,0.4c0.5,0.3,1,0.2,1.2-0.4c0-0.1,0.1-0.1,0.1-0.2c0.1,0.1,0.1,0.2,0.2,0.3
		c0.2,0.4,0.5,0.8,0.8,1.1c0.5,0.3,0.8,0.4,1.3,0c0.1,0,0.2-0.1,0.3,0c0.4,0.1,0.7,0.1,1-0.1c0.2-0.1,0.3-0.1,0.5,0
		c0.5,0.1,0.9,0,1.4-0.1c0.1,0,0.3,0,0.5-0.1c0.2,0,0.4-0.1,0.7-0.2c0.3-0.1,0.3-0.4,0.4-0.6c0.4,0.1,0.8,0.2,1.2,0.1
		c0.5-0.1,0.7-0.3,0.7-0.8c0,0,0-0.1,0-0.1c0.2,0,0.4,0.1,0.6,0.1c0.5,0.1,0.6,0,0.7-0.6c0.1,0,0.2,0,0.3,0c0.3,0,0.4-0.1,0.4-0.4
		c0-0.2,0-0.4,0-0.5c0-0.1,0-0.3,0-0.5c0.1,0.1,0.3,0.3,0.4,0.4c0.2,0.2,0.3,0.2,0.6,0.1c0.4-0.2,0.6-0.5,0.5-0.9c0,0,0.1,0,0.1,0
		c0.6,0,0.7-0.2,0.8-0.7c0-0.2,0-0.4,0-0.5c0-0.2,0-0.3,0-0.5c0.1,0.1,0.1,0.2,0.2,0.3c0.1,0.1,0.2,0.3,0.4,0.2
		c0.2,0,0.3-0.2,0.3-0.3c0.1-0.4,0.1-0.8,0.2-1.2c0-0.3,0-0.6,0-0.9c0.1-0.1,0.3-0.1,0.4-0.2c0.1-0.1,0.1-0.3,0.1-0.5
		c-0.1-0.7-0.3-1.5-0.4-2.2c0-0.1-0.1-0.2-0.1-0.3c-0.1-0.1-0.2-0.3-0.4-0.3c-0.2,0-0.3,0.1-0.4,0.3c-0.1,0.1-0.1,0.3-0.1,0.4
		c-0.3-0.1-0.6-0.4-1-0.3c0.2,0.2,0.3,0.3,0.5,0.5c-0.4,0.2-0.6,0.6-0.6,1.1c-0.2-0.2-0.4-0.4-0.7-0.6c-0.2-0.2-0.5-0.3-0.7-0.5
		l0,0.1c0.3,0.4,0.5,0.8,0.8,1.2c-0.5,0.1-0.6,0.2-0.8,0.8c-0.1-0.1-0.1-0.2-0.2-0.3c-0.3-0.5-0.6-0.9-1.1-1.2
		c-0.1,0-0.2-0.1-0.3-0.1c0.2,0.3,0.4,0.7,0.6,1c0.2,0.3,0.4,0.7,0.6,1c0,0,0,0.1-0.1,0.1c-0.5,0-0.8,0.2-0.8,0.7c0,0.2,0,0.3,0,0.5
		c-0.3-0.1-0.6-0.3-0.9-0.2c-0.3,0.1-0.5,0.4-0.7,0.6c-0.2,0-0.4,0-0.6,0.1c-0.2,0.1-0.3,0.2-0.4,0.4c-0.2-0.4-0.5-0.9-0.7-1.4
		c0,0,0,0-0.1,0c0.1,0.5,0.2,1,0.3,1.5c-0.5-0.1-0.8,0.2-1.1,0.6c-0.3-0.3-0.5-0.6-0.7-0.9c0,0,0,0-0.1,0c0.1,0.3,0.1,0.7,0.2,1.1
		c-0.3-0.1-0.6-0.1-0.8,0.1c-0.2,0.2-0.3,0.5-0.4,0.8c-0.1-0.2-0.2-0.3-0.3-0.4c-0.2-0.3-0.4-0.3-0.7-0.2c-0.1,0-0.1,0.1-0.2,0.1
		c0-0.6,0-1.1,0.1-1.7c-0.4,0.5-0.6,1.1-0.6,1.8c-0.2-0.1-0.5-0.2-0.7,0c-0.2,0.2-0.3,0.4-0.4,0.6c0,0-0.1-0.1-0.2-0.2
		c-0.3-0.2-0.6-0.2-0.8,0.1c-0.1,0.2-0.2,0.3-0.2,0.5c0,0.1,0,0.1,0,0.2c-0.2-0.2-1.1-1.4-1.3-2c0.1-0.1,0.2-0.1,0.3-0.2
		c0.2,0.2,0.3,0.4,0.4,0.7c0,0,0,0,0.1,0c0-0.2-0.1-0.4-0.1-0.6c0.2,0,0.2,0,0.2-0.2c0,0,0.1,0,0.1,0c0,0,0.1,0,0.1,0
		c-0.1-0.3,0.1-0.5,0.3-0.7c0.1-0.1,0.2-0.3,0.2-0.5c-0.1,0-0.1,0.1-0.2,0.1c-0.4,0.2-0.7,0.4-1,0.6c-0.5,0.4-1,0.4-1.5,0.3
		c-0.8-0.2-1.6-0.2-2.5-0.2c-0.5,0-1.1,0-1.6,0.1c-0.5,0.1-0.9,0-1.1-0.5c-0.3-0.4-0.6-0.7-1-0.9c-0.2-0.1-0.4-0.1-0.6-0.1
		c0.7,0.4,1.1,1.1,1.7,1.7c-0.3,0.2-0.6,0.2-0.9,0.1c-0.4,0-0.8-0.2-1.2-0.3c-0.8-0.4-1.4-0.9-2-1.4c-0.8-0.7-1.5-1.5-2.2-2.4
		c-0.5-0.6-1-1.1-1.5-1.6C59.2,64,59.1,64,59,63.9c0.4,0,0.7,0,1,0.1c0.4,0.1,0.9,0.3,1.3,0.5c0.8,0.5,1.6,1.1,2.4,1.6
		c0.3,0.2,0.5,0.4,0.7,0.6C64.3,66.5,64.3,66.5,64.2,66.4z M89.2,64.1c0.1,0.1,0.1,0.2,0.2,0.3c0.1,0.4,0.2,0.7,0.2,1.1
		c0.1,0.2,0,0.4-0.2,0.6C89.1,65.5,89,64.5,89.2,64.1z M89.2,69.4c-0.1-0.1-0.2-0.2-0.2-0.2c-0.2-0.4-0.3-0.8-0.5-1.2
		c0-0.1,0-0.2,0-0.2c0.2-0.3,0.4-0.6,0.7-0.8C89.4,67.7,89.4,68.5,89.2,69.4z M89.1,66.4c-0.3,0.3-0.6,0.6-0.9,1
		c-0.2-0.6-0.4-1.1-0.4-1.7c0-0.2,0-0.3,0.1-0.5c0.1-0.2,0.2-0.2,0.4-0.1c0.1,0,0.1,0.1,0.1,0.2C88.8,65.6,89,66,89.1,66.4z
		 M87.2,69.2c0.3-0.3,0.6-0.6,0.9-0.8c0.1,0.3,0.2,1.8,0.1,2.3c-0.3,0.1-0.4,0-0.5-0.3C87.5,70,87.3,69.6,87.2,69.2z M87,71.8
		c-0.3-0.3-0.6-0.6-0.8-0.9c-0.1-0.1-0.1-0.3-0.1-0.4c-0.1-0.2,0.1-0.3,0.2-0.4c0.2-0.2,0.4-0.4,0.6-0.6c0.1,0.1,0.1,0.1,0.1,0.2
		c0.2,0.4,0.4,0.9,0.4,1.3C87.4,71.5,87.4,71.5,87,71.8z M88.1,67.7c-0.3,0.4-0.7,0.7-1,1.1c-0.2-0.5-0.4-1-0.5-1.4
		c0-0.2-0.1-0.5-0.1-0.7c0-0.3,0.2-0.4,0.5-0.2c0.1,0.1,0.2,0.2,0.3,0.3C87.6,67,87.8,67.3,88.1,67.7z M86.8,69.1
		c-0.4,0.3-0.7,0.7-1.1,1c-0.3-0.6-0.5-1.1-0.6-1.7c0-0.2,0-0.4,0.1-0.6c0.1-0.3,0.3-0.3,0.5-0.2c0.1,0.1,0.2,0.2,0.3,0.2
		C86.4,68.2,86.6,68.6,86.8,69.1z M81.4,72.8c0.4-0.2,0.8-0.3,1.3-0.5c0.2,0.3,0.5,0.6,0.8,0.8c0.1,0,0.1,0.2,0.2,0.2
		c0.2,0.4,0.1,0.6-0.3,0.7c-0.3,0.1-0.6,0-0.9-0.1C81.9,73.6,81.6,73.3,81.4,72.8z M81.5,74.6c-0.4,0.1-0.7,0.1-1-0.1
		c-0.4-0.3-0.8-0.7-1.1-1.2c0.5-0.1,1-0.2,1.5-0.3c0.3,0.3,0.5,0.6,0.8,0.9C82,74.1,81.9,74.5,81.5,74.6z M83,72.1
		C83,72.1,83,72.1,83,72.1c0.4-0.3,0.8-0.4,1.1-0.7c0,0.1,0.1,0.1,0.1,0.2c0.2,0.3,0.4,0.6,0.6,0.8c0.2,0.2,0.2,0.4,0.2,0.6
		C84.3,73.3,83.3,72.8,83,72.1z M84.5,71.3c0.4-0.3,0.8-0.5,1.2-0.8c0.1,0.7,0.2,1.4,0.2,2c-0.3,0.1-0.5,0-0.7-0.2
		C84.9,72.1,84.7,71.7,84.5,71.3z M85.4,70.3c-0.3,0.2-0.7,0.4-1.1,0.7c-0.2-0.3-0.4-0.6-0.5-0.9c-0.1-0.3-0.2-0.5-0.3-0.8
		c0-0.1,0-0.2,0-0.2c0-0.4,0.3-0.6,0.6-0.5c0.3,0.1,0.5,0.2,0.7,0.4C85.1,69.3,85.3,69.8,85.4,70.3z M84,71.2
		c-0.4,0.2-0.7,0.4-1,0.6c-0.2-0.5-0.4-1-0.6-1.5c-0.1-0.3-0.1-0.6,0.1-0.9c0.1-0.2,0.3-0.3,0.5-0.1c0.1,0.1,0.1,0.1,0.2,0.2
		C83.6,70,83.8,70.6,84,71.2z M82.7,71.9c-0.5,0.3-0.9,0.5-1.4,0.6c-0.2-0.6-0.5-1.2-0.5-1.8c0-0.2,0-0.4,0.1-0.6
		c0.2-0.5,0.6-0.5,0.9-0.1c0.2,0.2,0.3,0.5,0.5,0.8C82.4,71,82.5,71.5,82.7,71.9z M80.9,72.5c-0.5,0.2-1,0.3-1.6,0.3
		c-0.2-0.6-0.3-1.3-0.2-1.9c0-0.1,0-0.1,0-0.2c0.1-0.4,0.5-0.5,0.8-0.2c0.1,0.1,0.1,0.1,0.2,0.2C80.5,71.3,80.7,71.9,80.9,72.5z
		 M79.1,73.3c0.4,0.6,0.7,1.1,1.3,1.5c-0.8,0.5-2.2-0.3-2.5-1.3C78.3,73.4,78.7,73.3,79.1,73.3z M77.7,73.1
		c-0.1-0.6-0.3-1.1-0.2-1.7c0-0.2,0.1-0.5,0.2-0.6c0.1-0.3,0.3-0.2,0.5,0c0.1,0.1,0.1,0.2,0.2,0.3c0.3,0.6,0.5,1.2,0.6,1.9
		C78.5,73,78.1,73.1,77.7,73.1z M77.5,73.4c0.3,0.6,0.6,1.1,1.2,1.5c-0.4,0.1-0.7,0.1-0.9,0c-0.2-0.1-0.4-0.3-0.6-0.5
		c-0.3-0.3-0.4-0.6-0.6-1c0.2,0,0.3,0,0.5,0C77.1,73.4,77.3,73.4,77.5,73.4z M76.3,73c0-0.3-0.1-0.6-0.1-0.9c0-0.3,0-0.5,0.1-0.8
		c0-0.2,0.1-0.3,0.2-0.4c0.3,0.3,0.7,1.2,0.8,2.3C76.9,73,76.6,73,76.3,73z M77.3,75.1c-0.2,0.2-0.5,0.2-0.7,0.1
		c-0.1-0.1-0.3-0.2-0.4-0.3c-0.5-0.5-0.8-1-1-1.7c0.3,0,0.6,0.1,0.8,0.1C76.3,74,76.7,74.6,77.3,75.1z M75.2,72.8
		c-0.1,0-0.2-0.1-0.2-0.2c0-0.4,0-0.7,0-1.1c0-0.1,0.1-0.1,0.1-0.2c0.1-0.1,0.2-0.1,0.3,0c0,0,0.1,0.1,0.1,0.1
		c0.2,0.3,0.4,1,0.4,1.5C75.6,72.9,75.4,72.9,75.2,72.8z M89.8,66.3c0,0.2,0,0.4,0.1,0.6C89.6,66.5,89.6,66.5,89.8,66.3z M96.1,70.7
		c-0.1,0-0.2-0.1-0.3-0.2c-0.6-1.4-1.8-2.4-3.2-3c-0.2-0.1-0.3-0.1-0.5-0.2c0-0.8-0.3-1.5-0.6-2.2c-0.4-0.9-0.8-1.8-1-2.8
		c-0.2-0.9-0.3-1.9-0.5-2.8c0-0.2,0-0.4,0.1-0.6c0.4-0.8,0.7-1.6,0.8-2.5c0.1-0.6-0.1-1.1-0.3-1.6c-0.4-0.9-0.9-1.7-1.5-2.5
		c-0.2-0.3-0.3-0.5-0.4-0.9c-0.5-2.6-1.3-5.1-2.6-7.4c-0.1-0.2-0.2-0.3-0.2-0.5c0.3,0.1,0.7,0.3,1,0.4c0.1,0.1,0.3,0.2,0.4,0.3
		c0.3,0.3,0.5,0.7,0.8,1.1c0.3,0.3,0.6,0.5,1,0.8c0.1,0.3,0.1,0.6,0.2,1c0,0,0,0.1,0,0.1c0,1.2,0.5,2.1,1.2,3
		c0.2,0.3,0.5,0.5,0.8,0.8c0.9,0.7,1.6,1.6,2.4,2.4c3.6,4.2,7,8.5,10.1,13c1.1,1.5,2.1,3.1,3,4.7c0.1,0.1,0.2,0.3,0.2,0.4
		c-0.1,0.1-0.2,0.2-0.3,0.2c-0.1,0-0.2,0.1-0.3,0.1c-1-0.2-2,0.1-2.7,0.7c-0.8,0.7-1.7,0.9-2.6,0.8c-0.4,0-0.7-0.1-1.1-0.2
		c-0.5-0.1-0.9-0.3-1.2-0.7C98.1,71.5,97.2,71,96.1,70.7z M103.3,74c0.3-0.2,0.6-0.4,0.9-0.6c0.3-0.2,0.5-0.4,0.8-0.5
		c0.4-0.2,0.8-0.2,1.3,0c-0.3,0.6-0.6,1.1-1,1.7c-0.7-0.2-1.5-0.3-2.2-0.5C103.2,74,103.3,74,103.3,74z M108,72.1
		c0.2,0.5,0.4,0.9,0.6,1.4c-0.3,0.2-0.6,0.4-0.8,0.7c-0.2,0.2-0.4,0.5-0.6,0.8c-0.4-0.1-0.8-0.2-1.3-0.3
		C106.1,73.8,107.2,72.4,108,72.1z M108.5,75.2c0,0.1,0,0.1,0.1,0.2c-0.1,0-0.1,0-0.3,0C108.4,75.3,108.4,75.3,108.5,75.2z
		 M115.8,73.8c-0.2-0.1-0.3-0.2-0.4-0.3c-0.7-0.9-1.4-1.8-2-2.7c-1.2-1.8-2.3-3.6-3.4-5.5c-0.9-1.5-2-2.9-3.2-4.3
		c-1.7-2-3.5-3.8-5.4-5.6c-0.8-0.8-1.6-1.6-2.4-2.5c-1.3-1.4-2.6-2.7-4-4.1c-0.8-0.8-1.6-1.5-2.4-2.3c-0.3-0.3-0.6-0.5-0.8-0.7
		c-1-0.9-1.6-2.1-1.9-3.4c-0.1-0.3-0.1-0.7-0.2-1c0-0.1,0-0.3,0-0.4c0.1-0.5,0.6-0.9,1.1-0.7c0.1,0,0.1,0.1,0.2,0.1
		c0.3,0.3,0.5,0.6,0.6,1c0.1,0.4,0.3,0.8,0.6,1.1c0.7,0.8,1.4,1.7,2.2,2.5c2.1,2.3,4.5,4.4,6.8,6.5c1.1,1,2.3,2.1,3.4,3.2
		c1.7,1.6,3.1,3.4,4.5,5.3c1.7,2.3,3.3,4.7,4.8,7.2c0.7,1.1,1.3,2.4,1.8,3.6c0.3,0.6,0.5,1.2,0.8,1.8c0.2,0.4,0.3,0.8,0.2,1.2
		c0,0.2,0,0.4-0.2,0.6c-0.3-1.8-1-3.3-1.9-4.8C115.2,70.9,115.6,72.3,115.8,73.8z M113.5,72.3c-0.3,0.3-0.5,0.5-0.8,0.7
		c-0.4-0.6-0.7-1.2-1-1.8C112.5,71.4,113.1,71.6,113.5,72.3z M111.6,70.1c-1.6-2.5-3.3-5-4.9-7.4c0-0.1-0.1-0.1-0.1-0.2
		c0,0,0,0,0.1-0.1c0.4,0.5,0.8,1,1.2,1.5c0.7,0.9,1.3,1.9,1.8,2.8c0.6,1.1,1.3,2.1,2,3.2c0.1,0.1,0.1,0.2,0.1,0.3
		C111.7,70.1,111.7,70.1,111.6,70.1z M113.7,76.8C113.8,76.8,113.8,76.7,113.7,76.8c0.8-0.8,0.8-1.5,0.1-2.2
		c-0.3-0.3-0.6-0.7-0.8-1.1c0.1-0.2,0.3-0.3,0.4-0.4c0.3,0.4,0.6,0.8,0.9,1.2c0.3,0.4,0.7,0.7,1.2,0.8c0.8,0.2,1.7-0.4,1.7-1.2
		c0-0.3,0-0.6,0-0.9c0.2,0.2,0.2,0.4,0.3,0.6c0.1,0.5,0,0.9-0.1,1.3c-0.3,0.8-0.8,1.4-1.5,1.9c-0.7,0.5-0.7,0.5-1.5,0.3
		c-0.2-0.1-0.5-0.1-0.8-0.2C113.7,76.9,113.7,76.9,113.7,76.8z M87.4,32.8c0,0.4,0,0.7,0,1.1c0,0.1,0,0.3,0.1,0.4
		c0.5,1.1,1.1,2.3,1.6,3.4c0.1,0.1,0.2,0.3,0.3,0.3c0.4,0.2,0.5,0.6,0.5,1c0,0.1,0,0.3,0,0.4c0,0.3,0,0.5-0.3,0.7
		c-0.3,0.2-0.4,0.5-0.5,0.8c-0.1-0.2-0.3-0.3-0.4-0.4c-0.5-0.7-0.8-1.4-1-2.3c-0.1-0.3-0.1-0.6-0.2-0.9c-0.1-0.9-0.5-1.7-0.9-2.4
		c-0.2-0.4-0.5-0.8-0.8-1.2c-0.1-0.1-0.1-0.2-0.2-0.3c0.4-0.5,0.8-0.9,1.3-1.2C87.4,32.4,87.4,32.6,87.4,32.8z M87.3,40.3
		c-0.1-0.1-0.1-0.2-0.1-0.4c0.1-0.2,0.3-0.2,0.4,0c0.2,0.3,0.5,0.6,0.7,0.9c0.2,0.3,0.5,0.5,0.8,0.7c0.1,0.4,0.2,0.9,0.3,1.4
		c-0.2,0.1-0.4,0.1-0.5,0c-0.2-0.1-0.5-0.3-0.6-0.6C88.1,41.7,87.7,41,87.3,40.3z M87.4,41.3C87.4,41.3,87.4,41.3,87.4,41.3
		c-0.5-0.4-0.9-0.8-1.3-1.2c0,0,0,0,0-0.1c0.2,0.1,0.5,0.1,0.7,0.2c0,0,0.1,0,0.1,0.1C87.1,40.6,87.3,40.9,87.4,41.3z M85.5,34
		c0,0,0-0.1,0-0.1c0,0,0.1,0.1,0.1,0.1c0.5,0.7,1,1.5,1.3,2.3c0.1,0.4,0.2,0.8,0.3,1.2c0.1,0.4,0.2,0.8,0.2,1.2
		c-0.6-0.6-1.1-1.1-1.6-1.6c-0.2-0.2-0.3-0.3-0.5-0.5c-0.1-0.1-0.1-0.2-0.1-0.3C85.4,35.5,85.4,34.7,85.5,34z M85.4,32.8
		C85.4,32.8,85.5,32.7,85.4,32.8c0.1,0,0.2,0,0.3,0c-0.1,0.1-0.1,0.1-0.2,0.2C85.5,32.9,85.5,32.9,85.4,32.8z M86.5,31.1
		c0.2,0.2,0.2,0.3,0.1,0.5c-0.1,0.2-0.3,0.4-0.4,0.6c-0.1,0.1-0.2,0.2-0.4,0.2c-0.3-0.1-0.4-0.2-0.4-0.4c0-0.5-0.1-0.9-0.1-1.4
		c0-0.1,0-0.3,0-0.5C85.7,30.5,86.2,30.8,86.5,31.1z M85.3,37.2c0.1,0,0.1,0,0.2,0.1c0.5,0.6,1.1,1.1,1.6,1.7
		c0.1,0.1,0.2,0.3,0.2,0.4c0.1,0.3-0.1,0.4-0.4,0.4c-0.1,0-0.1,0-0.2,0c-0.6-0.1-1.1-0.3-1.6-0.6c0,0-0.1,0-0.1-0.1
		C85.1,38.5,85.2,37.9,85.3,37.2z M84.9,39.7c0.1,0.1,0.3,0.1,0.4,0.2c0.5,0.4,0.9,0.7,1.4,1.1c0.6,0.6,1.1,1.2,1.6,1.8
		c0.1,0.1,0.3,0.3,0.4,0.4c0.2,0.2,0.5,0.3,0.8,0.2c0.1,0,0.1,0,0.2-0.1c0.2,0.5,0.5,1,0.7,1.4c0,0.1-0.1,0.1-0.1,0.2
		c-0.2,0.3-0.3,0.3-0.7,0.2c-0.4-0.1-0.7-0.4-1-0.8c-0.2-0.2-0.4-0.5-0.5-0.7c-0.2-0.4-0.5-0.6-0.9-0.8c-0.2-0.1-0.5-0.2-0.7-0.3
		c-0.7-0.2-1.3-0.6-1.8-1.2c-0.1-0.1-0.2-0.2-0.1-0.4C84.7,40.7,84.8,40.2,84.9,39.7z M83.5,32c0.1,0.3,0.1,0.6-0.1,0.8
		C83.4,32.6,83.4,32.3,83.5,32z M70.3,17.9c0.6-0.4,1.2-0.9,1.8-1.3c0.7-0.5,1.8-0.5,2.3,0.5c1,1.9,2.1,3.7,3.2,5.6
		c0,0.1,0.1,0.2,0.1,0.3c-0.1,0-0.2,0-0.2,0c-0.1-0.1-0.1-0.2-0.2-0.2c-0.6-0.7-1.1-1.5-1.7-2.2c0.2,0.4,0.4,0.8,0.7,1.2
		c0.2,0.4,0.5,0.8,0.7,1.2c0,0,0,0-0.1,0c-0.9-1.3-1.8-2.6-2.7-3.9c0,0,0,0,0,0c0,0.1,0,0.1,0.1,0.2c0.7,1.2,1.5,2.4,2.2,3.6
		c0.1,0.1,0.2,0.2,0.3,0.3c0.9,0.4,1.6,1.1,2.2,2c0.3,0.4,0.5,0.8,0.9,1.2c0.5,0.5,0.8,1.1,1.1,1.6c0,0.1,0.1,0.2,0.1,0.3
		c0-0.4-0.3-1.2-0.7-1.9c-0.3-0.6-0.8-1.2-1.3-1.7c0.4,0.1,1.1,0.7,1.7,1.5c0.5,0.6,0.9,1.2,1.2,1.9c-0.2-1.3-0.8-2.4-1.5-3.5
		c0.1,0,0.1,0.1,0.1,0.1c0.8,0.7,1.5,1.4,2,2.4c0.1,0.2,0.2,0.5,0.3,0.7c0.1,0.5,0.3,1,0.3,1.5c0,0.4,0,0.9-0.1,1.3
		c-0.1,0.9-0.3,1.8-0.6,2.7c0,0.1,0,0.1-0.1,0.2c0-0.7,0.1-1.3,0.1-1.9c0-0.6,0-1.2-0.2-1.9c-0.1,0.8-0.2,1.5-0.3,2.3
		c-0.1,0.8-0.3,1.5-0.6,2.2c0.2-1.3,0.3-2.5,0-3.8c0.1,3.6-0.5,7.1-2.2,10.4c0.9-3,1.5-6.1,1.2-9.3c0,0.1,0,0.2-0.1,0.3
		c-0.1,1.1-0.2,2.3-0.3,3.4c-0.1,0.9-0.2,1.7-0.4,2.6c0.1-1,0.2-2,0.3-3c0,0,0,0-0.1,0c0,0.1-0.1,0.3-0.1,0.4c0,0.1-0.1,0.3-0.2,0.4
		c0.3-1.6,0.4-3.2-0.1-4.7c0.1,1.8-0.2,3.5-0.8,5.2c0.1-0.5,0.1-1.1,0.2-1.6c0-0.5,0-1.1,0-1.6c0-0.5-0.1-1.1-0.3-1.6
		c0.1,1.9-0.2,3.7-0.8,5.5c0.3-1.7,0.4-3.4-0.1-5.1c0.1,1,0.1,1.9-0.1,2.9c-0.1,1-0.3,1.9-0.6,2.9c0.3-1.7,0.4-3.5-0.1-5.2
		c0.2,2-0.1,3.9-0.7,5.8c0.2-1.4,0.3-2.9,0.1-4.3c-0.1-0.4-0.2-0.8-0.3-1.2c0,0.1,0,0.1,0,0.2c0.1,0.9,0.1,1.8,0.1,2.8
		c0,0.2,0,0.4,0,0.6c0,2-0.2,3.9-0.8,5.8c-0.2,0.8-0.6,1.5-1,2.2c0,0.1-0.1,0.1-0.1,0.1c1.1-3.2,1.7-6.5,1.2-10
		c0,1.6-0.2,3.2-0.6,4.8c0.1-0.6,0.1-1.2,0.2-1.9c0-0.6,0-1.3-0.1-1.9c-0.1-0.6-0.2-1.3-0.4-1.8c0.3,2.1,0.2,4.1-0.3,6.1
		c0.2-1.9,0.2-3.8-0.5-5.7c0.4,2.1,0.3,4.2-0.2,6.3c0.2-2,0.1-4-0.6-5.9c0.5,2.1,0.4,4.3-0.1,6.4c0.2-2,0.1-4-0.7-5.9
		c0.5,2.1,0.4,4.2,0,6.4c0.1-2,0-3.9-0.7-5.8c0.5,2.1,0.5,4.1,0.1,6.2c0.1-1.9-0.1-3.8-0.8-5.6c0.5,2,0.5,4.1,0.2,6.2
		c0-0.6,0-1.3,0-1.9c-0.1-0.7-0.2-1.3-0.3-2c-0.1-0.6-0.3-1.3-0.6-1.9c0.6,2,0.6,4.1,0.4,6.2c0-2-0.3-3.9-1.1-5.7
		c0.6,2,0.8,4,0.5,6.1c-0.1-1.9-0.3-3.8-1.2-5.5c0.3,1,0.5,1.9,0.6,2.9c0.1,1,0.2,2,0,3c-0.1-1.9-0.4-3.8-1.3-5.5
		c0.7,1.9,0.9,3.9,0.8,5.9c0-0.2,0-0.4-0.1-0.5c-0.1-1.5-0.4-3-1.1-4.4c-0.1-0.2-0.1-0.3-0.2-0.4c0.7,1.9,0.9,3.8,0.9,5.8
		c-0.1-0.9-0.2-1.8-0.5-2.6c-0.2-0.9-0.5-1.7-1-2.5c0,0.1,0.1,0.2,0.1,0.3c0.5,1.4,0.8,2.8,0.9,4.3c0,0.4,0.1,0.9,0.1,1.3
		c0.1,1.1,0,2.2-0.3,3.2c0,0.1-0.1,0.3-0.2,0.5c0.1-0.5,0.1-0.9,0.2-1.3c0-0.7-0.1-1.5-0.3-2.2c-0.1-0.4-0.1-0.8-0.2-1.1
		c-0.2-1.2-0.6-2.4-1.2-3.6c0-0.1-0.1-0.2-0.1-0.3c0,0,0,0-0.1,0c0.7,1.7,1,3.5,1.1,5.3c-0.3-1.7-0.8-3.4-1.7-4.9
		c0.7,1.7,1.1,3.5,1.3,5.3c-0.1-0.3-0.1-0.5-0.2-0.8c-0.1-0.3-0.1-0.5-0.2-0.8c-0.2-0.9-0.6-1.8-1-2.6c-0.1-0.1-0.2-0.3-0.3-0.4
		c0.7,1.6,1.1,3.2,1.3,5c-0.2-0.8-0.4-1.6-0.7-2.3c-0.3-0.8-0.6-1.5-1-2.2c0.3,0.8,0.6,1.5,0.8,2.3c0.2,0.8,0.4,1.6,0.5,2.4
		c-0.4-1.5-0.9-3-1.8-4.3c0.7,1.4,1.2,3,1.4,4.6c-0.4-1.4-0.9-2.7-1.7-3.9c0.6,1.3,1.1,2.7,1.3,4.1c-0.4-1.2-0.9-2.3-1.5-3.4
		c-0.1-0.1-0.1-0.2-0.2-0.2c0.6,1.2,1.1,2.5,1.3,3.8c-0.5-1.2-1-2.3-1.7-3.3c0.6,1.2,1.1,2.4,1.4,3.7c-0.2-0.5-0.5-1.1-0.7-1.6
		c-0.3-0.5-0.6-1-0.9-1.5c0.5,1,1,2.1,1.2,3.2c-0.2-0.5-0.5-1-0.7-1.4c-0.3-0.5-0.5-0.9-0.9-1.3c0.5,1,0.9,1.9,1.2,3
		c-0.1-0.3-0.3-0.6-0.4-0.9c-0.2-0.3-0.3-0.6-0.5-0.9c-0.2-0.3-0.4-0.5-0.6-0.8c0.5,0.9,0.9,1.8,1.2,2.7c-0.2-0.4-0.4-0.8-0.7-1.2
		c-0.2-0.4-0.5-0.7-0.8-1.1c0.4,0.8,0.9,1.6,1.1,2.5c-0.3-0.5-0.7-1-1-1.5c0,0,0,0-0.1,0c0,0.1,0.1,0.2,0.1,0.3
		c0.2,0.4,0.4,0.8,0.5,1.3c0.1,0.4,0.1,0.8,0.2,1.1c0,0.4,0.1,0.8,0.1,1.2c0-0.1-0.1-0.3-0.1-0.4c-0.5-1.6-1.1-3.1-2-4.5
		c-0.7-1-1.5-1.9-2.7-2.4c-1.1-0.5-2.2-0.6-3.3-0.3c-0.3,0.1-0.6,0.3-0.9,0.4c0.1-0.1,0.2-0.2,0.3-0.3c1.1-0.8,2.3-0.9,3.6-0.5
		c0.2,0.1,0.4,0.2,0.6,0.3c0.7,0.4,1.3,0.8,2,1.2c0,0,0.1,0,0.2,0c-0.7-0.7-1.4-1.3-2.2-1.8c0.8,0.2,1.6,0.6,2.3,1.1
		c-0.1-0.2-0.3-0.4-0.5-0.5c-0.2-0.2-0.4-0.3-0.6-0.5c-0.2-0.2-0.4-0.3-0.7-0.4c-0.2-0.1-0.4-0.2-0.7-0.4c0.7,0.1,1.3,0.4,2.8,1.3
		c-0.8-0.8-1.7-1.5-2.9-2c0.4,0,1,0.2,1.7,0.5c0.5,0.3,1,0.6,1.5,0.9c-0.9-0.9-1.9-1.6-3.1-2.1c1.2,0.2,2.3,0.7,3.3,1.5
		c-0.1-0.3-0.7-0.8-1.5-1.3c-0.6-0.3-1.2-0.6-1.7-0.9c0.8,0,2,0.6,3.6,1.6c-0.2-0.3-0.5-0.5-0.8-0.7c-0.3-0.2-0.6-0.4-0.9-0.6
		c-0.3-0.2-0.6-0.4-0.9-0.5c-0.3-0.2-0.7-0.3-1-0.4c1.5,0.2,2.7,0.8,3.9,1.7c-0.5-0.6-1.1-1-1.7-1.4c-0.6-0.4-1.3-0.7-2-1
		c1.5,0.2,2.8,0.8,4,1.7c-0.3-0.4-0.7-0.7-1.1-1c-0.4-0.3-0.9-0.6-1.3-0.8c-0.4-0.2-0.9-0.4-1.4-0.6c1.6,0.2,2.9,0.9,4.2,1.8
		c-1-1-2.2-1.8-3.5-2.3c0.2-0.1,0.3-0.1,0.5,0c1.2,0.3,2.2,0.8,3.2,1.5c0.1,0.1,0.2,0.1,0.3,0.2c-0.9-0.9-1.9-1.6-3.1-2.1
		c0.1-0.2,0.3-0.2,0.4-0.1c0.5,0.2,1,0.4,1.5,0.6c0.6,0.3,1.2,0.7,1.8,1.1c-0.9-0.9-1.9-1.6-3-2.1c0.1-0.2,0.3-0.2,0.4-0.1
		c0.7,0.2,1.4,0.6,2,1c0.4,0.2,0.7,0.5,1.1,0.7c-0.8-0.9-1.7-1.5-2.7-2c0.2-0.3,0.2-0.3,0.5-0.2c0.7,0.3,1.3,0.6,1.9,1
		c0.1,0.1,0.2,0.1,0.3,0.2c-0.5-0.7-1.3-1.1-2-1.5c0.3-0.3,0.3-0.3,0.6-0.1c0.9,0.4,1.7,0.9,2.4,1.5c0,0,0.1,0.1,0.1,0.1
		c-0.7-0.8-1.5-1.4-2.3-1.9c0.2-0.3,0.3-0.3,0.6-0.2c0.8,0.4,1.5,0.8,2.2,1.4c0.1,0,0.1,0.1,0.2,0.1c0,0,0,0,0,0
		c-0.6-0.7-1.4-1.3-2.2-1.8c0.3-0.3,0.3-0.3,0.6-0.2c0.7,0.3,1.3,0.7,1.9,1.2c0.1,0,0.1,0.1,0.2,0.1c0,0,0,0,0.1,0
		c-0.3-0.4-0.6-0.7-1-0.9c-0.3-0.3-0.7-0.5-1.1-0.8c0.1-0.1,0.3-0.2,0.4-0.3c0.9,0.4,1.6,1,2.4,1.6c-0.6-0.7-1.2-1.3-2-1.8
		c0.4-0.3,0.4-0.3,0.8-0.1c0.7,0.4,1.3,0.8,1.8,1.4c0,0,0.1,0.1,0.1,0.1c0,0,0,0,0,0c-0.3-0.3-0.6-0.6-0.9-0.9
		c-0.3-0.3-0.7-0.6-1-0.9c0.3-0.3,0.3-0.4,0.7-0.1c0.6,0.4,1.2,0.8,1.8,1.3c0.1,0.1,0.1,0.1,0.2,0.1c-0.2-0.4-0.5-0.7-0.9-1
		c-0.3-0.3-0.7-0.6-1-0.9c0.1-0.1,0.3-0.2,0.4-0.3c0.8,0.4,1.5,1,2.1,1.6c-0.5-0.7-1.1-1.2-1.8-1.8c0.2-0.1,0.3-0.2,0.4-0.3
		c0.9,0.5,1.6,1.1,2.3,1.8c-0.5-0.8-1.2-1.4-1.9-2c0.1-0.1,0.1-0.1,0.2-0.2c0.2-0.2,0.3-0.1,0.5,0c0.6,0.4,1.2,0.8,1.6,1.3
		c0.1,0.1,0.2,0.2,0.3,0.3c-0.2-0.4-0.5-0.8-0.8-1.1c-0.3-0.3-0.7-0.6-1-0.9c0.1,0,0.1-0.1,0.2-0.1c0.2-0.1,0.3-0.1,0.5,0
		c0.7,0.5,1.3,1,1.9,1.6c0.1,0.1,0.1,0.1,0.2,0.1c-0.5-0.8-1.1-1.5-1.9-2.1c0.1-0.1,0.1-0.1,0.2-0.2c0.1-0.1,0.3-0.1,0.4,0
		c0.8,0.5,1.4,1.1,2,1.8c0,0,0,0.1,0.1,0.1c0,0,0,0,0.1,0c-0.1-0.2-0.3-0.4-0.4-0.6c-0.2-0.2-0.3-0.4-0.5-0.6
		c-0.2-0.2-0.3-0.3-0.5-0.5c-0.2-0.2-0.4-0.3-0.6-0.5c0.1-0.1,0.1-0.1,0.2-0.1c0.1-0.1,0.3-0.1,0.4,0c0.7,0.5,1.4,1.1,2,1.7
		c0.1,0.1,0.1,0.2,0.2,0.2c-0.5-0.9-1.2-1.7-2-2.4c0.3-0.3,0.3-0.3,0.7-0.1c0.5,0.3,0.9,0.7,1.3,1.1c0.1,0,0.1,0.1,0.2,0.1
		c0,0,0,0,0.1,0c-0.2-0.3-0.5-0.6-0.7-0.8c-0.1-0.1-0.3-0.1-0.2-0.3c0,0-0.1-0.1-0.1-0.1c-0.1-0.1-0.2-0.2-0.4-0.3
		c0.1-0.1,0.2-0.2,0.3-0.2c1,0.6,1.9,1.4,2.7,2.4c-0.5-1.1-1.3-1.9-2.2-2.7c0.1-0.1,0.2-0.1,0.3-0.2c1.1,0.7,2,1.5,2.8,2.6
		c-0.2-0.6-0.5-1.1-0.9-1.6c-0.4-0.5-0.8-0.9-1.3-1.4c0.1,0,0.1-0.1,0.2-0.2c1.2,0.7,2.2,1.6,3,2.8c0-0.4-0.4-1.1-1-1.8
		c-0.4-0.5-0.9-1-1.3-1.5c0.1-0.2,0.2-0.1,0.3,0c0.5,0.4,1,0.7,1.4,1.1c0.6,0.5,1.1,1.1,1.5,1.8c0-0.3-0.2-0.5-0.3-0.7
		c-0.1-0.2-0.3-0.5-0.4-0.7c-0.2-0.2-0.3-0.5-0.5-0.7c-0.2-0.2-0.4-0.4-0.6-0.6c-0.2-0.2-0.4-0.4-0.6-0.6c0.1-0.2,0.2-0.1,0.3,0
		c0.4,0.3,0.8,0.5,1.2,0.8c0.8,0.6,1.4,1.4,1.9,2.2c0,0,0.1,0.1,0.1,0.1c-0.5-1.5-1.4-2.7-2.6-3.8c1.2,0.6,2.1,1.4,2.9,2.5
		c0-0.2,0-0.4-0.1-0.5c-0.4-0.8-1-1.5-1.6-2.1c-0.1-0.1-0.2-0.2-0.3-0.3c0.5,0,0.8,0.4,1.2,0.6c0-0.1,0-0.1-0.1-0.2
		c-0.4-0.6-0.8-1.1-1.4-1.5c-0.1-0.1-0.3-0.2-0.5-0.3c-0.1-0.1-0.3-0.1-0.3-0.3c0,0-0.1-0.1-0.1-0.1c-0.8-1.2-1.6-2.3-2.4-3.4
		c0,0-0.1-0.1-0.1-0.1c0.8,1.4,1.6,2.7,2.4,4.1c0,0,0,0-0.1,0c-0.9-1.3-1.8-2.6-2.8-3.9c0,0,0,0-0.1,0c0.8,1.4,1.6,2.7,2.5,4.1
		c0,0,0,0-0.1,0c-0.9-1.3-1.8-2.6-2.8-3.9c0,0,0,0-0.1,0c0.8,1.4,1.7,2.8,2.5,4.1c0,0,0,0-0.1,0c-0.1-0.1-0.1-0.2-0.2-0.3
		c-0.8-1.1-1.5-2.2-2.3-3.3c-0.3-0.4-0.7-0.8-0.9-1.3c-0.2-0.4-0.5-0.6-0.9-0.6C70.7,18.4,70.4,18.3,70.3,17.9
		C70.2,18,70.2,18,70.3,17.9z M66.1,19.7c-0.3-0.3-0.7-0.5-1-0.8c-0.3-0.2-0.6-0.5-0.4-0.9c0-0.1,0-0.1,0-0.3c0.6,0.7,1.1,1.3,1.6,2
		c0,0,0,0-0.1,0.1C66.2,19.7,66.1,19.7,66.1,19.7z M66.1,20.4c-0.2,0.1-0.3,0.2-0.5,0.3c-0.1-0.3-0.1-0.5-0.2-0.7
		C65.7,20.1,66,20.1,66.1,20.4z M65,20.4c0.1,0.2,0,0.4-0.1,0.6c-0.1,0-0.1,0-0.1,0c-0.8-0.3-1.7-0.3-2.5-0.2
		c-0.6,0.1-1.2,0.2-1.9,0.3c-0.4,0.1-0.8,0.3-1,0.6c-0.1,0.1-0.1,0.2-0.2,0.3c0,0-0.1,0-0.1,0c0-0.1,0-0.2,0-0.2c0-0.3,0-0.5,0-0.8
		c0-0.2,0.1-0.3,0.3-0.4c0.4-0.2,0.8-0.3,1.2-0.3c1.1-0.1,2.1-0.1,3.2-0.1c0.3,0,0.5,0,0.8,0C64.8,20.1,65,20.1,65,20.4z M63.8,18.2
		c-1.2-0.2-2.3,0.2-3.4,0.6c-0.2,0.1-0.4,0.2-0.6,0.3c-0.2,0.1-0.4,0.3-0.5,0.5c-0.1,0.1-0.1,0.2-0.2,0.3c-0.1,0.1-0.2,0.1-0.4,0
		c-0.2-0.2-0.3-0.4-0.4-0.6c0-0.1,0-0.2,0-0.3c0.1-0.1,0.2-0.2,0.3-0.3c0.3-0.2,0.7-0.3,1-0.4c1-0.3,2-0.5,3-0.8
		c0.3-0.1,0.6-0.2,0.9-0.2c0.3,0,0.5,0.2,0.6,0.5C64.2,18.1,64,18.2,63.8,18.2z M59.6,22.5c0.7,0.4,1.5,0.4,2.3,0.5
		c0.1,0,0.2,0,0.3,0c-0.1,0.2-0.2,0.2-0.3,0.3c-0.4,0.3-0.8,0.5-1.3,0.4c-0.2,0-0.5,0-0.7-0.1c-0.3,0-0.5-0.2-0.6-0.5
		c-0.1-0.2-0.1-0.4-0.2-0.6C59.2,22.4,59.4,22.4,59.6,22.5z M60.4,24.2c-0.1,0.2-0.8,0.7-1.2,0.8c0.1-0.2,0.1-0.3,0.2-0.5
		c0-0.1,0.1-0.3,0.1-0.5C59.8,24.1,60.1,24.1,60.4,24.2z M66.6,20.8c0.1-0.1,0.2-0.1,0.3-0.2c0.3,0.6,0.8,1,1.4,1.2
		c0,0.1,0,0.1,0,0.1c0,0.2-0.1,0.5-0.1,0.7c0,0.2,0,0.5,0.1,0.7c0,0,0,0-0.1,0c-0.1-0.1-0.2-0.2-0.2-0.3c0.3,0.5,0.4,1.1,0.6,1.6
		c-0.3-0.5-0.6-0.9-1-1.4c0,0,0,0-0.1,0c0.8,1.4,1.7,2.8,2.5,4.1c0,0,0,0-0.1,0c-0.9-1.3-1.8-2.6-2.8-3.9c0,0,0,0-0.1,0
		c0.8,1.4,1.7,2.7,2.5,4.1l-0.1,0c-0.9-1.3-1.8-2.6-2.8-3.9c0,0,0,0-0.1,0l2.4,4c0,0,0,0-0.1,0c-0.9-1.3-1.8-2.6-2.8-3.9
		c0,0,0,0-0.1,0c0.8,1.4,1.6,2.7,2.5,4.1c0,0,0,0-0.1,0c-0.9-1.2-1.8-2.5-2.6-3.7c0,0,0,0-0.1,0c0.2,0.5,0.5,0.9,0.8,1.3
		c0.3,0.5,0.6,0.9,0.8,1.4c0.3,0.4,0.5,0.9,0.8,1.4c-0.9-1.3-1.8-2.6-2.7-3.8c0,0,0,0,0,0c0,0,0,0,0,0c0,0,0,0,0,0
		c0.8,1.4,1.6,2.7,2.4,4.1c-0.5-0.6-0.9-1.3-1.4-1.9c-0.5-0.7-0.9-1.3-1.4-1.9c0.3,0.7,0.8,1.4,1.2,2c0.4,0.7,0.8,1.3,1.2,2
		c0,0,0,0-0.1,0l-2.8-3.9c0,0,0,0-0.1,0c0.8,1.4,1.6,2.7,2.5,4.1l-0.1,0c-0.5-0.6-0.9-1.3-1.4-1.9c-0.5-0.7-0.9-1.3-1.4-2
		c0,0,0,0-0.1,0c0.8,1.4,1.6,2.7,2.5,4.1c0,0,0,0-0.1,0c-0.9-1.3-1.8-2.5-2.6-3.8c0,0,0,0-0.1,0c0.2,0.5,0.5,0.9,0.8,1.3
		c0.3,0.4,0.5,0.9,0.8,1.3c0.3,0.4,0.5,0.9,0.8,1.3c0,0,0,0-0.1,0c-0.9-1.3-1.9-2.7-2.8-4c0,0,0,0-0.1,0c0.8,1.4,1.7,2.8,2.5,4.2
		c-1-1.3-1.9-2.7-2.9-4c0.8,1.4,1.6,2.7,2.3,4c-0.5-0.6-0.9-1.2-1.3-1.8c-0.4-0.6-0.9-1.3-1.3-1.9c0.4,0.7,0.8,1.4,1.2,2.1
		c0.4,0.7,0.8,1.4,1.2,2.1c0,0,0,0-0.1,0c-0.9-1.3-1.8-2.6-2.8-3.9c0,0,0,0-0.1,0c0.2,0.5,0.5,0.9,0.8,1.3c0.3,0.5,0.6,0.9,0.8,1.4
		c0.3,0.5,0.5,0.9,0.8,1.4c0,0,0,0-0.1,0c-0.9-1.3-1.8-2.6-2.8-3.9c0,0,0,0-0.1,0c0.8,1.4,1.7,2.7,2.5,4.1c0,0,0,0-0.1,0
		c-0.9-1.3-1.8-2.6-2.8-3.9c0,0,0,0-0.1,0c0.4,0.7,0.8,1.3,1.2,2c0.4,0.7,0.8,1.3,1.2,2c0,0,0,0-0.1,0C62.9,30.3,62,29,61,27.7
		c0,0,0,0-0.1,0c0.8,1.4,1.7,2.7,2.5,4.1c0,0,0,0-0.1,0c-0.9-1.3-1.8-2.6-2.8-3.9c0,0,0,0-0.1,0c0.8,1.4,1.6,2.7,2.5,4.1
		c0,0,0,0-0.1,0c-0.9-1.3-1.8-2.5-2.6-3.8c0,0,0,0-0.1,0c0.4,0.7,0.8,1.4,1.2,2c0.4,0.7,0.8,1.4,1.2,2c0,0,0,0-0.1,0
		c-0.9-1.3-1.8-2.6-2.7-3.9c0,0,0,0-0.1,0c0.8,1.3,1.6,2.7,2.4,4c0,0,0,0-0.1,0c-0.9-1.3-1.9-2.7-2.8-4c0.7,1.4,1.6,2.7,2.4,4
		c0,0,0,0-0.1,0c-0.9-1.2-1.8-2.5-2.6-3.7l-0.1,0c0.8,1.4,1.7,2.7,2.5,4.1c0,0,0,0-0.1,0c-0.9-1.3-1.8-2.6-2.8-3.9c0,0,0,0-0.1,0
		c0.8,1.4,1.7,2.7,2.5,4.1c0,0,0,0-0.1,0c-0.9-1.2-1.8-2.5-2.6-3.7c0,0,0,0-0.1,0c0.8,1.3,1.6,2.7,2.4,4c0,0,0,0-0.1,0
		c-0.9-1.3-1.9-2.7-2.8-4c0,0,0,0-0.1,0c0.8,1.3,1.6,2.7,2.4,4c-0.5-0.6-0.9-1.3-1.4-1.9c-0.5-0.7-0.9-1.3-1.4-1.9
		c0.8,1.4,1.6,2.7,2.5,4.1c0,0,0,0-0.1,0c-0.9-1.3-1.8-2.5-2.6-3.7c0,0,0,0-0.1,0c0.8,1.4,1.7,2.8,2.5,4.1c0,0,0,0-0.1,0
		c-0.9-1.3-1.8-2.6-2.8-3.9c0,0,0,0-0.1,0c0.8,1.4,1.7,2.7,2.5,4.1c0,0,0,0-0.1,0c-0.9-1.3-1.8-2.6-2.7-3.9c0,0,0,0-0.1,0
		c0.2,0.3,0.4,0.7,0.6,1c0.2,0.3,0.4,0.7,0.6,1c0.2,0.3,0.4,0.7,0.6,1c0.2,0.3,0.4,0.7,0.6,1c0,0,0,0-0.1,0l-2.8-3.9l-0.1,0
		c0.8,1.4,1.6,2.7,2.5,4.1c0,0,0,0-0.1,0c-0.9-1.3-1.8-2.6-2.8-3.9c0,0,0,0-0.1,0l2.5,4.1c0,0,0,0-0.1,0c-0.9-1.2-1.7-2.4-2.6-3.6
		c0,0,0,0-0.1,0c0,0.1,0.1,0.2,0.1,0.3c0.6,1.1,1.3,2.1,1.9,3.2c0.1,0.1,0.2,0.3,0.2,0.5c-0.2-0.3-0.5-0.6-0.7-1
		c0.1,0.5,0.5,0.9,0.6,1.4c0,0,0,0.1-0.1,0.1c-0.1-0.1-0.2-0.2-0.2-0.2c-0.9-1.3-1.9-2.5-2.8-3.8c-0.2-0.2-0.3-0.5-0.5-0.8
		c-0.2-0.5-0.2-1,0-1.5c0.2-0.4,0.5-0.8,0.9-1.1c0.6-0.5,1.2-0.9,1.8-1.3C59.8,25.5,63.2,23.2,66.6,20.8z M71.1,24.9
		c0,0,0,0,0.1-0.1c0.3,0.5,0.5,0.9,0.8,1.3c0,0,0,0-0.1,0C71.7,25.7,71.3,25.4,71.1,24.9z M71.7,26.5C71.7,26.5,71.6,26.5,71.7,26.5
		c-0.4-0.4-0.7-0.9-1-1.3c0,0,0-0.1,0-0.1c0.1,0,0.1,0,0.2,0.1C71.1,25.6,71.4,26.1,71.7,26.5z M71.4,24.6c-0.1-0.1,0-0.2-0.1-0.4
		c0.3,0.3,1,1.4,1,1.7C72.1,25.5,71.7,25,71.4,24.6z M72,24.6c-0.2-0.2-0.3-0.4-0.5-0.6c-0.1-0.1-0.2-0.3-0.1-0.5
		c0.2,0.1,1.1,1.5,1.3,2.1C72.5,25.3,72.3,25,72,24.6z M71.7,23.3c-0.3-0.4-0.3-0.4-0.3-0.9c0.6,1,1.2,2,1.8,3.1c0,0,0,0,0,0
		c-0.1-0.1-0.1-0.1-0.2-0.2C72.6,24.6,72.2,23.9,71.7,23.3z M72.7,23.8L72.7,23.8c0.1,0,0.2,0,0.2,0.1c0.3,0.4,0.5,0.8,0.8,1.2
		c0,0,0,0-0.1,0C73.3,24.7,73,24.3,72.7,23.8z M73.4,23.9c0.3,0.2,0.4,0.5,0.6,0.9C73.8,24.6,73.5,24.2,73.4,23.9z M73.8,23.4
		c0.3,0.4,0.5,0.8,0.7,1.2C74,24.1,73.8,23.7,73.8,23.4z M73.5,22.5c-0.2-0.3-0.3-0.7-0.4-1.1c0.6,1,1.2,2,1.8,3c0,0,0,0,0,0
		c-0.1-0.1-0.1-0.1-0.2-0.2C74.3,23.6,73.9,23,73.5,22.5z M73.3,22.7c0.2,0.2,0.3,0.5,0.2,0.8c0,0,0,0.1,0,0.1c0,0,0,0-0.1,0.1
		c0,0-0.1,0-0.1,0c-0.3,0-0.5-0.2-0.6-0.5c0-0.2-0.1-0.4-0.2-0.6c-0.1-0.3-0.3-0.5-0.6-0.6c-0.4-0.3-0.5-0.8-0.1-1.2
		c0.1-0.1,0.3-0.3,0.4-0.5c0.1,0.1,0.2,0.2,0.2,0.4c0.2,0.4,0.3,0.9,0.5,1.3C73,22.2,73.1,22.5,73.3,22.7z M71.8,22.2
		c0.1,0,0.2,0.1,0.2,0.2c0.2,0.3,0.4,0.6,0.4,1.1c-0.4-0.6-0.9-1.2-1.3-1.8c0-0.1-0.1-0.1-0.1-0.2c0-0.2,0-0.4-0.1-0.6
		c0.2,0.3,0.4,0.5,0.4,0.8C71.5,21.9,71.6,22.1,71.8,22.2z M71.1,22.4c0.1,0.2,0.1,0.3,0.1,0.5c0,0.6-0.1,1.1-0.2,1.7
		c-0.1,0.2-0.1,0.3-0.3,0.3c-0.2,0-0.3-0.2-0.4-0.3c-0.1-0.3-0.2-0.7-0.1-1c0.1-0.5,0.1-1-0.1-1.5C70.4,21.7,70.9,21.8,71.1,22.4z
		 M71.2,26.7C71.2,26.8,71.2,26.8,71.2,26.7c-0.3-0.3-0.5-0.6-0.8-1c-0.2-0.3-0.4-0.6-0.6-0.9c-0.1-0.1-0.1-0.1,0.1-0.3
		C70.4,25.3,70.8,26,71.2,26.7z M69.3,25c0.2-0.2,0.2-0.1,0.3,0c0.3,0.5,0.6,1,0.9,1.5c0.1,0.1,0.1,0.2,0.2,0.3c0,0,0,0-0.1,0
		C70.2,26.3,69.8,25.7,69.3,25z M70.4,27.3C70.4,27.3,70.4,27.3,70.4,27.3c-0.6-0.7-1.1-1.5-1.7-2.3c0.2,0,0.3,0,0.4,0.2
		c0.4,0.7,0.8,1.3,1.2,2C70.4,27.2,70.4,27.3,70.4,27.3z M69.7,23.8c0,0.2-0.1,0.4-0.2,0.5c-0.1,0.2-0.2,0.3-0.4,0.3
		c-0.2,0-0.3-0.2-0.4-0.3c0-0.1-0.1-0.3-0.1-0.4c-0.1-0.7-0.2-1.3-0.1-2c0-0.1,0-0.1,0-0.2c0,0,0-0.1,0.1-0.1c0.5,0,0.8,0.1,0.9,0.6
		C69.9,22.7,69.8,23.3,69.7,23.8z M64.8,15.3c0.2,0,0.4,0,0.6,0.1c0.8,0.3,1.6,0.8,2.3,1.4c0.5,0.5,1,1,1.5,1.4
		c0.4,0.3,0.8,0.5,1.3,0.6c0.2,0,0.4,0.1,0.6,0.2c0.7,0.2,0.8,0.9,0.3,1.4c0,0-0.1,0.1-0.2,0.1c0,0-0.1-0.1-0.1-0.1
		c-0.2-0.6-0.5-1-1-1.2c-1.1-0.6-2.1-1.3-3.1-2c-0.2-0.2-0.5-0.3-0.8-0.4c0.1,0.1,0.3,0.3,0.4,0.4c0.4,0.4,0.9,0.8,1.3,1.2
		c0.4,0.4,0.9,0.7,1.4,1c0.2,0.1,0.4,0.2,0.6,0.3c0.5,0.3,0.8,0.8,0.8,1.4c0,0.1,0,0.3,0,0.4c-0.3,0.1-0.6,0.1-0.9,0.2
		c-0.2-0.1-0.4-0.3-0.6-0.4c0.3-0.5,0.1-1-0.3-1.4c-0.6-0.7-1.1-1.3-1.7-2c-0.1-0.1-0.1-0.1-0.2-0.2c0,0,0,0,0,0
		c0.5,0.9,1.1,1.7,1.6,2.6c0.1,0.1,0.1,0.2,0.2,0.3c0.1,0.2,0.2,0.3,0,0.5c-0.1,0.2-0.4,0.2-0.6,0.1c-0.2-0.1-0.4-0.2-0.5-0.4
		c-0.6-0.7-1.2-1.5-1.8-2.2c-0.6-0.7-1.1-1.4-1.8-2C64,16.4,64,16.4,64,16.3c0.2-0.3,0.4-0.6,0.6-0.9C64.6,15.4,64.7,15.3,64.8,15.3
		z M53.6,19.2c0.1,0,0.2,0,0.3,0c0.6,0,1-0.2,1.5-0.5c1.1-0.8,2.2-1.6,3.4-2.4c0.7-0.5,1.5-1,2.4-1.2c0.9-0.2,1.7-0.2,2.5,0
		c0.1,0,0.2,0.1,0.4,0.1c-0.1,0.5-0.5,0.9-1,0.9c-0.5,0-0.9,0-1.4,0.1c-0.7,0-1.3,0.3-1.9,0.6c-1.1,0.6-2.2,1.3-3.3,1.9
		c0,0-0.1,0.1-0.1,0.1c-0.6,0.2-1,0.5-1.3,1.1c-0.1,0.2-0.3,0.3-0.5,0.5c-0.2,0.2-0.5,0.3-0.8,0.2c-0.3,0-0.5-0.3-0.6-0.6
		C53.1,19.5,53.2,19.3,53.6,19.2z M52.8,20.8C52.9,20.8,52.9,20.8,52.8,20.8c0.8,0.4,1.4,0.4,2-0.1c0.2-0.2,0.5-0.4,0.7-0.7
		c0.2-0.4,0.6-0.6,1.1-0.6c1-0.1,2.1,0.7,2,1.8c0,0.2,0,0.4,0,0.6c-0.1,0.7,0.1,1.3,0.3,2c0.1,0.2,0.1,0.5,0,0.7
		c-0.2,0.6-0.5,1.1-1.1,1.3c-0.3,0.1-0.5,0.2-0.8,0.2c-0.4,0.1-0.9,0.2-1.3,0.3c-0.7,0.1-1.3,0-1.8-0.7c-0.3-0.4-0.3-0.4,0.1-0.8
		c0.1,0,0.1,0.1,0.2,0.2c0,0,0,0,0.1,0.1c1.1,0.9,2.3,1,3.4,0c0.2-0.2,0.4-0.4,0.7-0.6c0,0,0.1-0.1,0.1-0.2c-0.1,0-0.2,0.1-0.3,0.1
		c-0.5,0.2-1,0.3-1.6,0.1c-0.7-0.2-1-0.7-0.8-1.4c0-0.1,0.1-0.3,0.2-0.4c0-0.1,0.1-0.2,0.1-0.3c0-0.5-0.2-0.9-0.6-1
		c-0.4-0.1-0.9,0.2-1,0.6c0,0.1,0,0.2-0.1,0.3c-0.3-0.6-0.8-0.8-1.4-0.9c0-0.1,0-0.2,0-0.3C52.8,20.9,52.8,20.8,52.8,20.8z
		 M52.4,21.8c0.1,0,0.2,0,0.3,0c0.8,0,1.2,0.4,1.3,1.2c0,0.5-0.1,1-0.4,1.4c-0.1,0.1-0.2,0.2-0.2,0.2c-2.2,1.5-4.4,3-6.6,4.4
		c-0.1,0-0.1,0.1-0.2,0.2c0,0,0,0,0,0.1c1.9-1.1,3.8-2.2,5.6-3.3c0,0,0,0,0,0.1c-0.2,0.2-0.4,0.4-0.6,0.5c-1.6,1.3-3.4,2.4-5.2,3.5
		c-2.8,1.6-5.8,3-8.7,4.3c-1.4,0.6-2.7,1.2-4.1,1.7c-0.3,0.1-0.5,0.3-0.8,0.4c-1.8,1.1-3.6,2.1-5.5,3.2c-0.6,0.3-1.1,0.8-1.7,1.1
		c-0.2,0.1-0.3,0.3-0.3,0.5c0,0.1-0.1,0.2-0.1,0.3c-0.3,0.5-0.6,0.9-1,1.3c-0.2-0.3-0.3-0.5-0.1-0.8c0.1-0.1,0.1-0.3,0.1-0.5
		c0.1-0.4,0.3-0.7,0.6-0.9c1.2-0.9,2.5-1.7,3.8-2.4c0.6-0.3,1.1-0.6,1.6-1c-0.6,0.3-1.2,0.6-1.8,0.8c-0.6,0.3-1.2,0.6-1.8,0.9
		c-0.6,0.3-1.2,0.6-1.8,1c-0.6,0.3-1.1,0.7-1.7,1.1c-0.1-0.1-0.2-0.2-0.3-0.3c-0.6-0.5-1.3-0.5-1.9-0.1c-0.6,0.3-1,0.8-1.3,1.4
		c-0.2,0.3-0.4,0.7-0.6,1c-0.1,0.2-0.3,0.4-0.5,0.4c-0.1,0-0.2,0-0.3,0.1c0-0.3,0-0.6,0.1-0.9c0.3-1.9,1.5-3.1,3.2-3.9
		c0.6-0.3,1.3-0.6,1.9-0.9c3-1.5,6-3.1,9-4.6c4.1-2.1,8.2-4.2,12.1-6.6c1.5-0.9,3-1.8,4.4-3c0.7-0.5,1.4-1.1,2.1-1.5
		C51.3,22.1,51.8,21.9,52.4,21.8z M32.7,37.7c-2.1,2.6-4,5.3-5.7,8.1c-0.7-0.8-1.4-1.5-2-2.4c0.1-0.1,0.2-0.3,0.3-0.4
		c0.3-0.4,0.7-0.9,0.9-1.4c0-0.1,0.1-0.2,0.2-0.3c0.6-0.4,1.3-0.9,2-1.3c1.3-0.8,2.7-1.6,4-2.4C32.5,37.8,32.6,37.7,32.7,37.7z
		 M30.4,33.1c4.2-3.1,8.8-5.5,13.6-7.4C39.6,28.4,35.1,30.8,30.4,33.1z M16.5,41.4c-0.6-0.3-0.9-1-0.6-1.7c0.2-0.5,0.5-0.8,0.9-1.1
		c2.2-1.2,4.4-2.6,6.5-4c3.2-2,6.4-4.1,9.6-6.1c1.7-1.1,3.5-2,5.2-3c2.2-1.2,4.4-2.4,6.7-3.5c1.4-0.7,2.8-1.3,4.3-1.7
		c0.7-0.2,1.4-0.3,2.2-0.3c0,0,0.1,0,0.1,0c0.7,0.1,1,0.5,0.8,1.2c-0.6,0.1-1.1,0.3-1.6,0.6C50.5,22,50.2,22,50,22.1
		c-1.1,0.3-2.2,0.6-3.3,0.9c-0.1,0-0.1,0.1-0.2,0.1c0.9-0.1,1.8-0.2,2.7-0.3c-0.3,0.3-0.6,0.6-1.1,0.7c-1.2,0.1-2.3,0.5-3.4,0.9
		c-2,0.7-4,1.6-5.9,2.6c-4,2-7.9,4.1-11.7,6.4c-0.2,0.1-0.3,0.2-0.4,0.4c-0.2,0.3-0.5,0.6-0.7,0.9c-0.7,0.7-1.4,1.4-2.2,2.2
		c-0.5,0.5-1.1,0.9-1.8,1.2c-0.5,0.2-1,0.5-1.5,0.7c-0.9,0.5-1.7,1.1-2.2,1.9c-0.1,0.2-0.3,0.5-0.4,0.7c-0.2,0.3-0.3,0.4-0.6,0.3
		C17.1,41.7,16.8,41.6,16.5,41.4z M23.1,50.9c-0.6-0.4-1.1-0.8-1.7-1.1c-0.2-0.1-0.4-0.3-0.7-0.4c-1.1-0.6-2.2-1.2-3.2-2
		c-0.4-0.3-0.7-0.7-1.1-1c-0.1-0.1-0.2-0.3-0.3-0.5c-0.2-0.4-0.2-0.7,0.2-1c0.2-0.2,0.4-0.3,0.6-0.4c0.5-0.3,1.1-0.4,1.7-0.5
		c0.2,0,0.3-0.1,0.4-0.3c0.2-0.4,0.5-0.9,0.7-1.3c0.2-0.4,0.5-0.8,0.9-1.1c0.7-0.5,1.3-0.5,1.9,0.2c0.3,0.4,0.6,0.8,0.8,1.3
		c0.3,0.8,0.7,1.4,1.2,2c0.9,1.1,1.9,2.2,3,3.1c3.3,3,6.9,5.8,10.5,8.4c2.9,2.2,6,4.2,9,6.3c0.2,0.1,0.5,0.2,0.6,0.4
		c0.1,0.2,0,0.5,0,0.7c0,0.8-0.1,1.6-0.1,2.5c-0.2-0.1-0.4-0.2-0.7-0.3c0.2,0.5,0.4,0.9,0.5,1.3c0,0,0,0-0.1,0
		c-0.6-0.4-1.2-0.7-1.8-1.1c0.4,0.7,0.9,1.3,1.4,1.9c0,0,0,0,0,0c0,0,0,0,0,0c0,0,0,0,0,0c0,0,0,0,0,0c0,0,0,0-0.1,0
		c0,0-0.1,0-0.1-0.1c-3.4-2.6-6.8-5.2-10.2-7.7c0,0,0,0,0,0c0,0,0,0,0,0c0,0,0,0,0,0c0,0,0,0-0.1,0c0.1,0.1,0.2,0.2,0.3,0.3
		c3.3,2.8,6.7,5.7,10.1,8.5c0.2,0.2,0.3,0.3,0.2,0.5c-0.1,0.2-0.1,0.3-0.1,0.6c-0.1-0.1-0.2-0.2-0.3-0.2c-3.7-3.1-7.3-6.2-11-9.3
		c-1.8-1.6-3.7-3.2-5.5-4.8C27.9,54.1,25.6,52.4,23.1,50.9z M96.4,115.7c-2.1,1-4.3,1.9-6.5,2.5c-2.2,0.7-4.5,1.2-6.8,1.5
		c0,0,0-0.1,0-0.1c0.6-0.3,1.1-0.6,1.7-0.9c2.1-1.2,4.3-2.4,6.5-3.3c3-1.3,6.1-2.3,9.3-3c0.6-0.1,1.2-0.2,1.9-0.3
		C102.1,112.5,98.8,114.5,96.4,115.7z M105,110.2c-0.3,0-0.6,0-0.9,0c-2.1,0-4.2,0.3-6.2,0.8c-3.5,0.8-6.8,2-9.9,3.6
		c-2.4,1.2-4.7,2.5-7,3.8c-3.1,1.7-6.3,3.2-9.5,4.5c-1,0.4-2,0.8-3,1.2c-0.1,0-0.2,0.1-0.3,0.1c0.4-0.2,0.8-0.4,1.2-0.5
		c2.4-1.1,4.8-2.4,7.1-3.8c2.2-1.3,4.5-2.6,6.7-3.8c4.1-2.2,8.4-3.9,12.9-5c1.9-0.4,3.7-0.8,5.6-0.9c1-0.1,2.1-0.1,3.1-0.1
		C104.9,110.1,104.9,110.1,105,110.2L105,110.2z M113,102c-1.4,1.8-2.8,3.5-4.5,5.1c-0.1,0.1-0.2,0.2-0.3,0.2c-0.7,0-1.5,0-2.2-0.1
		c0.1-0.3,0.1-0.6,0.2-0.9c0-0.1,0-0.2,0.1-0.3c0-0.2,0-0.5-0.2-0.6c-0.1-0.1-0.3-0.3-0.5-0.4c0.3-0.3,0.3-0.7,0.3-1.1
		c0-0.2,0-0.5,0-0.7c0-0.3-0.1-0.6-0.3-0.8c-0.1-0.1-0.1-0.1-0.2-0.2c0.2-0.1,1.6-0.3,2.2-0.3c0,0.6-0.1,1.1-0.3,1.7
		c0.3,0.2,0.7,0.3,1.1,0.3c0.2,0,0.3-0.1,0.4-0.3l0.4-1.2c0-0.1,0-0.2,0.1-0.2c0.1-0.3,0.3-0.4,0.6-0.4c1,0,1.9,0,2.9-0.1
		c0.1,0,0.2,0,0.4,0C113.1,101.9,113,102,113,102z M124.5,107.5c-0.6,0.7-1.3,1.2-2.2,1.4c-1.3,0.2-2.4-0.1-3.2-1.2
		c-0.5-0.7-0.6-1.4-0.3-2.2c0.2-0.6,0.6-1.1,1.2-1.4c0.8-0.4,1.7,0,1.9,0.8c0.1,0.3,0.1,0.6,0,0.9c-0.1,0.6-0.6,1-1.3,1
		c-0.7,0-1.2-0.4-1.4-1c0-0.1-0.1-0.2-0.1-0.3c-0.2,0.4-0.1,0.8,0,1.1c0.1,0.1,0.2,0.3,0.3,0.4c1,0.9,2.1,1.3,3.4,0.9
		c1.4-0.4,2.5-2,1.8-3.8c-0.5-1.3-1.4-2.2-2.7-2.9c-0.9-0.5-1.8-0.7-2.8-0.9c-1-0.2-2-0.3-3-0.3c-1.7,0-3.4-0.1-5.1-0.1
		c-1.8,0-3.6,0.1-5.3,0.3c-2.8,0.3-5.6,0.7-8.4,1.2c-3,0.6-5.9,1.4-8.8,2.2c-2.6,0.8-5.1,1.7-7.6,2.7c-0.1,0-0.2,0.1-0.4,0.1
		c0.3,0.2,0.5,0.2,1.4,0.1c-0.1,0.1-0.2,0.1-0.2,0.2c-0.8,0.5-1.6,0.9-2.5,1.2c-0.1,0-0.2,0.1-0.3,0.2c-0.5,0.7-1,1.4-1.5,2.2
		c0.5-0.2,1.1-0.5,1.6-0.7c0.5,0.7,1,1.4,1.5,2.1c0.1-0.1,0.1-0.2,0.2-0.3c0.4-0.9,0.8-1.8,1.3-2.8c0.1-0.2,0.2-0.3,0.4-0.4
		c0.6-0.2,1.1-0.4,1.7-0.7c0.1,0,0.2-0.1,0.3-0.1c0,0,0,0.1,0,0.1c-0.1,0-0.2,0.1-0.2,0.1c-0.4,0.2-0.6,0.4-0.6,0.8
		c0,0.7,0,1.4,0,2.1c0,0.2,0,0.3,0,0.5c0,0.2,0,0.4,0,0.5c0.3,0.2,0.5-0.1,0.7,0c0,0,0,0.1,0,0.1c-1,0.4-1.9,0.8-2.9,1.2
		c0,0,0,0,0-0.1c0,0,0.1-0.1,0.1-0.1c0.1,0,0.2-0.1,0.2-0.1c0.3-0.1,0.4-0.3,0.4-0.7c0-1,0-1.9,0.1-2.9c-0.2,0.1-0.2,0.2-0.2,0.3
		c-0.6,1.3-1.2,2.6-1.8,4c0,0.1-0.1,0.2-0.2,0.4c-0.1-0.1-0.2-0.2-0.2-0.3c-0.5-0.7-1.1-1.5-1.6-2.2c-0.1-0.1-0.1-0.2-0.2-0.3
		c0,0,0,0-0.1,0c0,0.3,0,0.5,0,0.8c0,0.7,0,1.4,0,2.1c0,0.4,0.1,0.5,0.5,0.4c0.1,0,0.2-0.1,0.3-0.1c0,0.1-0.1,0.1-0.1,0.2
		c-0.2,0.2-1.7,0.8-1.9,0.8c0.1-0.1,0.1-0.1,0.1-0.2c0.1-0.1,0.2-0.1,0.3-0.2c0.2-0.2,0.3-0.4,0.3-0.6c0-0.8,0-1.7,0-2.5
		c0-0.2,0-0.4,0-0.6c0-0.2-0.1-0.2-0.3-0.2c-0.2,0-0.3,0.1-0.5,0.2c0-0.2,0.2-0.2,0.3-0.4c-0.5-0.3-1.1-0.6-1.7-1
		c-1,0.6-2.1,1.1-3.3,1.3c0.4-0.3,0.9-0.6,1.2-1.2c-0.1,0-0.2,0.1-0.3,0.1c-1.6,0.8-3.1,1.6-4.7,2.5c-1.8,0.9-3.5,1.8-5.3,2.8
		c-1.6,0.9-3.3,1.7-4.9,2.6c-1.4,0.7-2.8,1.4-4.2,1.9c-0.1,0-0.1,0.1-0.2,0.1c0.3,0.6,0.5,1.2,0.2,1.9c-0.2,0.4-0.4,0.8-0.8,1
		c0.6-0.9,0.5-1.8,0.1-2.7c-1.7,0.6-3.3,1-5.1,1.1c1.7-0.3,3.3-0.8,4.9-1.4c-0.2-0.4-0.5-0.7-0.8-0.9c-1.4-1-3.4-0.8-4.6,0.4
		c-0.5,0.5-0.7,1.1-0.8,1.8c-0.1,1.1,0.3,2.1,1,2.9c0.8,1,1.8,1.6,3,2c1.2,0.4,2.5,0.6,3.8,0.5c2.3-0.1,4.4-0.8,6.5-1.6
		c3.1-1.3,6.1-2.7,9-4.3c2.8-1.5,5.6-3.1,8.5-4.6c2.6-1.4,5.3-2.8,8.1-4c2.8-1.2,5.6-2,8.6-2.6c1.8-0.4,3.7-0.6,5.6-0.8
		c2.4-0.2,4.8-0.3,7.2-0.2c1.1,0,2.1,0.1,3.1,0.1c0.5,0,1,0.2,1.5,0.5c-0.4,0-0.8,0-1.2-0.1c-1.8-0.1-3.7-0.1-5.5-0.1
		c-5.2,0.2-10.2,1-15.1,2.7c-2.3,0.8-4.6,1.8-6.8,2.9c-3.1,1.6-6.2,3.3-9.2,5c-2.8,1.5-5.6,3-8.5,4.2c-2.2,0.9-4.4,1.7-6.7,2.4
		c-1.3,0.4-2.6,0.5-4,0.6c-1,0.1-2.1,0.1-3.1,0c-1.3-0.1-2.6-0.3-3.7-0.9c-1-0.5-1.8-1.2-2.3-2.2c-0.4-0.9-0.5-1.8-0.4-2.7
		c0.1-0.5,0.2-0.9,0.4-1.4c0.5-1,1.2-1.5,2.3-1.7c1.7-0.2,3.2,0.3,4.5,1.5c0.1,0.1,0.1,0.2,0.2,0.3c0.6-0.3,1.2-0.5,1.7-0.8
		c2.3-1.1,4.6-2.4,6.8-3.7c2.7-1.6,5.4-3.1,8.2-4.6c1-0.6,2.1-1.1,3.2-1.6c0.1-0.1,0.3-0.1,0.5-0.2c0-0.4,0-0.8-0.1-1.1
		c-0.3-1.7-0.6-3.4-0.9-5.1c-0.1-0.4-0.2-0.9-0.2-1.3c0-0.2-0.1-0.3-0.3-0.4c-0.3-0.2-0.7-0.3-1-0.5c-0.1,0-0.1-0.1-0.2-0.1
		c0.3-0.5,0.5-0.9,0.8-1.4c0.2-0.3,0.2-0.5,0.1-0.9c-0.4-2.1-0.7-4.2-1.1-6.3c-0.2-0.9-0.4-1.8-0.9-2.6c-0.1-0.1-0.2-0.3-0.3-0.4
		c-0.1,0-0.2,0-0.2,0.1c-1.7,0.8-3.5,1.2-5.4,1.3c-1.4,0.1-2.8-0.1-4.2-0.2c-1.3-0.2-2.7-0.4-4.1-0.4c-1.5,0-2.9,0.4-4.3,0.9
		c-1.1,0.4-2.1,1-2.9,1.8c0,0-0.1,0.1-0.1,0.1c0.2,0.4,0.4,0.8,0.5,1.2c0.2,0.8,0.3,1.5-0.1,2.3c-0.5,0.8-1.1,1.4-2.1,1.5
		c-0.8,0.1-1.3-0.4-1.4-1.1c0-0.4,0-0.8,0.2-1.2c0.2-0.7,0.7-1.2,1.1-1.8c0.2-0.2,0.4-0.5,0.7-0.7c-0.6-0.5-1.3-0.6-2-0.3
		c-0.8,0.4-1.3,1-1.6,1.8c-0.2,0.5-0.3,1-0.3,1.5c-0.1,1-0.1,2.1-0.1,3.1c0,0.6,0.2,1.1,0.7,1.5c0.2,0.2,0.5,0.3,0.7,0.4
		c-0.7,0.3-1.3,0.2-2-0.1c-0.4,0.4-0.8,0.8-1.2,1.2c-0.3-0.3-0.5-0.5-0.8-0.7c-0.1,0.1-0.1,0.1-0.2,0.2c-0.2,0.1-0.3,0.3-0.5,0.4
		c-0.6,0.3-1.3,0.3-2,0.1c-0.6-0.2-0.9-0.7-0.9-1.3c0,0.1,0.1,0.1,0.1,0.2c0.1,0.1,0.2,0.2,0.3,0.3c0.7,0.5,1.5,0.5,1.8-0.5
		c0.1-0.3,0.1-0.6,0.1-0.9c0-1,0-2,0-2.9c0-0.3-0.1-0.5-0.2-0.8c-0.5-1-1.3-1.5-2.4-1.6c-1.3-0.2-2.6,0.2-3.7,0.9
		c-0.7,0.5-1.3,1.1-1.7,1.8c-0.7,1.3-0.7,2.6,0,3.8c0.4,0.7,1,1.1,1.7,1.4c0.7,0.4,1.5,0.6,2.3,0.7c1.3,0.2,2.6,0.4,3.9,0.6
		c1.5,0.3,3,0.8,4.3,1.6c2,1.3,3.2,3.1,3.7,5.4c0.6,2.5,0.4,5-0.4,7.5c-0.7,2-1.7,3.8-3.1,5.4c-0.7,0.8-1.6,1.4-2.6,2
		c-1.3,0.7-2.6,1.2-4,1.3c-1.7,0.2-3.3,0-4.9-0.5c-2-0.6-3.8-1.6-5.3-3.1c-1.4-1.4-2.2-3.1-2.4-5c-0.2-2.3,0.6-4.2,2.1-5.9
		c1.8-2,4-3.2,6.6-3.8c1-0.2,2.1-0.2,3.1-0.1c1.2,0.1,2.4,0.3,3.6,0.8c1.1,0.5,2.1,1.1,2.8,2.1c0.5,0.7,0.9,1.6,0.9,2.5
		c0.1,0.9-0.2,1.8-1,2.4c-0.8,0.7-1.7,1-2.7,0.9c-0.7-0.1-1.3-0.4-1.8-1c0.2,0,0.3,0.1,0.4,0.1c1.4,0.3,2.2-0.4,2.4-1.7
		c0.1-0.7,0-1.3-0.3-1.9c-0.7-1.4-1.8-2.4-3.3-2.8c-1.4-0.4-2.8-0.4-4.2,0.2c-1.1,0.5-2,1.2-2.8,2.1c-1.1,1.3-1.8,2.7-2.1,4.3
		c-0.5,2.7,0.6,5.7,3,7.3c1.4,0.9,2.9,1.4,4.5,1.5c1.3,0.1,2.6-0.1,3.9-0.6c1.7-0.7,2.9-1.9,3.9-3.4c0.9-1.4,1.5-2.9,1.6-4.5
		c0.2-1.3,0.1-2.5-0.4-3.7c-0.5-1.3-1.3-2.3-2.4-3.1c-1.2-0.9-2.6-1.5-4.1-1.9c-1.1-0.3-2.1-0.4-3.2-0.5c-1.2-0.2-2.4-0.4-3.6-0.9
		c-1.9-0.9-3.1-2.4-3.4-4.5c-0.3-2.4,0.2-4.5,1.6-6.4c1.2-1.5,2.7-2.4,4.6-2.7c2-0.4,4,0,5.8,0.9c0.1,0,0.2,0.1,0.3,0.2
		c0.3-0.3,0.6-0.7,1-1.1c0.3,0.3,0.5,0.5,0.8,0.8c0.6-1,1.4-1.6,2.5-1.8c1.1-0.2,2.2-0.1,3.1,0.5c0.4-0.3,0.8-0.6,1.2-0.9
		c1.6-1.2,3.2-2.1,5.1-2.7c1.2-0.4,2.4-0.6,3.6-0.7c1.6-0.1,3.2-0.1,4.9,0c1.2,0.1,2.3,0.2,3.5,0.3c1.2,0.1,2.4,0.1,3.6-0.3
		c1.9-0.5,3.1-1.8,3.6-3.7c0.3-1.4-0.5-3.2-2.6-3.2c-1.1,0-1.9,0.5-2.6,1.4c-0.3,0.3-0.4,0.8-0.3,1.2c0.1,0.6,0.5,0.9,1.1,1
		c0.8,0.1,1.6-0.2,2.3-0.7c0,0,0,0,0-0.1c-0.2,0-0.3,0-0.5,0c-0.7,0-1.4-0.5-1.3-1.4c0-0.8,0.7-1.4,1.5-1.3c0.8,0.1,1.3,1,1.1,1.8
		c-0.1,0.4-0.3,0.7-0.6,1c-0.8,0.7-1.6,1-2.6,0.8c-1-0.1-1.5-1-1.2-2c0.2-0.6,0.5-1,1-1.4c1.2-1,2.6-1.3,4.1-0.8
		c1.2,0.4,1.8,1.4,1.7,2.7c-0.1,0.7-0.4,1.4-0.7,2c0,0.1-0.1,0.2-0.2,0.3c0.4,0.3,0.9,0.5,1.3,0.8c0.8-0.5,1.6-0.9,2.5-1.1
		c0,0,0,0.1,0,0.1c-0.9,0.6-1.4,1.4-1.6,2.4c-0.2,0.7-0.1,1.5,0,2.2c0.6,3.3,1.2,6.6,1.8,9.9c0,0.1,0,0.2,0.1,0.3
		c0.1-0.3,0.1-0.6,0.2-0.9c0.8-4.1,1.7-8.1,2.5-12.2c0.2-1-0.4-1.8-1.1-2.2c-0.2-0.1-0.4-0.1-0.6-0.2c0,0,0.1-0.1,0.2-0.1
		c0.5-0.2,1-0.5,1.6-0.7c0.2-0.1,0.4-0.2,0.5-0.4c0.4-0.6,0.8-1.2,1.2-1.8c0.1-0.1,0.1-0.2,0.2-0.3c0.1,0,0.2,0.1,0.3,0.1
		c0.4,0.2,0.8,0.4,1.2,0.6c0.2,0.1,0.3,0.1,0.5,0c0.2-0.1,0.4-0.3,0.6-0.5c0.5-0.8,1.2-1.5,2-2.1c1.1-0.9,2.3-1.7,3.6-2.3
		c1.8-1,3.8-1.5,5.8-1.8c1.5-0.2,3-0.3,4.4-0.2c1.4,0.1,2.7,0.3,4,0.6c2.1,0.5,4.1,1.1,6.1,1.8c1.5,0.5,3.1,1,4.7,1.2
		c1.1,0.2,2.3,0.3,3.4,0.2c0.6-0.1,1.2-0.2,1.7-0.5c0.1,0,0.2-0.1,0.3-0.1c0,0,0,0,0.1,0c-1.3,0.8-2.6,1.1-4.1,1.2
		c0.1,0.1,0.2,0.1,0.2,0.1c1.6,0.5,3.2,0.8,4.8,1c1.7,0.2,3.4,0.2,5-0.2c0.8-0.2,1.4-0.6,1.9-1.2c0,0,0.1-0.1,0.1-0.2
		c-0.2,0-0.4,0-0.6,0c-0.7,0-1.4-0.7-1.4-1.5c0-0.7,0.6-1.5,1.4-1.5c1.1,0,1.6,0.8,1.6,1.6c0.1,0.9-0.2,1.6-0.8,2.3
		c-0.9,1-2.1,1.6-3.4,2c-1.1,0.3-2.2,0.4-3.4,0.5c-0.1,0-0.1,0-0.2,0c0,0,0,0-0.1,0c0.1,0.1,0.2,0.2,0.3,0.3
		c0.7,0.8,1.3,1.6,1.4,2.7c0,0.3,0,0.7,0,1c-0.1,0.6-0.6,1-1.2,1.1c-1.4,0.2-2.7-1.2-2.5-2.6c0-0.3,0.2-0.6,0.5-1
		c-0.3-0.3-0.6-0.5-1-0.5c-0.2,0-0.4,0.1-0.4,0.3c-0.1,0.2-0.1,0.5-0.2,0.7c0,0.6-0.1,1.3-0.1,1.9c0,0.4,0,0.8,0,1.2
		c0,0.1,0,0.3,0.1,0.4c0.3,0.3,0.5,0.7,0.8,1c-0.2,0.3-0.5,0.5-0.7,0.8c-0.2,0.2-0.3,0.4-0.3,0.6c0,1.6,0,3.2,0,4.8
		c0,1,0.4,1.9,1.4,2.5c-0.3,0-0.5,0-0.7,0c-0.3-0.1-0.6-0.1-1-0.2c-0.2,0-0.3,0-0.4,0.1c-0.4,0.3-0.7,0.7-1.1,1
		c-0.2-0.2-0.4-0.4-0.6-0.6c-0.2-0.2-0.4-0.4-0.6-0.6c-0.1-0.1-0.2-0.1-0.4-0.1c-0.5,0.1-1.1,0.1-1.6,0c0,0,0-0.1,0-0.1
		c0.5-0.2,0.9-0.6,1.1-1c0.2-0.5,0.3-1,0.3-1.6c0-1.5,0-2.9,0-4.4c0-0.2,0-0.4-0.2-0.5c-0.3-0.3-0.5-0.7-0.8-1
		c0.2-0.2,0.4-0.5,0.7-0.7c0.2-0.2,0.3-0.4,0.3-0.8c0-1.1,0-2.3,0-3.4c0-0.4-0.2-0.6-0.6-0.6c-0.3,0-0.5,0.1-0.8,0.3
		c0.1,0.1,0.1,0.2,0.2,0.3c0.5,0.7,0.5,1.6,0,2.2c-0.7,0.9-2.3,1.2-3.2-0.2c-0.3-0.6-0.3-1.2-0.2-1.8c0.2-0.9,0.7-1.5,1.4-2.1
		c0.4-0.3,0.9-0.6,1.4-0.9c0,0-0.1,0-0.1-0.1c-2.2-0.8-4.5-1.6-6.7-2.4c-1.7-0.6-3.4-1.1-5.2-1.4c-1.9-0.4-3.8-0.5-5.7-0.3
		c-1.3,0.1-2.7,0.3-3.9,0.7c-1.9,0.6-3.6,1.5-5.1,2.9c-1.3,1.1-2.2,2.5-2.6,4.2c0,0,0,0.1,0,0.1c0,0,0,0,0,0.1c0.1,0,0.2,0,0.2-0.1
		c0.5-0.2,1-0.3,1.5-0.3c0.2,0,0.2-0.1,0.3-0.2c0.3-0.4,0.6-0.8,0.9-1.2c0.4,0.3,0.8,0.5,1.2,0.8c0.5-0.2,1-0.4,1.5-0.5
		c0.4-0.1,0.8-0.2,1.2-0.3c1.4-0.2,2.3,0.5,2.6,1.9c0.1,0.4,0.1,0.8,0.1,1.3c0,1.1-1.2,2.3-2.3,2.4c-0.8,0.1-1.4-0.5-1.5-1.3
		c0-0.5,0.1-0.9,0.4-1.4c0.1-0.1,0.1-0.2,0.2-0.3c-0.2-0.2-0.4-0.2-0.7-0.1c-0.3,0.1-0.6,0.2-0.8,0.5c-0.1,0.1-0.2,0.3-0.2,0.4
		c0,1.3,0,2.6,0,3.8c0,0,0,0,0,0.1c1-0.3,2-0.7,3.1-1c0,0.1,0,0.2,0,0.2c-0.1,0.7-0.2,1.4-0.3,2.1c0,0.2-0.1,0.3-0.3,0.3
		c-0.7,0.2-1.5,0.5-2.2,0.7c-0.1,0-0.2,0.1-0.3,0.1c0,0.1,0,0.1,0,0.2c0,1.2,0,2.3,0,3.5c0,0.3,0.1,0.6,0.1,0.8
		c0.1,0.4,0.3,0.5,0.6,0.3c0.4-0.1,0.7-0.3,0.9-0.7c0,0,0-0.1-0.1-0.1c-0.4-0.4-0.6-0.9-0.5-1.4c0.2-1,0.8-1.7,1.7-2.1
		c0.3-0.1,0.7-0.2,1-0.1c0.6,0.1,1,0.5,1.1,1.1c0,0.1,0,0.3,0,0.4c-0.1,1.1-0.3,2.2-1,3.1c-0.3,0.4-0.6,0.7-1,1
		c-0.9,0.6-1.8,1.1-2.8,1.4c-0.1,0-0.3,0.1-0.4,0.1c-0.3,0-0.5,0.1-0.6,0.3c-0.3,0.4-0.6,0.8-0.9,1.2c-0.4-0.3-0.8-0.6-1.3-0.9
		c-0.6,0.3-1.2,0.6-1.9,0.7c0,0,0-0.1,0-0.1c0.7-0.5,1.1-1.2,1.3-2c0.1-0.6,0.2-1.1,0.2-1.7c0-1.3,0-2.5,0-3.8
		c0-0.2-0.1-0.4-0.3-0.5c-0.2-0.1-0.4-0.2-0.6-0.4c0-0.1,0.1-0.2,0.1-0.2c0.2-0.4,0.5-0.8,0.7-1.2c0.1-0.1,0.1-0.3,0.1-0.4
		c0-1.3,0-2.6,0-3.9c0-0.6-0.1-1.3-0.4-1.8c-0.2-0.4-0.4-0.5-0.9-0.6c-0.1,0.3-0.2,0.7-0.3,1c-0.3,1.3-0.5,2.5-0.8,3.8
		c-0.3,1.4-0.5,2.7-0.8,4.1c0,0.2,0,0.4,0.2,0.6c0.3,0.2,0.5,0.5,0.8,0.8c-0.1,0.1-0.2,0.2-0.2,0.3c-0.5,0.6-0.9,1.2-1.4,1.8
		c-0.1,0.1-0.2,0.3-0.2,0.5c-0.5,2.2-0.9,4.4-1.3,6.5c-0.1,0.5-0.2,1.1-0.1,1.7c0.1,0,0.2-0.1,0.3-0.1c3.7-1.5,7.5-2.8,11.4-3.8
		c2.9-0.8,5.8-1.4,8.8-1.9c2-0.3,4-0.6,6.1-0.8c1.6-0.1,3.3-0.2,5-0.3c2.1-0.1,4.2,0,6.3,0.2c1.3,0.1,2.5,0.4,3.7,0.8
		c1.4,0.5,2.5,1.4,3.2,2.7C126,104.2,125.9,106,124.5,107.5z M99.6,103.1c-0.1,0-0.1,0-0.2,0c0-0.2,0.2-0.2,0.3-0.2
		c0.5-0.1,1-0.2,1.5-0.3c0.9-0.2,1.8-0.3,2.8-0.5v1.3c-0.1,0-0.1-0.1-0.2-0.1c0,0,0-0.1,0-0.1c-0.1-0.4-0.4-0.5-0.8-0.6
		c-0.5,0-0.9,0.1-1.4,0.2v1.6c0.4,0,0.7-0.2,0.9-0.5c0.1-0.2,0.1-0.3,0.2-0.5c0-0.1,0.1-0.1,0.2-0.1c0.1,0.8,0,1.5,0,2.3
		c-0.1-0.1-0.2-0.1-0.2-0.1c0-0.1,0-0.1-0.1-0.2c-0.1-0.4-0.4-0.5-0.8-0.5c-0.1,0-0.1,0-0.2,0c0,0,0,0-0.1,0c0,0.1,0,0.1,0,0.2
		c0,0.4,0,0.7,0,1.1c0,0.3,0.1,0.4,0.4,0.4c0.4-0.1,0.8-0.2,1.3-0.3c0.5-0.2,0.8-0.5,1-0.9c0-0.1,0-0.2,0.3-0.2
		c0,0.5-0.2,0.9-0.2,1.4c-1.6,0.3-3.2,0.6-4.8,0.9c0,0,0-0.1,0-0.1c0.1,0,0.2-0.1,0.2-0.1c0.5-0.1,0.5-0.2,0.5-0.7
		c0-0.5,0-1.1,0-1.6c0-0.4,0-0.7,0-1.1C100.2,103.1,100.1,103,99.6,103.1z M89.2,109.4c-0.1-0.1-0.2-0.2-0.2-0.3c0,0,0-0.1-0.1-0.1
		c-0.5,0.2-0.9,0.4-1.4,0.5c-0.5,0.1-0.7,0.4-0.8,0.8c0,0.1,0,0.1-0.1,0.2c0,0.2,0.1,0.2,0.2,0.2c0.2,0,0.3-0.1,0.5-0.1
		c0,0.1,0,0.1,0,0.1c-0.6,0.2-1.2,0.5-1.9,0.7c0.1-0.1,0.1-0.2,0.1-0.2c0.4-0.2,0.6-0.6,0.8-1c0.5-1.1,1.1-2.2,1.6-3.2
		c0.1-0.3,0.3-0.5,0.4-0.8c0-0.1,0.1-0.1,0.2-0.3c0.1,0.2,0.2,0.3,0.3,0.4c0.6,0.8,1.1,1.6,1.7,2.4c0.1,0.1,0.1,0.2,0.2,0.2
		c0.2,0.2,0.3,0.4,0.6,0.3c0,0,0.1,0,0.1,0.1c0,0-0.1,0.1-0.1,0.1c-0.9,0.3-1.7,0.6-2.6,0.8c0,0,0,0,0-0.1c0,0,0.1-0.1,0.1-0.1
		c0.1,0,0.2-0.1,0.3-0.1C89.3,109.8,89.3,109.7,89.2,109.4z M85.3,107.3c-0.1-0.1-0.1-0.2-0.3-0.3c0.8-0.3,1.5-0.5,2.2-0.8
		c0,0,0,0.1,0,0.1c-0.3,0.7-0.7,1.4-1.1,2.1C86.1,108,85.7,107.7,85.3,107.3z M85.9,109.2c-0.1,0.3-0.3,0.6-0.4,0.9
		C85.4,109.5,85.4,109.4,85.9,109.2z M91,107.7c-0.5-0.7-1-1.4-1.7-2c0.9-0.3,1.6-0.5,2.3-0.7c0.2,0.3,0.4,0.5,0.6,0.7
		c0.1,0.1,0.2,0.2,0.2,0.4c0,0.3,0,0.6,0,1C92,107.2,91.5,107.4,91,107.7z M92.5,108.9c0.1,0,0.2-0.1,0.3-0.1
		c0.2-0.1,0.3-0.3,0.3-0.5c0-1,0-2,0-3c0-0.3-0.1-0.4-0.4-0.3c-0.1,0-0.2,0-0.3,0c0,0,0.1-0.1,0.1-0.1c1.1-0.3,2.1-0.6,3.2-0.8
		c0.3-0.1,0.6-0.1,0.9,0c1.1,0.1,1.5,0.9,1.4,1.8c-0.1,0.7-0.5,1.3-1,1.7c-0.5,0.4-1,0.6-1.6,0.8c-0.9,0.3-1.9,0.5-2.9,0.8
		c0,0-0.1,0-0.2,0C92.4,108.9,92.5,108.9,92.5,108.9z M97.9,103.4c0.2-0.1,0.5-0.1,0.8-0.2c0.2,0.2,0.4,0.4,0.6,0.6
		c-0.2,0.1-0.4,0.2-0.7,0.3C98.3,103.9,98.1,103.7,97.9,103.4z M80.6,109.7c0,0.2,0,0.2-0.1,0.3C80.4,109.9,80.5,109.8,80.6,109.7z
		 M76.1,112.5c-0.2-0.2-0.4-0.4-0.6-0.6c0.4-0.2,0.7-0.4,1-0.5c0.2,0.1,0.3,0.2,0.3,0.4c0,0.4,0,0.8,0,1.3
		C76.5,113,76.3,112.7,76.1,112.5z M65.6,120.9c0.3-0.1,0.5-0.2,0.7-0.3c0,0.1-0.1,0.1-0.1,0.2c-0.9,0.6-1.8,1.1-2.8,1.7
		c0,0,0,0,0-0.1c0,0,0.1-0.1,0.1-0.1c0.1-0.1,0.2-0.2,0.3-0.2c0.2-0.2,0.3-0.4,0.3-0.7c0-1,0-1.9,0-2.9c0-0.1,0-0.1,0-0.2
		c0-0.2-0.1-0.3-0.3-0.2c-0.1,0.1-0.3,0.1-0.4,0.2c0-0.1,0-0.2,0.1-0.2c0.1-0.1,0.2-0.2,0.4-0.2c0.8-0.5,1.5-1,2.3-1.4
		c0.3-0.2,0.7-0.3,1.1-0.5c0.1,0,0.2,0,0.3,0c0.4,0,0.6,0.2,0.6,0.6c0,0.3-0.1,0.6-0.3,0.8c-0.3,0.4-0.6,0.8-1.1,1.1
		c-0.3,0.2-0.7,0.5-1.1,0.7c-0.1,0.1-0.2,0.2-0.2,0.3c0,0.3,0,0.6,0,0.9C65.5,120.5,65.6,120.7,65.6,120.9z M63,118.7
		c0.1,0.1,0.2,0.2,0.3,0.3c0.2,0.2,0.2,0.4,0.2,0.7c-0.6-0.5-1.1-1.1-1.5-1.7c0.3-0.2,0.6-0.3,0.9-0.5c0,0,0,0,0,0
		c0,0.1-0.1,0.1-0.1,0.2C62.7,118.1,62.7,118.4,63,118.7z M67.6,115.1c0.8-0.4,1.5-0.8,2.3-1.2c0,0,0,0,0,0.1
		c-0.5,0.6-0.9,1.2-1.1,2c-0.2-0.2-0.4-0.4-0.6-0.5C68.1,115.2,67.9,115.2,67.6,115.1z M70.1,115.1c0.8-1.3,2-2.1,3.4-2.6
		c0.3-0.1,0.6-0.1,0.8-0.1c0.7,0,1.1,0.4,1.1,1.2c0,0.5-0.2,1-0.4,1.5c-0.6,1-1.4,1.7-2.4,2.3c-0.5,0.3-1,0.5-1.5,0.6
		c-0.1,0-0.2,0-0.3,0c-0.8,0-1.2-0.4-1.2-1.2C69.5,116.1,69.8,115.6,70.1,115.1z M46.5,100.6c-0.3-0.4-0.7-0.7-1.1-1.1
		c-0.1-0.1-0.2-0.2-0.2-0.3c0-0.7,0-1.4,0-2.2c0,0,0-0.1,0.1-0.1c0.5,0.5,1.1,1,1.6,1.6c0,0,0,0,0,0.1c-0.2,0.3-0.1,0.6,0.2,0.9
		c0.3,0.3,0.5,0.6,0.8,0.8c0.1,0.1,0.2,0.3,0.3,0.5c0,0.2,0.1,0.5,0.1,0.7c0,1.1,0,2.2,0,3.4c0,0.2,0,0.3-0.2,0.5
		c-0.2,0.2-0.3,0.4-0.5,0.6c-0.2,0.3-0.4,0.5-0.3,0.9c0,0-0.1-0.1-0.1-0.1c-0.7-0.7-1.3-1.3-2-2c-0.9-0.8-1.9-1.4-3-1.9
		c-0.1,0-0.2-0.1-0.3-0.1c0,0,0,0-0.1-0.1c0.1,0,0.1-0.1,0.2-0.1c0.1,0.1,0.2,0.2,0.3,0.2c0.3,0.3,0.7,0.2,1,0
		c0.2-0.2,0.4-0.4,0.7-0.7c0.1-0.1,0.3-0.2,0.5-0.1c0.6,0.2,1.2,0.1,1.8-0.1C46.8,101.6,46.9,101.1,46.5,100.6z M68,93.6
		c0.2,1.6,0.5,3.1,0.8,4.7c0.3,0.2,0.7,0.3,1,0.5c-0.2,0.3-0.3,0.6-0.5,0.9c-0.2,0.3-0.2,0.5-0.1,0.8c0.3,1.4,0.5,2.8,0.8,4.1
		c0.1,0.5,0.3,0.9,0.4,1.4c0.1,0.4,0.4,0.7,0.9,0.8c-0.5,0.3-0.9,0.5-1.4,0.5c-0.2,0-0.3,0.1-0.4,0.3c-0.4,0.5-0.7,1-1.1,1.6
		c-0.4-0.2-0.8-0.5-1.2-0.7c-0.5,0.3-1.1,0.6-1.7,0.7c0,0,0-0.1,0-0.1c0.8-0.5,1-1.2,1.1-2c0-0.3,0-0.6,0-0.9
		c-0.1-0.7-0.2-1.3-0.4-2c0-0.1,0-0.1,0-0.2c-0.2,0.1-0.4,0.1-0.6,0.2c-0.4,0.2-0.9,0.3-1.3,0.5c-0.1,0-0.2,0.1-0.2,0.2
		c-0.2,1-0.4,1.9-0.6,2.9c-0.1,0.6,0.3,1.3,0.9,1.6c0.1,0,0.1,0.1,0.2,0.1c0,0,0,0.1,0,0.1c-0.4,0.1-0.7,0.2-1.1,0.4
		c-0.2,0.1-0.3,0.1-0.4,0.3c-0.2,0.3-0.5,0.7-0.8,1c-0.1,0.1-0.1,0.2-0.2,0.3c-0.3-0.2-0.6-0.4-0.9-0.7c-0.2-0.1-0.3-0.2-0.5-0.1
		c-0.4,0.1-0.8,0.3-1.3,0.3c0.8-0.6,1.2-1.5,1.4-2.4c0.2-0.8,0.4-1.6,0.5-2.4c0.2-1.1,0.5-2.3,0.7-3.4c0-0.2,0-0.3-0.1-0.5
		c-0.2-0.2-0.4-0.4-0.6-0.7c0.3-0.4,0.7-0.8,1-1.2c0.1-0.2,0.2-0.3,0.3-0.6c0.3-1.4,0.6-2.8,0.9-4.3c0.1-0.4,0.1-0.8,0.1-1.2
		c0-0.5-0.2-0.7-0.7-0.8c-0.1,0-0.3,0-0.5-0.1c0.1-0.1,0.2-0.1,0.3-0.1c0.5-0.2,1-0.3,1.5-0.5c0.2,0,0.3-0.1,0.4-0.3
		c0.3-0.4,0.6-0.8,0.9-1.2c0.1-0.1,0.1-0.2,0.2-0.3c0.3,0.2,0.6,0.4,0.9,0.6c0.2,0.2,0.4,0.2,0.6,0c0.6-0.4,1.2-0.6,1.9-0.7
		c0,0-0.1,0.1-0.1,0.1c-0.2,0.2-0.3,0.3-0.5,0.5C68,92.3,67.9,92.9,68,93.6z M70.5,93c0.1,0.3,0.1,0.6,0.2,0.8
		c0.2,1.3,0.5,2.6,0.7,3.9c0,0.2,0,0.4-0.1,0.5c-0.1,0.2-0.2,0.3-0.3,0.5c-0.3-0.3-0.6-0.5-0.6-1c-0.1-1-0.4-2-0.5-3.1
		c0-0.2,0-0.3,0-0.5C69.7,93.6,70,93.3,70.5,93z M69.8,90.6c0.1,0,0.2-0.1,0.3-0.1c0,0.1,0.1,0.3,0.1,0.4c0,0,0,0-0.1,0
		C70,90.9,69.9,90.8,69.8,90.6z M71.1,100.8c0.1,0.1,0.1,0.1,0.2,0.2c0.2,0.2,0.3,0.4,0.5,0.5c0.3,0.2,0.3,0.4,0.4,0.7
		c0.3,1.7,0.6,3.4,0.9,5.1c0,0.1,0,0.1,0,0.2c-0.3-0.3-0.6-0.6-0.9-0.9c-0.1-0.1-0.2-0.3-0.3-0.4c-0.1-0.6-0.3-1.2-0.4-1.8
		c-0.2-1-0.4-2-0.5-3C71,101.2,70.9,101,71.1,100.8z M59.6,113.1c-0.1-0.2,0.1-0.4,0.1-0.6c0.4,0.3,0.9,0.2,1.3,0.1
		c0.3-0.1,0.5-0.2,0.8-0.1c0.2,0,0.4,0.3,0.6,0.4c0,0,0.1,0.1,0.1,0.1c0.4,0.3,0.8,0.2,1.1-0.1c0.3-0.3,0.5-0.7,0.8-1
		c0.1-0.2,0.2-0.2,0.4-0.3c0.4-0.2,0.9-0.4,1.3-0.5c0.1,0,0.1-0.1,0.2-0.1c0.6,0,1.2-0.3,1.7-0.5c0.1,0,0.2-0.1,0.3,0
		c-2.6,1.5-5.2,3-7.8,4.5C60.1,114.3,59.9,113.7,59.6,113.1z M59.7,115.3c-0.5,0.3-1,0.5-1.5,0.8c-0.1,0-0.1,0-0.2,0
		c-0.4-0.2-0.8-0.3-1.2-0.6c0.9-0.5,1.6-1.1,2.2-1.9C59.2,114.3,59.5,114.8,59.7,115.3z M65.3,108.1c0-0.2,0.1-0.4,0.1-0.6
		c0-0.2,0.1-0.4,0.1-0.6c0.1-0.2,0-0.4,0.2-0.6C65.9,106.9,65.8,107.6,65.3,108.1C65.3,108.1,65.3,108.1,65.3,108.1z M60.5,106.1
		c0,0.1-0.1,0.3-0.1,0.4C60.3,106.3,60.3,106.2,60.5,106.1z M64,92.2c-0.1,0.1-0.2,0.1-0.3,0.1c-0.5,0.2-1.1,0.4-1.6,0.6
		c-0.2,0.1-0.4,0.2-0.5,0.4c-0.1,0.3-0.1,0.6,0.2,0.8c0.3,0.3,0.5,0.5,0.8,0.8c0.2,0.2,0.2,0.3,0.2,0.5c-0.3,1.4-0.6,2.8-0.9,4.3
		c0,0.1-0.1,0.2-0.2,0.3c-0.3,0.3-0.6,0.7-0.8,1c-0.4,0.4-0.4,0.7,0,1.1c0.3,0.3,0.4,0.7,0.3,1.1c-0.1,0.1-0.1,0.3-0.1,0.5
		c0,0,0,0-0.1,0.1c-0.2-0.2-0.3-0.3-0.5-0.5c-0.1-0.1-0.1-0.2-0.1-0.3c0-0.7,0-1.4,0-2.2c0-0.9,0-1.9,0-2.8c0-0.6,0.1-1.1,0.3-1.7
		c0.1-0.4,0.4-0.8,0.8-1c0.4-0.3,0.5-0.7,0.1-1.1c-0.4-0.4-0.8-0.8-1.1-1.1c-0.2-0.2-0.5-0.3-0.8-0.1c-0.5,0.2-0.9,0.4-1.4,0.6
		c-0.2,0.1-0.3,0.1-0.5,0c-0.1-0.1-0.2-0.1-0.2-0.1c-0.4-0.3-0.9-0.2-1.2,0.2c-0.2,0.3-0.4,0.5-0.6,0.8c-0.1,0.2-0.3,0.3-0.5,0.3
		c-0.5,0.1-0.9,0.3-1.4,0.4c-0.6,0.2-0.8,0.8-0.3,1.3c0.2,0.2,0.4,0.4,0.6,0.6c0.1,0.1,0.1,0.1,0.2,0.2c-0.6-0.3-0.6-0.3-1.3-0.1
		c-0.3,0.1-0.7,0.2-1,0.3c-0.1,0-0.3,0-0.4-0.1c-0.3-0.2-0.5-0.4-0.8-0.6c0.7-1.2,0.4-2.5-0.2-3.7c0.4-0.4,0.9-0.7,1.3-1
		c1.3-0.6,2.7-1.1,4.1-1.3c1-0.1,2,0,3,0.1c1.3,0.2,2.6,0.3,3.9,0.5c0.4,0,0.7,0,1.1,0c0.2,0,0.3,0,0.5,0C64.3,91.8,64.2,92,64,92.2
		z M50.6,97.7c0.3,0.3,0.7,0.5,1,0.8c0.6-0.2,1.3-0.4,1.9-0.6c-0.8,0.8-0.9,1.8-1,2.8c0,1.3,0,2.6,0,4c0,0.2,0.1,0.3,0.2,0.4
		c0.2,0.2,0.4,0.4,0.7,0.6c-0.2,0.4-0.5,0.7-0.7,1.1c-0.2,0.3-0.2,0.5-0.2,0.8c0,1.2,0,2.4,0,3.5c0,0.3,0,0.5,0.2,0.8
		c0.2,0.3,0.5,0.4,0.8,0.4c1.2-0.2,1.6-1.1,1.7-1.9c0-1.3,0-2.5,0-3.8c0-0.2-0.1-0.3-0.2-0.4c-0.3-0.2-0.5-0.5-0.8-0.8
		c0.2-0.4,0.5-0.7,0.7-1.1c0.1-0.2,0.2-0.3,0.2-0.5c0-1.7,0-3.5,0-5.2c0-0.6-0.1-1.1-0.2-1.7c-0.1-0.4-0.3-0.8-0.7-1
		c0.3-0.1,0.5-0.2,0.8-0.3c0.1,0,0.2-0.1,0.2-0.1c0.6,0,0.9-0.3,1.2-0.8c0.2-0.3,0.3-0.5,0.5-0.7c0.2,0.1,0.5,0.3,0.7,0.4
		c0.2,0.1,0.3,0.1,0.5,0c0.5-0.3,1-0.5,1.6-0.7c-0.9,0.8-1.1,1.9-1.2,3c0,1.9,0,3.8,0,5.7c0,0.2,0.1,0.3,0.2,0.4
		c0.2,0.2,0.5,0.3,0.7,0.5c-0.3,0.4-0.5,0.9-0.8,1.3c-0.1,0.2-0.2,0.4-0.2,0.6c0,1.1,0,2.2,0,3.3c0,1.6-0.5,3-1.6,4.2
		c-0.5,0.6-1.1,1-1.8,1.3c-0.2,0.1-0.3,0.2-0.4,0.4c-0.3,0.4-0.5,0.7-0.8,1.1c-0.1,0.1-0.1,0.1-0.2,0.2c-0.3-0.2-0.6-0.4-0.9-0.7
		c-0.2-0.1-0.4-0.2-0.6-0.2c-0.4,0-0.7,0-1.1-0.1c-0.9-0.2-1.5-0.8-1.9-1.7c-0.2-0.5-0.3-1.1-0.3-1.6c0-1.1,0-2.3,0-3.4
		c0-0.2,0-0.4-0.2-0.5c-0.3-0.2-0.5-0.5-0.7-0.8c0.3-0.4,0.5-0.7,0.8-1c0.1-0.2,0.2-0.3,0.2-0.5c0-1.1,0-2.3,0-3.4
		c0-0.3,0-0.7-0.1-1c-0.1-0.8-0.5-1.4-1.3-1.7c0.1,0,0.1-0.1,0.2-0.1c0.5,0,1-0.1,1.5-0.1c0.2,0,0.3-0.1,0.4-0.2
		C50,98.4,50.3,98,50.6,97.7z M54.3,108.3c0.1,0.3,0.1,2.1-0.1,2.4C54.2,109.9,54.2,108.5,54.3,108.3z M48.2,108.1
		c-0.1-0.2-0.2-0.4-0.4-0.6C48.1,107.7,48.3,107.9,48.2,108.1z M36.3,95.5c0.1,0,0.2-0.1,0.3-0.1c0.6-0.1,1.2-0.2,1.8,0
		c0.4,0.1,0.5,0.2,0.5,0.6c0,0.6,0,1.2,0,1.8c0,0.5,0,0.9,0,1.4c0,0.1-0.1,0.3-0.1,0.4C38.3,99.1,36.6,96.2,36.3,95.5z M42.4,120.9
		c-0.5,0.5-1,1-1.5,1.3c-1.1,0.8-2.4,1.2-3.8,1.3c-1.8,0.1-3.4-0.3-4.9-1.2c-0.4-0.3-0.8-0.6-1-1c-1.1-2-1.2-4-0.4-6
		c0.4-1.1,1-2,1.8-2.9c0.1-0.1,0.2-0.2,0.3-0.4c1.5,1.7,3,3.3,4.6,4.8C39,118.2,40.6,119.6,42.4,120.9z M112.7,95
		c-0.6-0.1-1.1-0.3-1.6-0.6v-0.9c0.1,0.1,0.2,0.1,0.3,0.1c0.4,0.2,0.8,0.4,1.2,0.5c0.8,0.2,1.4-0.2,1.7-1.1c-0.3,0.3-0.6,0.6-1,0.7
		c0.6-1.4,1.1-2.7,1.4-4.2c0.2,0.1,0.2,0.3,0.2,0.4v3.1c0,0.3,0,0.5,0,0.8c0,0.2-0.1,0.4-0.2,0.5C114.2,94.9,113.5,95.1,112.7,95z
		 M114.1,97.9c-0.5,0-0.9,0-1.4,0c-0.1,0-0.2-0.1-0.3-0.2c0.3-0.3,0.6-0.6,0.9-0.9c0,0,0.1,0,0.1,0
		C113.4,97.3,113.8,97.5,114.1,97.9z M111.8,95.1c-0.2,0.2-0.4,0.4-0.6,0.6c0,0,0,0-0.1,0v-0.9C111.4,95,111.6,95,111.8,95.1z
		 M114.4,95.8L114.4,95.8c0,0.1,0,0.1,0,0.1c0,0-0.1,0-0.1,0C114.2,95.9,114.3,95.9,114.4,95.8z M109.4,87.1c0,0.2,0,0.3,0.2,0.5
		c0.3,0.3,0.5,0.6,0.8,0.9c-0.2,0.3-0.4,0.5-0.7,0.8c-0.2,0.2-0.3,0.5-0.3,0.8c0,1.6,0,3.2,0,4.8c0,0.7,0.3,1.3,0.7,1.8
		c0.2,0.2,0.4,0.3,0.6,0.5c-0.4,0.1-0.8,0-1.2,0c-0.1,0-0.2,0-0.3-0.1c-0.3-0.1-0.5,0-0.7,0.2c-0.3,0.3-0.6,0.6-0.9,0.9
		c-0.4-0.4-0.8-0.7-1.1-1c-0.2-0.1-0.3-0.2-0.5-0.2c-0.5,0.1-1-0.1-1.4-0.4c0.7,0,0.9-0.4,1.1-0.9c0.2-0.4,0.2-0.9,0.2-1.3
		c0-1.5,0-2.9,0-4.4c0-0.3-0.1-0.5-0.2-0.7c-0.3-0.3-0.5-0.6-0.7-0.9c0.3-0.3,0.5-0.6,0.8-0.9c0.1-0.1,0.2-0.3,0.2-0.4
		c0-1.3,0-2.6,0-3.9c0-0.6-0.2-1.2-0.5-1.8c-0.2-0.3-0.4-0.5-0.9-0.7c0.1,0,0.2-0.1,0.3-0.1c0.4,0,0.9,0,1.3,0.1
		c0.2,0,0.3,0,0.4-0.2c0.3-0.3,0.7-0.7,1.1-1.1c0.2,0.2,0.4,0.5,0.7,0.7c0.1,0,0.1,0.1,0.1,0.2c0.3,0.4,0.6,0.6,1.2,0.5
		c0.4-0.1,0.8,0,1.2,0.1c-1,0.4-1.3,1.2-1.3,2.1C109.3,84.3,109.4,85.7,109.4,87.1z M99.8,98.1c-0.3-0.3-0.6-0.5-1-0.8
		c-0.1-0.1-0.2-0.1-0.3-0.2c-1.2-0.3-2-1.2-2.5-2.3c-0.4-0.8-0.6-1.7-0.7-2.6c-0.1-0.6-0.1-1.3-0.1-1.9c0-0.1-0.1-0.3-0.2-0.4
		c-0.3-0.3-0.5-0.5-0.8-0.8c0.3-0.3,0.5-0.7,0.8-1c0.1-0.2,0.2-0.3,0.2-0.5c0.2-1.6,0.6-3.2,1.4-4.7c0.4-0.7,0.8-1.4,1.4-1.8
		c0.6-0.4,1.1-1,1.5-1.5c0.1-0.1,0.1-0.1,0.2-0.2c0.3,0.2,0.5,0.4,0.7,0.6c0.2,0.1,0.3,0.2,0.5,0.2c0.6,0,1.1,0.2,1.5,0.5
		c0.6,0.5,0.9,1.2,1,1.9c0.1,0.3,0.1,0.7,0.1,1c0,1.3-1.2,2.3-2.4,2.2c-0.7-0.1-1.3-0.7-1.3-1.4c-0.1-0.5,0.1-1,0.3-1.4
		c0.1-0.1,0.1-0.2,0.2-0.3c-0.3-0.4-0.9-0.4-1.2,0c-0.3,0.3-0.4,0.7-0.4,1.1c0,0.4,0,0.9,0,1.3c0,0.5,0,1.1,0,1.6
		c0,0.2,0.1,0.4,0.2,0.5c0.3,0.2,0.5,0.5,0.7,0.8c-0.3,0.4-0.5,0.8-0.8,1.1c-0.1,0.1-0.1,0.3-0.1,0.4c0,1.2,0,2.4,0,3.7
		c0,0.3,0.1,0.7,0.2,1c0.2,0.5,0.7,0.6,1.1,0.3c0.2-0.2,0.4-0.4,0.5-0.6c0.2-0.4,0.3-0.8,0.3-1.3c0-0.7,0-1.4,0-2.2
		c0.8-0.2,1.7-0.3,2.5-0.4c0,0.1,0,0.2,0,0.3c0,0.7,0,1.3,0,2c0,1.2-0.3,2.3-1.1,3.2c-0.4,0.5-0.9,0.8-1.4,1
		c-0.1,0.1-0.3,0.2-0.4,0.3C100.3,97.5,100.1,97.8,99.8,98.1z M99.8,99.2c-1.2,0.2-2.3,0.4-3.4,0.7c-0.2-1.2-0.3-2.4-0.4-3.6
		c0.1,0.1,0.2,0.2,0.3,0.3c0.4,0.4,0.8,0.8,1.2,1.2c0.5,0.5,1,0.8,1.7,1C99.4,98.8,99.6,98.9,99.8,99.2z M104.4,88.7
		c0.2,0.3,0.4,0.5,0.6,0.7c0.1,0.1,0.2,0.3,0.2,0.4c0,0.3,0,0.7,0,1.1c-0.1-0.1-0.2-0.1-0.2-0.2c-0.3-0.3-0.6-0.6-0.9-0.9
		c-0.2-0.3-0.5-0.4-0.9-0.3c-0.5,0.1-1,0.1-1.6,0.2c-0.1,0-0.1,0-0.3,0c0.1-0.1,0.1-0.2,0.1-0.2c0.2-0.3,0.1-0.6-0.1-0.9
		c-0.2-0.2-0.4-0.4-0.6-0.6c-0.1-0.1-0.2-0.2-0.2-0.4c0-0.3,0-0.7,0-1c0.6,0.7,1.4,1.1,2.3,1c0.9-0.1,1.6-0.6,2.2-1.4
		c0,0.4,0.1,0.6-0.2,0.9c-0.2,0.2-0.4,0.4-0.5,0.6C104.1,88,104.1,88.3,104.4,88.7z M104.4,79.7c-0.5,0.1-0.8,0.4-0.7,1.1
		c-0.1-0.1-0.2-0.2-0.3-0.3c-0.5-0.5-1.2-0.8-1.9-0.9c-0.3,0-0.6-0.1-0.8-0.4c-0.1-0.1-0.3-0.2-0.4-0.4c-0.4-0.3-0.7-0.2-1,0.1
		c-0.3,0.3-0.6,0.7-0.9,1c-0.1,0.1-0.2,0.2-0.3,0.3c-0.9,0.5-1.5,1.3-2,2.2c-0.3,0.5-0.5,1-0.7,1.6c-0.8-0.7-1.4-1.6-2.3-2
		c0.1-1,0.1-2,0.2-3c0.3-0.1,0.7-0.2,1.1-0.3c2-0.5,4.1-0.6,6.1-0.5c1.3,0.1,2.6,0.3,3.9,0.6c0.1,0,0.1,0,0.2,0.1
		C104.4,79.1,104.4,79.4,104.4,79.7z M95.9,99.9c-1.1,0.3-2.2,0.5-3.4,0.8c0,0,0,0,0,0c0.4-0.3,0.8-0.5,1.2-0.8
		c0.4-0.3,0.7-0.6,1.1-1c0,0.1,0.1,0.1,0.1,0.2c0-0.4,0.2-0.7,0.3-1c0.1-0.2,0.2-0.5,0.4-0.8C95.7,98.3,95.8,99.1,95.9,99.9z
		 M94.6,92.9c-0.3-0.2-0.5-0.5-0.8-0.7c0.1-0.7,0.2-1.4,0.3-2.1c0.2,0.1,0.3,0.2,0.3,0.4C94.5,91.3,94.6,92.1,94.6,92.9z
		 M102.3,98.5c0.7-0.3,1.4-0.8,1.9-1.5c0.5,0.4,0.9,0.9,1.4,1.3c-1.1,0.1-2.3,0.3-3.4,0.4c0,0,0,0,0-0.1
		C102.2,98.7,102.2,98.6,102.3,98.5z M104.9,79.7v-0.7c0.4,0.1,0.8,0.2,1.2,0.3c0,0.1,0,0.1,0,0.2c0,0.3,0,0.3-0.3,0.3
		C105.5,79.7,105.2,79.7,104.9,79.7z M92.6,79.3c0,0.9,0,1.7-0.2,2.6c-0.4,0-0.7,0-1.1,0c-0.8,0.1-1.5,0.4-2.3,0.6
		c-0.2,0.1-0.4,0.1-0.5-0.1c-0.1-0.1-0.2-0.2-0.3-0.3C89,81.1,91.7,79.4,92.6,79.3z M84.8,96.7c0-0.1,0.1-0.1,0.2-0.2
		c0,0.9,0,1.7-0.2,2.5c-0.1,0.3-0.3,0.7-0.4,1c-0.1,0.2-0.3,0.4-0.6,0.5c-0.5,0.2-0.6,0.8-0.2,1.1c0.4,0.4,0.7,0.7,1.1,1.1
		c0.1,0.1,0.2,0.1,0.3,0.3c-0.9,0.3-1.8,0.6-2.7,1c0.1-0.3,0.1-0.6,0.2-0.9c0.3-1.4,0.6-2.9,0.9-4.3c0-0.2,0.1-0.4,0.3-0.6
		C84.1,97.7,84.5,97.2,84.8,96.7z M84.4,94.4c0.1-0.3,0.1-0.6,0.2-0.9c0.3,0.2,0.5,0.5,0.5,0.9c0,0.2,0,0.5,0,0.7c0,0-0.1,0-0.1,0.1
		c-0.2-0.2-0.3-0.3-0.5-0.5C84.4,94.6,84.4,94.5,84.4,94.4z M137.7,95c-0.2,0.1-0.3,0.3-0.3,0.6c-0.1,1.8-0.5,3.4-1.5,4.9
		c-0.4,0.6-0.8,1.1-1.4,1.5c-0.9,0.7-1.8,1-2.9,1c-0.2,0-0.3,0-0.4,0.1c-0.3,0.2-0.6,0.4-0.9,0.7c-0.1-0.1-0.1-0.2-0.2-0.2
		c-0.1-0.1-0.2-0.2-0.3-0.4c-0.4-0.5-0.8-0.9-1.3-1.2c-1.5-0.9-2.6-2.3-3.4-3.8c-1-1.8-1.6-3.8-1.7-5.9c0-0.3,0-0.5,0-0.8
		c0-0.2-0.1-0.3-0.2-0.4c-0.3-0.4-0.6-0.8-1-1.2c0.4-0.3,0.7-0.6,1.1-0.8c0.2-0.1,0.3-0.3,0.3-0.6c0.2-1.2,0.7-2.3,1.3-3.3
		c0.7-1,1.6-1.8,2.8-2.1c0.4-0.1,0.9-0.2,1.3-0.2c0.2,0,0.3,0,0.4-0.2c0.3-0.2,0.6-0.4,0.9-0.6c0.3,0.3,0.5,0.7,0.8,1
		c0.2,0.2,0.4,0.4,0.6,0.5c1.3,0.7,2.3,1.7,3.1,2.8c1.2,1.6,1.9,3.4,2.3,5.4c0,0.2,0.1,0.3,0.2,0.5c0.4,0.5,0.8,1.1,1.3,1.6
		c0.1,0.1,0.1,0.1,0.2,0.2C138.4,94.5,138,94.8,137.7,95z"/>
	<path class="st0" d="M46.5,94.6c-0.1,0.3-0.2,0.6-0.2,0.8c-0.1,0.8,0.4,1.2,1.2,1c0.4-0.1,0.7-0.4,0.8-0.7c0.5-0.8,0.7-2.2-0.2-3.2
		C47.4,93.2,46.8,93.8,46.5,94.6z"/>
	<path class="st0" d="M53.4,73.6c0.1-1,0.3-1.9,0.4-2.9c0.1-1,0.2-2,0-3c-0.1-0.5-0.2-0.9-0.6-1.3c-0.1-0.1-0.1-0.1-0.2-0.2
		c0.1,0.3,0.2,0.6,0.2,0.9c0.3,1.5,0.2,3,0,4.5c-0.2,1.3-0.4,2.5-0.4,3.8c0,0.7,0.1,1.4,0.1,2.2c0.1,0.6,0.2,1.2,0.4,1.8
		c0.1,0.4,0.3,0.8,0.6,1.1c-0.3-1.3-0.5-2.5-0.6-3.8C53.4,75.5,53.3,74.5,53.4,73.6z"/>
	<path class="st0" d="M66.3,58.6c0.1,0.3,0.1,0.3,0,0.5c-0.2,0.2-0.4,0.4-0.6,0.6c0,0,0,0,0,0c0.1,0,0.3,0,0.4-0.1
		c0.4-0.1,0.7,0,0.9,0.3c0.2,0.4,0.4,0.7,0.6,1.1c0.5,1.3,1.1,2.5,2,3.6c0.3,0.3,0.6,0.6,1,0.6c0.1,0,0.2,0,0.3,0
		c1.1,0,2.1,0.1,3.2,0.1c0.7,0,1.3-0.2,1.8-0.5c0.2-0.2,0.4-0.4,0.6-0.7c-0.4,0.2-0.7,0.3-1,0.4c0.1-0.4,0.3-0.8,0.7-1
		c0.3-0.2,0.7-0.5,1-0.8c0.6-0.4,0.7-1,0.7-1.7c0-0.6-0.2-1.2-0.4-1.7c-0.4-0.9-0.7-1.9-1.3-2.6c0,0,0,0,0-0.1
		c1.1,0.5,1.5,1.5,2,2.6c0-0.1,0-0.1,0-0.2c-0.2-0.5-0.3-1-0.5-1.5c-0.1-0.3-0.4-0.6-0.6-0.9c-0.5-0.5-1.2-0.7-1.9-0.3
		c-0.2,0.1-0.4,0.2-0.6,0.3c-1.5,0.6-2.9,1.1-4.4,1.7c-0.2,0.1-0.3,0.1-0.5,0.1c-0.7,0.1-1.4-0.1-2-0.2c-0.4-0.1-0.7-0.1-1.1-0.2
		c-0.4,0-0.8,0.1-1.2,0.4c-0.3,0.3-0.5,0.8-0.5,1.2C65.2,59.2,65.6,58.8,66.3,58.6z"/>
	<path class="st0" d="M79.2,54.5c-0.1,0.1-0.1,0.1-0.2,0.2c0.4,0.2,0.4,0.6,0.4,0.9c0,0.3,0.1,0.6,0.1,0.9c0,0.2,0.1,0.3,0.3,0.4
		c0-0.1,0-0.1,0-0.1c0-0.6-0.1-1.3-0.2-1.9c0-0.2,0.1-0.3,0.3-0.4c0,0.2,0,0.3,0,0.4c0,0.7,0.1,1.3,0.5,1.9c0.2,0.3,0.3,0.6,0.5,0.9
		c0.1,0.3,0.2,0.6,0.2,0.9c0,0.3,0.1,0.4,0.4,0.5c0.1,0,0.2,0,0.3,0.1c0,0.2,0,0.4,0,0.5c0.1,0,0.1,0,0.1,0c0.6-0.3,1.3-0.5,1.9-0.5
		c0.5,0,0.9-0.2,1.2-0.7c0.1-0.2,0.2-0.3,0.4-0.4c0.1-0.1,0.3-0.2,0.5-0.1c0,0.2,0,0.3,0,0.5c0.4-0.4,0.5-0.8,0.6-1.2
		c0.1-0.2,0.1-0.5,0.2-0.7c0.1-0.4,0.3-0.7,0.7-1c0.1,0,0.1-0.1,0.2-0.1c-0.1-0.3-0.1-0.6-0.1-1c0-0.2,0-0.4,0-0.5
		c-0.1-0.6-0.4-1.1-0.7-1.6c-0.5-0.6-1-1.2-1.5-1.8c-0.3-0.4-0.3-0.6-0.1-1c0.3-0.3,0.2-0.6,0.1-0.9c-0.4,0.4-1,0.8-1.3,0.9
		c0-0.3,0.1-0.7,0.1-1c0,0,0,0,0,0c-0.5,0.7-1,1.5-1.2,2.4c-0.1,0.2-0.1,0.5-0.3,0.7c-0.2,0.3-0.5,0.6-0.8,0.8
		C80.9,53.1,80.1,53.8,79.2,54.5z"/>
	<path class="st0" d="M81.1,64.2c0.4-0.2,0.5-0.6,0.4-1c0-0.3-0.2-0.5-0.3-0.8c-0.1-0.2-0.2-0.3-0.3-0.6c0.4,0.5,0.8,0.9,1.1,1.3
		c0,0,0.1,0.1,0.1,0.1c0.2,0.3,0.3,0.3,0.5,0c0.5-0.7,0.5-1,0-1.6c-0.1-0.1-0.1-0.1-0.2-0.2c-0.6-0.5-1.1-1.1-1.5-1.7
		c-0.3-0.4-0.6-0.9-0.8-1.4c-0.1-0.2-0.1-0.4-0.2-0.7c-0.2,0.2-0.3,0.3-0.4,0.4c-0.4,0.6-0.6,1.3-0.5,2.1c0.1,0.6,0.2,1.1,0.2,1.7
		c0,0.3,0.1,0.5,0.1,0.8c-0.1,0.6,0,1.1,0.6,1.5C80.5,64.5,80.7,64.5,81.1,64.2z"/>
	<path class="st0" d="M72,57c0.7-0.3,1.3-0.6,2-1c0.6-0.3,1.1-0.6,1.8-0.7c-0.1-0.1-0.1-0.1-0.2-0.1c-0.5-0.2-0.9-0.2-1.3,0.1
		c-0.8,0.4-1.5,0.8-2.3,1.2c-0.2,0.1-0.4,0.2-0.6,0.2c-0.4,0-0.8,0-1.2-0.1c-0.1,0-0.2,0-0.2,0c0.4,0.4,0.9,0.6,1.5,0.6
		C71.6,57.1,71.8,57.1,72,57z"/>
	<path class="st0" d="M79.8,53.4c0.1-0.2,0.3-0.3,0.5-0.5c0.5-0.4,1-0.8,1.5-1.2c0.1-0.1,0.2-0.1,0.2-0.2c0.2-0.4,0.3-0.8,0.5-1.2
		c0,0-0.1,0-0.1-0.1c-0.1,0.1-0.1,0.2-0.2,0.2c-0.4,0.5-0.8,0.9-1.3,1.2c-0.5,0.4-1,0.8-1.4,1.2c-0.3,0.3-0.6,0.6-1,0.7
		c0.1,0,0.2,0.1,0.3,0.1C79.2,53.9,79.5,53.8,79.8,53.4z"/>
	<path class="st0" d="M84.4,75c0.4-0.3,0.7-0.6,1.1-0.9c0.4-0.3,0.8-0.4,1.2-0.7C85.8,73.1,84.6,73.8,84.4,75z"/>
	<path class="st0" d="M82,64.2c-0.3,0.4-0.6,0.6-1.1,0.7c-0.1,0-0.3,0-0.4,0.1c0.6,0.1,1.1,0,1.6-0.3c0.2-0.1,0.3-0.2,0.5-0.2
		c0.5-0.1,0.9-0.4,1.2-0.9c-0.5,0.3-1,0.6-1.6,0.6C82.1,64.1,82,64.1,82,64.2z"/>
	<path class="st0" d="M76.9,55c0.1-0.3,0.1-0.7-0.1-1c-0.2-0.3-0.4-0.6-0.7-1c-0.1,0.4,0,0.8,0.2,1.1C76.5,54.4,76.7,54.7,76.9,55z"
		/>
	<path class="st0" d="M83,67.7c0-0.9-0.2-1.7-0.7-2.4C82.5,66.1,82.8,66.9,83,67.7z"/>
	<path class="st0" d="M132.6,92.9c-0.1-0.1-0.2-0.2-0.3-0.3c0.1-0.1,0.2-0.2,0.3-0.2c0.3-0.2,0.6-0.4,0.9-0.6
		c0.1-0.1,0.2-0.2,0.2-0.4c-0.1-0.3-0.1-0.6-0.2-0.9c-0.3-1.1-0.6-2.2-1.3-3.2c-0.3-0.4-0.5-0.8-0.9-1c-0.7-0.5-1.3-0.5-2,0
		c-0.4,0.3-0.7,0.7-0.9,1.2c-0.4,0.9-0.7,1.8-0.8,2.7c0,0.2,0,0.4,0.2,0.6c0.2,0.2,0.4,0.5,0.6,0.8c-0.3,0.2-0.5,0.4-0.7,0.5
		c-0.1,0.1-0.2,0.2-0.2,0.4c0.1,0.8,0.1,1.5,0.2,2.3c0.2,1.2,0.5,2.3,1,3.4c0.3,0.7,0.7,1.4,1.3,1.9c0.8,0.7,1.7,0.6,2.4-0.2
		c0,0,0.1-0.1,0.1-0.1c0.2-0.3,0.5-0.7,0.6-1c0.6-1.3,0.8-2.6,0.9-4c0-0.1-0.1-0.2-0.1-0.3C133.3,93.8,132.9,93.3,132.6,92.9z
		 M132.2,98.3c-0.2,0.3-0.4,0.6-0.6,0.9c-0.1,0.2-0.4,0.3-0.6,0.4c-0.2,0-0.4,0-0.5-0.2c-0.3-0.6-0.6-1.2-0.8-1.9
		c-0.1-0.2,0-0.3,0.1-0.4c0.5-1.2,1-2.5,1.4-3.7c0.4-1.2,0.7-2.4,1.1-3.6c0-0.1,0.1-0.2,0.1-0.3c0,0,0.1,0,0.1,0
		c0.1,0.6,0.3,1.1,0.4,1.7c-0.3,0.2-0.6,0.4-0.9,0.7c-0.5,0.4-0.5,0.7-0.2,1.2c0.4,0.5,0.7,0.9,1.1,1.4c0.1,0.1,0.2,0.2,0.1,0.4
		C133,95.9,132.7,97.2,132.2,98.3z"/>
	<path class="st0" d="M64.5,102c0.4-0.1,0.8-0.3,1.1-0.4c0-0.6-0.4-2.4-0.5-2.6C65,100,64.8,101,64.5,102z"/>
	<path class="st0" d="M92.3,43.7c-1-1.1-1-1-1.4-2.4c0-0.1,0-0.2-0.1-0.2c0,0,0,0-0.1-0.1c0,0-0.1,0.1-0.1,0.1
		c0,0.1-0.1,0.2-0.1,0.3c-0.1,0.6,0,1.2,0.2,1.7c0.1,0.2,0.2,0.3,0.3,0.5c1.8,1.6,3.5,3.2,5.3,4.9c0,0,0.1,0.1,0.2,0.1
		c-0.1-0.1-0.1-0.1-0.1-0.2C95.1,46.8,93.7,45.3,92.3,43.7z"/>
	<path class="st0" d="M94.9,108.1c0.7-0.1,1.2-0.5,1.4-1.2c0.2-0.4,0.2-0.8,0.2-1.2c0-0.3-0.1-0.5-0.2-0.8c-0.2-0.5-0.5-0.7-1-0.6
		c-0.2,0-0.5,0.1-0.7,0.1c0,0.1,0,0.2,0,0.3c0,0.6,0,1.1,0,1.7c0,0.5,0,0.9,0,1.4C94.5,108.1,94.6,108.1,94.9,108.1z"/>
	<path class="st0" d="M72,117.2c0.5-0.1,0.9-0.4,1.2-0.8c0.5-0.6,0.7-1.4,0.7-2.3c0-0.1,0-0.4-0.1-0.6c-0.1-0.5-0.5-0.7-1-0.5
		c-0.3,0.1-0.6,0.3-0.9,0.5c-0.7,0.6-0.9,1.3-1,2.2c0,0.4,0,0.8,0.1,1.1C71.4,117.2,71.6,117.4,72,117.2z"/>
	<path class="st0" d="M66.6,117.9c0.1-0.2,0.1-0.5,0.1-0.7c0-0.3-0.2-0.4-0.5-0.3c-0.2,0.1-0.4,0.2-0.7,0.3v1.7
		C66,118.8,66.5,118.4,66.6,117.9z"/>
	<path class="st0" d="M87.2,109.2C87.2,109.2,87.2,109.2,87.2,109.2c0.5-0.1,1-0.3,1.5-0.5c-0.3-0.4-0.5-0.7-0.8-1.1
		C87.7,108.2,87.4,108.7,87.2,109.2z"/>
</g>
</svg>
