<svg width="150" height="150" viewBox="0 0 150 150" fill="none" xmlns="http://www.w3.org/2000/svg">
<path fill-rule="evenodd" clip-rule="evenodd" d="M125.193 51.7115C124.314 51.7115 123.426 52.4136 123.426 53.4784C123.426 54.4264 124.13 55.0869 124.905 55.2204L124.905 58.372C124.208 58.4093 123.547 58.5807 122.947 58.8609L121.432 56.083C121.731 55.8537 121.956 55.5652 122.066 55.2328C122.206 54.8131 122.153 54.3564 121.892 53.9213C121.644 53.5077 121.299 53.1945 120.886 53.0569C120.466 52.917 120.01 52.97 119.575 53.231C119.161 53.4792 118.848 53.8244 118.71 54.2373C118.57 54.657 118.623 55.1137 118.884 55.5488C119.322 56.2789 120.205 56.6987 120.941 56.3876L122.438 59.1331C121.844 59.4938 121.327 59.9677 120.915 60.5249L118.335 58.7188C118.677 58.011 118.438 57.1102 117.666 56.639C116.936 56.1018 115.871 56.2978 115.344 57.1612C114.806 57.8921 115.003 58.9568 115.866 59.484C116.524 59.9677 117.453 59.8569 118.016 59.1998L120.598 61.0071C120.14 61.7922 119.878 62.7052 119.878 63.6794C119.878 66.6149 122.258 68.9945 125.193 68.9945C128.129 68.9945 130.508 66.6149 130.508 63.6794C130.508 62.7051 130.246 61.7921 129.789 61.0069L132.391 59.1851C132.635 59.4261 132.945 59.604 133.269 59.6895C133.685 59.7989 134.151 59.7612 134.532 59.475C134.88 59.214 135.139 58.8258 135.248 58.4121C135.356 58.0007 135.321 57.5406 135.043 57.1613C134.515 56.2978 133.451 56.1017 132.72 56.639C131.948 57.1102 131.709 58.011 132.051 58.7188L129.471 60.5247C129.06 59.9675 128.542 59.4936 127.948 59.1329L129.454 56.3718C130.27 56.6905 131.177 56.337 131.514 55.5291C131.765 55.0999 131.814 54.6506 131.676 54.2373C131.539 53.8244 131.225 53.4792 130.812 53.231L130.792 53.2191L130.77 53.2105C130.352 53.0432 129.882 52.9966 129.463 53.107C129.043 53.2174 128.672 53.4877 128.482 53.941C128.028 54.7199 128.25 55.6553 128.939 56.1102L127.439 58.8607C126.839 58.5806 126.178 58.4093 125.482 58.372L125.482 55.2204C126.257 55.0869 126.96 54.4264 126.96 53.4784C126.96 52.5989 126.258 51.7115 125.193 51.7115ZM124.003 53.4784C124.003 52.7691 124.594 52.2885 125.193 52.2885C125.902 52.2885 126.383 52.8795 126.383 53.4784C126.383 54.1877 125.792 54.6683 125.193 54.6683C124.594 54.6683 124.003 54.1877 124.003 53.4784ZM119.871 53.7258C120.176 53.5433 120.458 53.5224 120.704 53.6043C120.956 53.6884 121.202 53.8926 121.398 54.2182C121.58 54.5223 121.601 54.8048 121.519 55.0504C121.435 55.3028 121.231 55.549 120.905 55.7443L120.892 55.752L120.88 55.7609C120.475 56.0651 119.769 55.9025 119.379 55.2519C119.197 54.9478 119.176 54.6653 119.258 54.4197C119.342 54.1673 119.546 53.9211 119.871 53.7258ZM129.009 54.1769C129.118 53.9041 129.333 53.7376 129.609 53.665C129.886 53.5922 130.22 53.6167 130.535 53.7379C130.849 53.9312 131.046 54.1725 131.129 54.4197C131.211 54.6653 131.19 54.9478 131.007 55.2519L130.995 55.2717L130.987 55.2932C130.761 55.857 130.078 56.1023 129.481 55.7443L129.461 55.7324L129.44 55.7238C128.876 55.4983 128.631 54.8148 128.989 54.2182L129.001 54.1984L129.009 54.1769ZM133.054 57.1095C133.502 56.7735 134.196 56.8712 134.555 57.4707L134.563 57.4835L134.572 57.4954C134.729 57.7051 134.766 57.9788 134.69 58.2653C134.614 58.5538 134.43 58.8309 134.186 59.0134C133.976 59.1707 133.703 59.2069 133.416 59.1315C133.128 59.0556 132.851 58.871 132.668 58.6276C132.332 58.1795 132.43 57.4858 133.029 57.1261L133.042 57.1185L133.054 57.1095ZM115.831 57.4707C116.191 56.8712 116.884 56.7735 117.332 57.1095L117.344 57.1185L117.357 57.1261C117.956 57.4858 118.054 58.1795 117.718 58.6276L117.709 58.6395L117.702 58.6523C117.342 59.2517 116.648 59.3495 116.2 59.0134L116.188 59.0045L116.175 58.9968C115.576 58.6371 115.478 57.9435 115.814 57.4954L115.823 57.4835L115.831 57.4707ZM120.455 63.6794C120.455 61.0626 122.577 58.9413 125.193 58.9413C127.81 58.9413 129.931 61.0626 129.931 63.6794C129.931 66.2962 127.81 68.4175 125.193 68.4175C122.577 68.4175 120.455 66.2962 120.455 63.6794Z" fill="#282828"/>
<path d="M23.3306 76.0982V61.3141H22V92.2129H23.3306V78.168L24.809 76.9852L40.4802 92.2129H42.2542L35.01 85.1165L25.696 75.8025L40.3323 61.3141H38.7061L23.3306 76.0982Z" fill="#282828"/>
<path d="M59.5518 83.7859L59.5702 83.9154C59.7126 84.9184 59.872 86.0403 60.4388 86.8906C62.0651 89.6996 65.7611 92.0651 70.0485 91.4737C73.1532 91.178 75.9621 89.4039 77.1449 87.0385C77.5884 86.0036 78.0319 84.9687 78.1798 83.6381V61.3141H79.5103V80.8291C79.5103 83.3424 79.3625 85.7079 78.3276 87.482C76.997 90.1431 73.7445 92.3607 70.0485 92.6564C65.3176 93.2478 61.178 90.7345 59.4039 87.482C58.9604 86.8906 58.369 85.4122 58.2212 83.4903V61.3141H59.5518V83.7859Z" fill="#282828"/>
<path d="M108.635 92.3607V61.3141H107.304V88.8125C106.805 88.4131 106.373 87.9462 105.963 87.503C105.766 87.2901 105.574 87.0825 105.382 86.8906L86.4587 67.2277L80.6929 61.3141V92.2129H82.1713V64.8623H82.3191L93.5551 76.5417L102.278 85.8557L108.487 92.3607H108.635Z" fill="#282828"/>
<path d="M109.818 92.2129V61.3141H117.358V62.6446H111.148V74.6198H123.715V76.246H111.148V90.8823H123.715V92.2129H109.818Z" fill="#282828"/>
<path d="M42.9934 92.2129V61.4619H57.0383V62.7925H44.4718V74.6198H57.1862V76.246H44.4718V90.8823H57.1862V92.2129H42.9934Z" fill="#282828"/>
</svg>
