<svg width="150" height="150" viewBox="0 0 150 150" fill="none" xmlns="http://www.w3.org/2000/svg">
<path d="M15.0997 87.3955V76.2692H31.854V74.1695H15.0997V67.2643L17.2643 65.0997H31.854V63H16.4201L13 66.3768V87.3955H15.0997Z" fill="#282828"/>
<path d="M38.9541 87.4171H50.9895L54.388 84.0403V63H52.2883V83.1312L50.1236 85.3391H39.7983L37.6336 83.1312V63H35.5339V84.0403L38.9541 87.4171Z" fill="#282828"/>
<path d="M75.6664 87.4171H63.6309L60.2108 84.0403V79.7543H62.3105V83.1312L64.4752 85.3391H74.8005L76.9651 83.1312V78.4339L74.8005 76.2692H63.6309L60.2108 72.8491V66.3768L63.6309 63H75.6664L79.0865 66.3768V70.6845H76.9868V67.2643L74.8221 65.0997H64.4968L62.3322 67.2643V71.9616L64.4968 74.1695H75.6664L79.0865 77.5464V84.0187L75.6664 87.4171Z" fill="#282828"/>
<path d="M84.7362 63V87.4171H86.8359V63H84.7362Z" fill="#282828"/>
<path fill-rule="evenodd" clip-rule="evenodd" d="M108.028 87.4171H95.9924L92.5723 84.0403V66.3768L95.9924 63H108.028L111.448 66.3768V84.0403L108.028 87.4171ZM109.348 67.2643L107.184 65.0997H96.8583L94.6936 67.2643V83.1312L96.8583 85.3391H107.162L109.327 83.1312V67.2643H109.348Z" fill="#282828"/>
<path d="M119.306 67.1994L133.7 87.4171H136.082V63H133.982V83.9537L118.764 63H117.206V87.4171H119.306V67.1994Z" fill="#282828"/>
</svg>
